<?xml version="1.0" encoding="UTF-8"?>
<svg version="1.1" xmlns="http://www.w3.org/2000/svg" width="40" height="40">
<path d="M0 0 C2.25 0 2.25 0 5 1 C8.79877042 6.46073248 10.14269803 12.05903202 10.125 18.625 C10.12886719 20.06746094 10.12886719 20.06746094 10.1328125 21.5390625 C10 24 10 24 9 26 C4.15311808 25.21824485 -0.3766367 23.60155722 -5 22 C-4.484375 22.9075 -3.96875 23.815 -3.4375 24.75 C-2 28 -2 28 -2.3125 30.375 C-2.6528125 31.179375 -2.6528125 31.179375 -3 32 C-5.1875 32.5 -5.1875 32.5 -8 32 C-9.234375 30.25390625 -9.234375 30.25390625 -10.4375 28.0625 C-11.60747639 25.85279234 -11.60747639 25.85279234 -13 24 C-16.08961458 23.02525184 -16.08961458 23.02525184 -19 23 C-21 21 -21 21 -21.3125 18.0625 C-21 15 -21 15 -19.77734375 13.421875 C-17.68243368 11.74594695 -15.78637595 11.05002536 -13.25 10.1875 C-7.93278554 8.17116245 -2.63455235 5.2691047 0 0 Z M2 2 C1.23043864 4.34533951 1.23043864 4.34533951 1 7 C1.97753644 8.02196992 2.9805881 9.01979625 4 10 C4.90010116 13.60040463 5.1832439 15.45026831 4 19 C4.87483915 21.16715557 4.87483915 21.16715557 6 23 C6.66 23 7.32 23 8 23 C8.3561397 16.58948539 7.56373679 10.93985108 5 5 C3.49276536 3.24053893 3.49276536 3.24053893 2 2 Z M-2 7 C-2.53109375 7.34933594 -3.0621875 7.69867188 -3.609375 8.05859375 C-4.66898438 8.74115234 -4.66898438 8.74115234 -5.75 9.4375 C-6.44609375 9.88996094 -7.1421875 10.34242187 -7.859375 10.80859375 C-9.92957014 11.9608009 -11.68696324 12.54676982 -14 13 C-13.67 15.31 -13.34 17.62 -13 20 C-9.71480525 21.09506492 -7.26336585 21.09960608 -3.8125 21.0625 C-2.72582031 21.05347656 -1.63914062 21.04445313 -0.51953125 21.03515625 C0.31191406 21.02355469 1.14335937 21.01195312 2 21 C1.71831703 19.04020573 1.42433283 17.08217622 1.125 15.125 C0.96257813 14.03445312 0.80015625 12.94390625 0.6328125 11.8203125 C0.23743487 8.88067286 0.23743487 8.88067286 -2 7 Z M-17 14 C-17.66 14.66 -18.32 15.32 -19 16 C-18.67958603 18.60280568 -18.67958603 18.60280568 -18 21 C-16.02 21.495 -16.02 21.495 -14 22 C-14.66 19.36 -15.32 16.72 -16 14 C-16.33 14 -16.66 14 -17 14 Z M-9 22 C-9 22.99 -9 23.98 -9 25 C-8.34 25 -7.68 25 -7 25 C-7.33 24.01 -7.66 23.02 -8 22 C-8.33 22 -8.66 22 -9 22 Z M-8 27 C-7.67 27.99 -7.34 28.98 -7 30 C-6.34 30 -5.68 30 -5 30 C-5 29.01 -5 28.02 -5 27 C-5.99 27 -6.98 27 -8 27 Z " fill="#515761" transform="translate(21,4)"/>
<path d="M0 0 C2.25 0 2.25 0 5 1 C7.8288477 4.68101611 9.0812852 7.86200713 8.75 12.5 C8.5025 13.325 8.255 14.15 8 15 C6.13448574 11.41247258 4.57464072 7.72187807 3 4 C2.01 4.33 1.02 4.66 0 5 C-0.73323796 7.01508358 -0.73323796 7.01508358 -1 9 C-1.99 9 -2.98 9 -4 9 C-4.928125 9.680625 -5.85625 10.36125 -6.8125 11.0625 C-10 13 -10 13 -13.375 12.75 C-14.674375 12.37875 -14.674375 12.37875 -16 12 C-15.484375 11.7525 -14.96875 11.505 -14.4375 11.25 C-13.2309375 10.63125 -13.2309375 10.63125 -12 10 C-10.865625 9.4225 -9.73125 8.845 -8.5625 8.25 C-4.78924263 6.10314667 -2.59038789 3.45385052 0 0 Z " fill="#444952" transform="translate(21,4)"/>
<path d="M0 0 C-0.9481262 2.37031549 -1.68896678 3.76672508 -3.75 5.3125 C-6.75172093 6.22969251 -8.97769126 5.68688835 -12 5 C-10.66666667 4.33333333 -9.33333333 3.66666667 -8 3 C-6.96875 2.46375 -5.9375 1.9275 -4.875 1.375 C-2 0 -2 0 0 0 Z " fill="#4B505A" transform="translate(17,11)"/>
<path d="M0 0 C1.32 0.66 2.64 1.32 4 2 C4 2.66 4 3.32 4 4 C4.66 4.33 5.32 4.66 6 5 C1.99799622 6.60080151 -1.04556236 5.29279692 -5 4 C-2 2 -2 2 0 2 C0 1.34 0 0.68 0 0 Z " fill="#464B54" transform="translate(23,23)"/>
<path d="M0 0 C2.31 0 4.62 0 7 0 C7 0.33 7 0.66 7 1 C5.35 1 3.7 1 2 1 C2.350625 1.598125 2.70125 2.19625 3.0625 2.8125 C4 5 4 5 3 8 C2.67 7.01 2.34 6.02 2 5 C1.34 5 0.68 5 0 5 C0 3.35 0 1.7 0 0 Z " fill="#616774" transform="translate(14,25)"/>
<path d="M0 0 C1.32 0.99 2.64 1.98 4 3 C3.67 5.31 3.34 7.62 3 10 C2.34 9.67 1.68 9.34 1 9 C0.5859375 6.93359375 0.5859375 6.93359375 0.375 4.4375 C0.30023437 3.61121094 0.22546875 2.78492188 0.1484375 1.93359375 C0.09945313 1.29550781 0.05046875 0.65742188 0 0 Z " fill="#3F444C" transform="translate(22,11)"/>
<path d="M0 0 C-0.75 1.9375 -0.75 1.9375 -2 4 C-4.125 4.75 -4.125 4.75 -6 5 C-6 4.34 -6 3.68 -6 3 C-2.53846154 -0 -2.53846154 -0 0 0 Z " fill="#484D57" transform="translate(36,4)"/>
<path d="M0 0 C0 0.66 0 1.32 0 2 C-1.98 2.33 -3.96 2.66 -6 3 C-6 2.34 -6 1.68 -6 1 C-4 0 -4 0 0 0 Z " fill="#444952" transform="translate(39,13)"/>
<path d="M0 0 C2.97 0.495 2.97 0.495 6 1 C6 1.66 6 2.32 6 3 C3.03 2.505 3.03 2.505 0 2 C0 1.34 0 0.68 0 0 Z " fill="#4D535D" transform="translate(34,21)"/>
</svg>
