<?xml version="1.0" encoding="UTF-8"?>
<svg version="1.1" xmlns="http://www.w3.org/2000/svg" width="40" height="40">
<path d="M0 0 C11.22 0 22.44 0 34 0 C34.144375 5.48625 34.28875 10.9725 34.4375 16.625 C34.50122803 18.34541504 34.56495605 20.06583008 34.63061523 21.83837891 C34.91516126 34.27547115 34.91516126 34.27547115 31.34375 38.0625 C25.89231391 41.41946242 19.21368326 40.62465593 13.0625 40.375 C8.751875 40.25125 4.44125 40.1275 0 40 C0 26.8 0 13.6 0 0 Z M2 2 C2 13.88 2 25.76 2 38 C9.59 38 17.18 38 25 38 C25 35.69 25 33.38 25 31 C27.31 31 29.62 31 32 31 C32 21.43 32 11.86 32 2 C22.1 2 12.2 2 2 2 Z M27 33 C27.33 33.99 27.66 34.98 28 36 C28.66 35.01 29.32 34.02 30 33 C29.01 33 28.02 33 27 33 Z " fill="#4B505A" transform="translate(3,0)"/>
<path d="M0 0 C0.33 0 0.66 0 1 0 C1 12.54 1 25.08 1 38 C8.92 38 16.84 38 25 38 C25 35.36 25 32.72 25 30 C26.98 30 28.96 30 31 30 C30.360625 30.2475 29.72125 30.495 29.0625 30.75 C26.81258459 31.81562433 26.81258459 31.81562433 26.25 34.125 C26.1675 34.74375 26.085 35.3625 26 36 C26.66 36 27.32 36 28 36 C27.67 36.99 27.34 37.98 27 39 C18.09 39 9.18 39 0 39 C0 26.13 0 13.26 0 0 Z " fill="#6A717F" transform="translate(3,1)"/>
<path d="M0 0 C0.33 0 0.66 0 1 0 C1.26694913 4.48291749 1.49995755 8.96594244 1.7019043 13.45214844 C1.77531293 14.97736263 1.85791699 16.5021635 1.94995117 18.02636719 C2.08081236 20.22025864 2.17831198 22.4135218 2.26953125 24.609375 C2.31721146 25.2886908 2.36489166 25.96800659 2.41401672 26.66790771 C2.53267209 30.39282515 2.23762791 31.74247221 -0.3293457 34.52441406 C-1.21066162 35.01135742 -2.09197754 35.49830078 -3 36 C-3.99 35.67 -4.98 35.34 -6 35 C-5.67 33.35 -5.34 31.7 -5 30 C-3.68 29.67 -2.36 29.34 -1 29 C-0.67 19.43 -0.34 9.86 0 0 Z M-5 31 C-4.67 31.99 -4.34 32.98 -4 34 C-3.34 33.01 -2.68 32.02 -2 31 C-2.99 31 -3.98 31 -5 31 Z " fill="#40444D" transform="translate(35,2)"/>
<path d="M0 0 C5.94 0 11.88 0 18 0 C18 0.99 18 1.98 18 3 C12.39 3 6.78 3 1 3 C0.67 2.01 0.34 1.02 0 0 Z " fill="#454A53" transform="translate(7,31)"/>
<path d="M0 0 C1.65 1.32 3.3 2.64 5 4 C5 3.34 5 2.68 5 2 C5.66 2 6.32 2 7 2 C7.33 3.32 7.66 4.64 8 6 C7.01 6.33 6.02 6.66 5 7 C4.67 7.66 4.34 8.32 4 9 C3.34 9 2.68 9 2 9 C2 8.34 2 7.68 2 7 C0.35 7.66 -1.3 8.32 -3 9 C-2.44271087 5.65626525 -1.64826111 2.96687001 0 0 Z " fill="#4A4F59" transform="translate(25,6)"/>
<path d="M0 0 C8.58 0 17.16 0 26 0 C26 0.66 26 1.32 26 2 C17.42 2 8.84 2 0 2 C0 1.34 0 0.68 0 0 Z " fill="#4E535E" transform="translate(7,25)"/>
<path d="M0 0 C8.58 0 17.16 0 26 0 C26 0.66 26 1.32 26 2 C17.42 2 8.84 2 0 2 C0 1.34 0 0.68 0 0 Z " fill="#676E7C" transform="translate(7,19)"/>
<path d="M0 0 C4.95 0 9.9 0 15 0 C15 0.99 15 1.98 15 3 C10.05 3 5.1 3 0 3 C0 2.01 0 1.02 0 0 Z " fill="#444952" transform="translate(7,6)"/>
<path d="M0 0 C4.29 0 8.58 0 13 0 C13 0.66 13 1.32 13 2 C8.71 2 4.42 2 0 2 C0 1.34 0 0.68 0 0 Z " fill="#494E58" transform="translate(7,13)"/>
<path d="M0 0 C1.98 0 3.96 0 6 0 C5.360625 0.2475 4.72125 0.495 4.0625 0.75 C1.81258459 1.81562433 1.81258459 1.81562433 1.25 4.125 C1.1675 4.74375 1.085 5.3625 1 6 C1.66 6 2.32 6 3 6 C2.67 6.99 2.34 7.98 2 9 C1.01 8.67 0.02 8.34 -1 8 C-0.67 5.36 -0.34 2.72 0 0 Z " fill="#646B78" transform="translate(28,31)"/>
</svg>
