<?xml version="1.0" encoding="UTF-8"?>
<svg version="1.1" xmlns="http://www.w3.org/2000/svg" width="40" height="40">
<path d="M0 0 C1.875 1.125 1.875 1.125 3 3 C3.25265405 6.09501208 3.39935013 8.20129973 2 11 C2.33 11.66 2.66 12.32 3 13 C3.07116382 15.37402501 3.08409085 17.75000677 3.0625 20.125 C3.05347656 21.40632813 3.04445313 22.68765625 3.03515625 24.0078125 C3.02355469 24.99523437 3.01195312 25.98265625 3 27 C-0.96 27 -4.92 27 -9 27 C-9.0807316 23.06209217 -9.14037469 19.12582931 -9.1875 15.1875 C-9.21263672 14.06794922 -9.23777344 12.94839844 -9.26367188 11.79492188 C-9.27333984 10.72177734 -9.28300781 9.64863281 -9.29296875 8.54296875 C-9.3086792 7.55321045 -9.32438965 6.56345215 -9.34057617 5.54370117 C-9 3 -9 3 -7.66918945 1.17700195 C-5.07465387 -0.65249286 -3.07930729 -0.38491341 0 0 Z M-5 3 C-5.66 4.32 -6.32 5.64 -7 7 C-6.34 7.66 -5.68 8.32 -5 9 C-2.39719432 8.67958603 -2.39719432 8.67958603 0 8 C-0.33 6.35 -0.66 4.7 -1 3 C-2.32 3 -3.64 3 -5 3 Z M-4 12 C-6.10633718 13.70828921 -6.93801608 14.52148416 -7.29296875 17.26171875 C-7.25816406 18.06222656 -7.22335938 18.86273438 -7.1875 19.6875 C-7.16042969 20.49574219 -7.13335937 21.30398437 -7.10546875 22.13671875 C-7.07066406 22.75160156 -7.03585938 23.36648437 -7 24 C-4.69 24 -2.38 24 0 24 C0 20.7 0 17.4 0 14 C-1.32 13.34 -2.64 12.68 -4 12 Z " fill="#515661" transform="translate(9,12)"/>
<path d="M0 0 C1.66918945 1.17700195 1.66918945 1.17700195 3 3 C3.34057617 5.54370117 3.34057617 5.54370117 3.29296875 8.54296875 C3.28330078 9.61611328 3.27363281 10.68925781 3.26367188 11.79492188 C3.23853516 12.91447266 3.21339844 14.03402344 3.1875 15.1875 C3.17396484 16.31865234 3.16042969 17.44980469 3.14648438 18.61523438 C3.11110305 21.41035882 3.05729579 24.20523889 3 27 C-0.96 27 -4.92 27 -9 27 C-9.02699725 24.72923158 -9.04639453 22.45837179 -9.0625 20.1875 C-9.07990234 18.29064453 -9.07990234 18.29064453 -9.09765625 16.35546875 C-9 13 -9 13 -8 10 C-8.33 9.67 -8.66 9.34 -9 9 C-9.4556962 3.75949367 -9.4556962 3.75949367 -7.875 1.125 C-5.11909116 -0.52854531 -3.14924548 -0.39365568 0 0 Z M-5 3 C-5.33 4.65 -5.66 6.3 -6 8 C-3.525 8.495 -3.525 8.495 -1 9 C-0.34 7.68 0.32 6.36 1 5 C0.34 4.34 -0.32 3.68 -1 3 C-2.32 3 -3.64 3 -5 3 Z M-4 12 C-6.24324836 13.81193006 -6.24324836 13.81193006 -6.1953125 16.3828125 C-6.17210937 17.28773437 -6.14890625 18.19265625 -6.125 19.125 C-6.10695313 20.03507812 -6.08890625 20.94515625 -6.0703125 21.8828125 C-6.04710937 22.58148438 -6.02390625 23.28015625 -6 24 C-3.69 24 -1.38 24 1 24 C1.08131463 22.56344146 1.13933559 21.1255517 1.1875 19.6875 C1.22230469 18.88699219 1.25710937 18.08648437 1.29296875 17.26171875 C1.18401389 14.92602261 1.18401389 14.92602261 -0.38671875 13.20703125 C-1.93109162 11.80031033 -1.93109162 11.80031033 -4 12 Z " fill="#535863" transform="translate(37,12)"/>
<path d="M0 0 C1.875 1.125 1.875 1.125 3 3 C3.25265405 6.09501208 3.39935013 8.20129973 2 11 C2.33 11.66 2.66 12.32 3 13 C3.07116382 15.37402501 3.08409085 17.75000677 3.0625 20.125 C3.05347656 21.40632813 3.04445313 22.68765625 3.03515625 24.0078125 C3.02355469 24.99523437 3.01195312 25.98265625 3 27 C-0.96 27 -4.92 27 -9 27 C-9.02699725 24.72923158 -9.04639453 22.45837179 -9.0625 20.1875 C-9.07990234 18.29064453 -9.07990234 18.29064453 -9.09765625 16.35546875 C-9 13 -9 13 -8 10 C-8.33 9.67 -8.66 9.34 -9 9 C-9.4556962 3.75949367 -9.4556962 3.75949367 -7.875 1.125 C-5.11909116 -0.52854531 -3.14924548 -0.39365568 0 0 Z M-5 3 C-5.33 4.65 -5.66 6.3 -6 8 C-3.525 8.495 -3.525 8.495 -1 9 C-0.67 7.35 -0.34 5.7 0 4 C-1.65 3.67 -3.3 3.34 -5 3 Z M-6 13 C-6.91692961 15.75078884 -7.10886083 17.35948913 -7.0625 20.1875 C-7.041875 21.445625 -7.02125 22.70375 -7 24 C-4.36 24 -1.72 24 1 24 C1.0309375 22.1128125 1.0309375 22.1128125 1.0625 20.1875 C1.07410156 19.47980469 1.08570313 18.77210937 1.09765625 18.04296875 C1.08263217 15.79694539 1.08263217 15.79694539 0 13 C-2.57474292 12.00332532 -3.48927292 11.74463646 -6 13 Z " fill="#5C626E" transform="translate(23,12)"/>
<path d="M0 0 C0.33 0 0.66 0 1 0 C1 3.3 1 6.6 1 10 C3.64 10 6.28 10 9 10 C9 6.7 9 3.4 9 0 C9.66 0 10.32 0 11 0 C11 4.29 11 8.58 11 13 C7.04 13 3.08 13 -1 13 C-1.09765625 3.72265625 -1.09765625 3.72265625 -1 1 C-0.67 0.67 -0.34 0.34 0 0 Z " fill="#616774" transform="translate(29,26)"/>
<path d="M0 0 C0.33 0 0.66 0 1 0 C1 3.63 1 7.26 1 11 C3.64 11 6.28 11 9 11 C9 8.03 9 5.06 9 2 C9.66 2 10.32 2 11 2 C11 5.96 11 9.92 11 14 C7.04 14 3.08 14 -1 14 C-1.02685938 11.85423363 -1.04633088 9.70837355 -1.0625 7.5625 C-1.07410156 6.36753906 -1.08570312 5.17257813 -1.09765625 3.94140625 C-1 1 -1 1 0 0 Z " fill="#616774" transform="translate(1,25)"/>
<path d="M0 0 C-0.47246642 4.25219775 -2.77272377 6.37314725 -6 9 C-9.06731977 8.91236229 -9.81352381 8.18647619 -12 6 C-12 5.01 -12 4.02 -12 3 C-9.525 3.99 -9.525 3.99 -7 5 C-6.21625 4.175 -5.4325 3.35 -4.625 2.5 C-2 -0 -2 -0 0 0 Z " fill="#595E6A" transform="translate(40,1)"/>
<path d="M0 0 C-0.47246642 4.25219775 -2.77272377 6.37314725 -6 9 C-9.06731977 8.91236229 -9.81352381 8.18647619 -12 6 C-12 5.01 -12 4.02 -12 3 C-9.525 3.99 -9.525 3.99 -7 5 C-6.21625 4.175 -5.4325 3.35 -4.625 2.5 C-2 -0 -2 -0 0 0 Z " fill="#515661" transform="translate(26,1)"/>
<path d="M0 0 C-0.47246642 4.25219775 -2.77272377 6.37314725 -6 9 C-9.06731977 8.91236229 -9.81352381 8.18647619 -12 6 C-12 5.01 -12 4.02 -12 3 C-9.525 3.99 -9.525 3.99 -7 5 C-6.21625 4.175 -5.4325 3.35 -4.625 2.5 C-2 -0 -2 -0 0 0 Z " fill="#4E535D" transform="translate(12,1)"/>
<path d="M0 0 C3 0.375 3 0.375 4.875 1.75 C6 3.375 6 3.375 6 5.375 C5.34 5.375 4.68 5.375 4 5.375 C3.67 6.365 3.34 7.355 3 8.375 C2.67 7.055 2.34 5.735 2 4.375 C0.68 4.375 -0.64 4.375 -2 4.375 C-2.66 5.695 -3.32 7.015 -4 8.375 C-4.66 6.725 -5.32 5.075 -6 3.375 C-4.09456498 0.83441997 -3.22246552 0.40280819 0 0 Z " fill="#555B66" transform="translate(20,11.625)"/>
<path d="M0 0 C2.475 0.99 2.475 0.99 5 2 C4.401875 2.226875 3.80375 2.45375 3.1875 2.6875 C0.44106051 4.33536369 -0.47172214 6.23454483 -2 9 C-2.33 9 -2.66 9 -3 9 C-3.36923077 3.46153846 -3.36923077 3.46153846 -1.5 1.125 C-1.005 0.75375 -0.51 0.3825 0 0 Z " fill="#434750" transform="translate(31,12)"/>
<path d="M0 0 C2.475 0.99 2.475 0.99 5 2 C4.38125 2.2475 3.7625 2.495 3.125 2.75 C0.64931313 4.20628639 0.04874998 5.37812506 -1 8 C-1.66 6.35 -2.32 4.7 -3 3 C-2.01 2.01 -1.02 1.02 0 0 Z " fill="#454953" transform="translate(17,12)"/>
<path d="M0 0 C1.98 0.99 1.98 0.99 4 2 C4 3.98 4 5.96 4 8 C1 6 1 6 0.3125 2.875 C0.209375 1.92625 0.10625 0.9775 0 0 Z " fill="#4A4E58" transform="translate(8,13)"/>
</svg>
