<?xml version="1.0" encoding="UTF-8"?>
<svg version="1.1" xmlns="http://www.w3.org/2000/svg" width="128" height="128">
<path d="M0 0 C42.24 0 84.48 0 128 0 C128 42.24 128 84.48 128 128 C85.76 128 43.52 128 0 128 C0 85.76 0 43.52 0 0 Z " fill="#844BFF" transform="translate(0,0)"/>
<path d="M0 0 C1.05848145 0.00757324 2.11696289 0.01514648 3.20751953 0.02294922 C10.7707782 0.1826789 17.30833034 0.94814295 24.125 4.4375 C25.45337891 5.10845703 25.45337891 5.10845703 26.80859375 5.79296875 C33.42163147 9.45814419 39.81615245 13.95121759 43.0625 21 C44.125 25.4375 44.125 25.4375 44.125 39.4375 C15.085 39.4375 -13.955 39.4375 -43.875 39.4375 C-43.875 20.57057985 -43.875 20.57057985 -36.8203125 13.328125 C-26.3171821 3.37013978 -14.30741079 -0.14332436 0 0 Z " fill="#FEFDFF" transform="translate(63.875,88.5625)"/>
<path d="M0 0 C6.42286265 3.6348033 10.30370066 9.0569208 12.625 16 C13.74900693 24.36497788 12.47285074 31.05991893 7.625 38 C3.41333163 42.81333528 -1.92594819 45.65697441 -8.2421875 46.28515625 C-16.9431101 46.53468396 -23.32007541 44.73290367 -29.796875 38.78125 C-34.8897885 33.03281298 -36.11370944 26.5245778 -35.81640625 18.99609375 C-34.7953088 12.06528187 -31.88884645 6.82335687 -26.375 2.5 C-18.34214255 -3.07117533 -8.99226784 -4.04039871 0 0 Z " fill="#FDFDFF" transform="translate(75.375,37)"/>
</svg>
