<?xml version="1.0" encoding="UTF-8"?>
<svg version="1.1" xmlns="http://www.w3.org/2000/svg" width="40" height="40">
<path d="M0 0 C4.1687475 0.77558093 5.29125819 3.07679741 7.6875 6.5 C7.6875 7.16 7.6875 7.82 7.6875 8.5 C8.3475 8.5 9.0075 8.5 9.6875 8.5 C13.6875 15.125 13.6875 15.125 13.6875 18.5 C15.33083504 19.53789581 16.99993867 20.53567924 18.6875 21.5 C21.37083228 25.52499843 21.48389219 28.77142136 20.6875 33.5 C18.06532322 37.31407532 16.50519655 38.30597031 12 39.375 C8.6875 39.5 8.6875 39.5 6.6875 38.5 C6.6875 39.16 6.6875 39.82 6.6875 40.5 C4.41692623 40.55398987 2.14598712 40.59278742 -0.125 40.625 C-2.02185547 40.65980469 -2.02185547 40.65980469 -3.95703125 40.6953125 C-7.3125 40.5 -7.3125 40.5 -10.3125 38.5 C-10.3125 37.84 -10.3125 37.18 -10.3125 36.5 C-11.3025 36.17 -12.2925 35.84 -13.3125 35.5 C-16.51525766 29.39440847 -16.13491772 22.42986312 -14.3125 15.9375 C-5.76500141 1.24648679 -5.76500141 1.24648679 0 0 Z M-0.3125 4.5 C-0.9725 5.82 -1.6325 7.14 -2.3125 8.5 C-2.9725 8.5 -3.6325 8.5 -4.3125 8.5 C-8.66090571 13.60465018 -11.45577982 18.86041857 -12.3125 25.5 C-11.69882869 29.5911421 -10.91848433 31.7838367 -8.25 34.9375 C-4.21691215 37.08275949 -0.78731112 36.85096558 3.6875 36.5 C3.52894531 35.9225 3.37039062 35.345 3.20703125 34.75 C2.41031886 31.29957643 2.15986321 28.01275999 2.6875 24.5 C4.94549972 21.43557181 7.32256052 20.12591613 10.6875 18.5 C9.04560616 16.1638026 7.3992475 13.83099647 5.75 11.5 C5.04713867 10.49839844 5.04713867 10.49839844 4.33007812 9.4765625 C3.14087627 7.79970233 1.91690446 6.14761213 0.6875 4.5 C0.3575 4.5 0.0275 4.5 -0.3125 4.5 Z M10.6875 22.5 C10.0275 23.16 9.3675 23.82 8.6875 24.5 C10.3375 24.5 11.9875 24.5 13.6875 24.5 C12.6975 23.84 11.7075 23.18 10.6875 22.5 Z M6.6875 24.5 C6.3575 25.82 6.0275 27.14 5.6875 28.5 C6.6775 28.17 7.6675 27.84 8.6875 27.5 C8.6875 26.51 8.6875 25.52 8.6875 24.5 C8.0275 24.5 7.3675 24.5 6.6875 24.5 Z M13.6875 24.5 C13.6875 25.49 13.6875 26.48 13.6875 27.5 C14.6775 27.17 15.6675 26.84 16.6875 26.5 C16.3575 25.84 16.0275 25.18 15.6875 24.5 C15.0275 24.5 14.3675 24.5 13.6875 24.5 Z M4.6875 28.5 C5.6875 30.5 5.6875 30.5 5.6875 30.5 Z M5.6875 30.5 C6.3475 31.82 7.0075 33.14 7.6875 34.5 C8.3475 34.17 9.0075 33.84 9.6875 33.5 C8.70899805 32.47895449 7.70769573 31.4793879 6.6875 30.5 C6.3575 30.5 6.0275 30.5 5.6875 30.5 Z M13.6875 31.5 C14.0175 32.49 14.3475 33.48 14.6875 34.5 C15.0175 33.51 15.3475 32.52 15.6875 31.5 C15.0275 31.5 14.3675 31.5 13.6875 31.5 Z " fill="#000000" transform="translate(17.3125,-0.49999999999999994)"/>
</svg>
