<?xml version="1.0" encoding="UTF-8"?>
<svg version="1.1" xmlns="http://www.w3.org/2000/svg" width="40" height="40">
<path d="M0 0 C0.82290527 0.00202423 1.64581055 0.00404846 2.49365234 0.00613403 C3.33331543 0.00517731 4.17297852 0.00422058 5.03808594 0.00323486 C6.81689529 0.00255306 8.59570712 0.00440737 10.37451172 0.00857544 C13.10699011 0.01392371 15.83930411 0.00863048 18.57177734 0.00222778 C20.29573604 0.00288856 22.01969464 0.00416973 23.74365234 0.00613403 C24.56655762 0.0041098 25.38946289 0.00208557 26.23730469 0 C32.0037018 0.02399599 32.0037018 0.02399599 33.11865234 1.13894653 C33.20550837 2.70067398 33.22567454 4.26623998 33.21630859 5.83035278 C33.21308594 6.77459106 33.20986328 7.71882935 33.20654297 8.69168091 C33.19397461 10.18151489 33.19397461 10.18151489 33.18115234 11.70144653 C33.17664062 12.69853638 33.17212891 13.69562622 33.16748047 14.72293091 C33.15565241 17.19499502 33.13917084 19.66694171 33.11865234 22.13894653 C30.47406855 23.46123843 28.44103933 23.23571847 25.49365234 23.20144653 C24.49076172 23.1924231 23.48787109 23.18339966 22.45458984 23.17410278 C21.68373047 23.16250122 20.91287109 23.15089966 20.11865234 23.13894653 C20.11865234 22.14894653 20.11865234 21.15894653 20.11865234 20.13894653 C23.74865234 20.13894653 27.37865234 20.13894653 31.11865234 20.13894653 C30.78865234 14.52894653 30.45865234 8.91894653 30.11865234 3.13894653 C18.56865234 2.80894653 7.01865234 2.47894653 -4.88134766 2.13894653 C-4.88134766 8.07894653 -4.88134766 14.01894653 -4.88134766 20.13894653 C-1.25134766 20.13894653 2.37865234 20.13894653 6.11865234 20.13894653 C6.11865234 21.12894653 6.11865234 22.11894653 6.11865234 23.13894653 C4.13955837 23.16581206 2.16036263 23.18528029 0.18115234 23.20144653 C-0.92099609 23.2130481 -2.02314453 23.22464966 -3.15869141 23.23660278 C-5.88134766 23.13894653 -5.88134766 23.13894653 -6.88134766 22.13894653 C-6.98034289 20.58939094 -7.0121429 19.03540981 -7.01416016 17.48269653 C-7.01544922 16.54296997 -7.01673828 15.60324341 -7.01806641 14.63504028 C-7.01419922 13.64632935 -7.01033203 12.65761841 -7.00634766 11.63894653 C-7.01021484 10.6502356 -7.01408203 9.66152466 -7.01806641 8.64285278 C-7.01677734 7.70312622 -7.01548828 6.76339966 -7.01416016 5.79519653 C-7.01303223 4.92701294 -7.0119043 4.05882935 -7.01074219 3.16433716 C-6.73440736 -1.1610849 -3.61786462 0.0150552 0 0 Z " fill="#4C515C" transform="translate(6.88134765625,7.861053466796875)"/>
<path d="M0 0 C12.54 0 25.08 0 38 0 C38 6.93 38 13.86 38 21 C35.35541621 22.32229189 33.32238699 22.09677194 30.375 22.0625 C29.37210938 22.05347656 28.36921875 22.04445313 27.3359375 22.03515625 C26.56507812 22.02355469 25.79421875 22.01195313 25 22 C25 21.01 25 20.02 25 19 C28.63 19 32.26 19 36 19 C35.67 13.39 35.34 7.78 35 2 C23.45 1.67 11.9 1.34 0 1 C0 0.67 0 0.34 0 0 Z " fill="#5E6471" transform="translate(2,9)"/>
<path d="M0 0 C1.98 0 3.96 0 6 0 C7.75747614 4.50353262 8.19294408 8.17639811 8 13 C7.34 13 6.68 13 6 13 C6 11.35 6 9.7 6 8 C4.02 8 2.04 8 0 8 C0 9.65 0 11.3 0 13 C-0.66 13 -1.32 13 -2 13 C-2.19294408 8.17639811 -1.75747614 4.50353262 0 0 Z M2 2 C1.67 2.99 1.34 3.98 1 5 C2.32 4.67 3.64 4.34 5 4 C4.67 3.34 4.34 2.68 4 2 C3.34 2 2.68 2 2 2 Z " fill="#515661" transform="translate(17,19)"/>
<path d="M0 0 C3.96 0 7.92 0 12 0 C12 0.66 12 1.32 12 2 C8.04 2 4.08 2 0 2 C0 1.34 0 0.68 0 0 Z " fill="#4C515C" transform="translate(5,12)"/>
<path d="M0 0 C2.31 0 4.62 0 7 0 C7 0.99 7 1.98 7 3 C4.36 3 1.72 3 -1 3 C-0.67 2.01 -0.34 1.02 0 0 Z " fill="#41464F" transform="translate(6,21)"/>
<path d="M0 0 C3.63 0 7.26 0 11 0 C11.33 0.66 11.66 1.32 12 2 C8.04 2 4.08 2 0 2 C0 1.34 0 0.68 0 0 Z " fill="#4D535D" transform="translate(23,12)"/>
<path d="M0 0 C2.31 0 4.62 0 7 0 C7 0.99 7 1.98 7 3 C4.69 3 2.38 3 0 3 C0 2.01 0 1.02 0 0 Z " fill="#444952" transform="translate(27,21)"/>
<path d="M0 0 C3.3 0 6.6 0 10 0 C10 0.66 10 1.32 10 2 C6.7 2 3.4 2 0 2 C0 1.34 0 0.68 0 0 Z " fill="#5D6370" transform="translate(25,17)"/>
<path d="M0 0 C3.3 0 6.6 0 10 0 C10 0.66 10 1.32 10 2 C6.7 2 3.4 2 0 2 C0 1.34 0 0.68 0 0 Z " fill="#5D6370" transform="translate(5,17)"/>
</svg>
