<?xml version="1.0" encoding="UTF-8"?>
<svg version="1.1" xmlns="http://www.w3.org/2000/svg" width="40" height="40">
<path d="M0 0 C3.02777715 -0.47855444 5.14937825 -0.60488658 7.71386719 1.21875 C9.50993527 2.91975017 11.2012573 4.67857412 12.875 6.5 C13.46796875 7.12003906 14.0609375 7.74007813 14.671875 8.37890625 C16.12855211 9.90606773 17.56620705 11.45133343 19 13 C23.63335297 11.19451504 26.54366382 7.44430641 29.7578125 3.8125 C32.32010709 1.09186136 33.57042527 0.04305761 37.3515625 -0.3359375 C38.66253906 -0.16964844 38.66253906 -0.16964844 40 0 C40.47855444 3.02777715 40.60488658 5.14937825 38.78125 7.71386719 C37.08024983 9.50993527 35.32142588 11.2012573 33.5 12.875 C32.87996094 13.46796875 32.25992188 14.0609375 31.62109375 14.671875 C30.09393227 16.12855211 28.54866657 17.56620705 27 19 C28.80548496 23.63335297 32.55569359 26.54366382 36.1875 29.7578125 C38.90813864 32.32010709 39.95694239 33.57042527 40.3359375 37.3515625 C40.22507813 38.22554687 40.11421875 39.09953125 40 40 C36.97222285 40.47855444 34.85062175 40.60488658 32.28613281 38.78125 C30.49006473 37.08024983 28.7987427 35.32142588 27.125 33.5 C26.53203125 32.87996094 25.9390625 32.25992188 25.328125 31.62109375 C23.87144789 30.09393227 22.43379295 28.54866657 21 27 C16.36664703 28.80548496 13.45633618 32.55569359 10.2421875 36.1875 C7.67989291 38.90813864 6.42957473 39.95694239 2.6484375 40.3359375 C1.77445312 40.22507813 0.90046875 40.11421875 0 40 C-0.47855444 36.97222285 -0.60488658 34.85062175 1.21875 32.28613281 C2.91975017 30.49006473 4.67857412 28.7987427 6.5 27.125 C7.12003906 26.53203125 7.74007813 25.9390625 8.37890625 25.328125 C9.90606773 23.87144789 11.45133343 22.43379295 13 21 C11.19451504 16.36664703 7.44430641 13.45633618 3.8125 10.2421875 C1.09186136 7.67989291 0.04305761 6.42957473 -0.3359375 2.6484375 C-0.22507812 1.77445312 -0.11421875 0.90046875 0 0 Z " fill="#6B727F" transform="translate(0,0)"/>
</svg>
