<?xml version="1.0" encoding="UTF-8"?>
<svg version="1.1" xmlns="http://www.w3.org/2000/svg" width="40" height="40">
<path d="M0 0 C2.475 0.495 2.475 0.495 5 1 C5 6.28 5 11.56 5 17 C10.28 17 15.56 17 21 17 C21.495 19.475 21.495 19.475 22 22 C21 23 21 23 17.40234375 23.09765625 C15.91402745 23.09191272 14.42573704 23.07889891 12.9375 23.0625 C10.318125 23.041875 7.69875 23.02125 5 23 C5 28.28 5 33.56 5 39 C2.525 39.495 2.525 39.495 0 40 C-1 39 -1 39 -1.09765625 35.40234375 C-1.09191272 33.91402745 -1.07889891 32.42573704 -1.0625 30.9375 C-1.041875 28.318125 -1.02125 25.69875 -1 23 C-6.28 23 -11.56 23 -17 23 C-17.33 21.35 -17.66 19.7 -18 18 C-17 17 -17 17 -13.40234375 16.90234375 C-11.91403133 16.9090178 -10.42573568 16.92097817 -8.9375 16.9375 C-8.17888672 16.94201172 -7.42027344 16.94652344 -6.63867188 16.95117188 C-4.75908129 16.9629932 -2.87953101 16.98092922 -1 17 C-1.01160156 15.85660156 -1.02320312 14.71320312 -1.03515625 13.53515625 C-1.04453288 12.04427246 -1.05363321 10.55338691 -1.0625 9.0625 C-1.07087891 8.30775391 -1.07925781 7.55300781 -1.08789062 6.77539062 C-1.09652441 4.85005687 -1.05224333 2.92464419 -1 1 C-0.67 0.67 -0.34 0.34 0 0 Z " fill="#000000" transform="translate(18,0)"/>
</svg>
