<?xml version="1.0" encoding="UTF-8"?>
<svg version="1.1" xmlns="http://www.w3.org/2000/svg" width="40" height="40">
<path d="M0 0 C1.32 0 2.64 0 4 0 C4 0.99 4 1.98 4 3 C8.95 3 13.9 3 19 3 C19 2.01 19 1.02 19 0 C20.32 0 21.64 0 23 0 C23 0.99 23 1.98 23 3 C24.134375 3.28875 25.26875 3.5775 26.4375 3.875 C27.613125 4.24625 28.78875 4.6175 30 5 C32.14694991 9.29389983 31.18585465 15.03328579 31.18530273 19.8034668 C31.18748798 21.92582281 31.2056452 24.04765795 31.22460938 26.16992188 C31.22754367 27.51822739 31.22952823 28.86653537 31.23046875 30.21484375 C31.23457764 31.44323975 31.23868652 32.67163574 31.24291992 33.93725586 C31 37 31 37 29 40 C26.41058797 40.30454657 24.06398922 40.42017357 21.47265625 40.3984375 C20.72793564 40.40130768 19.98321503 40.40417786 19.21592712 40.40713501 C17.6397933 40.40917772 16.06363425 40.40363336 14.48754883 40.39111328 C12.07510565 40.37508376 9.66434349 40.39094187 7.25195312 40.41015625 C5.72135047 40.40817341 4.19074885 40.40432889 2.66015625 40.3984375 C1.93820572 40.40451019 1.21625519 40.41058289 0.47242737 40.4168396 C-2.3154394 40.37772611 -4.49726243 40.28381461 -6.95385742 38.89697266 C-8.5460306 36.0098815 -8.38935919 33.52856706 -8.3984375 30.25 C-8.40130768 29.59547852 -8.40417786 28.94095703 -8.40713501 28.26660156 C-8.40917368 26.88475681 -8.40365746 25.50288307 -8.39111328 24.12109375 C-8.37505436 22.0071555 -8.39096601 19.89512887 -8.41015625 17.78125 C-8.40817378 16.43749578 -8.40433002 15.09374276 -8.3984375 13.75 C-8.39505371 12.52796875 -8.39166992 11.3059375 -8.38818359 10.046875 C-8 7 -8 7 -6.60791016 5.109375 C-5 4 -5 4 -2.875 3.5 C-2.25625 3.335 -1.6375 3.17 -1 3 C-0.67 2.01 -0.34 1.02 0 0 Z M-4 16 C-4 22.27 -4 28.54 -4 35 C-3.01 35.33 -2.02 35.66 -1 36 C-1 34.02 -1 32.04 -1 30 C0.65 30 2.3 30 4 30 C4 31.98 4 33.96 4 36 C4.33 36 4.66 36 5 36 C5.33 34.35 5.66 32.7 6 31 C7.65 30.67 9.3 30.34 11 30 C11 31.98 11 33.96 11 36 C11.33 36 11.66 36 12 36 C12.33 34.35 12.66 32.7 13 31 C14.65 31 16.3 31 18 31 C18.33 32.65 18.66 34.3 19 36 C21.64 36 24.28 36 27 36 C27.90238747 33.29283758 28.11851302 31.76223232 28.09765625 28.98828125 C28.09443359 28.23095703 28.09121094 27.47363281 28.08789062 26.69335938 C28.07951172 25.90767578 28.07113281 25.12199219 28.0625 24.3125 C28.05798828 23.51521484 28.05347656 22.71792969 28.04882812 21.89648438 C28.0370585 19.93095743 28.01912348 17.96546915 28 16 C27.01 16 26.02 16 25 16 C25 18.31 25 20.62 25 23 C23.948125 22.835 22.89625 22.67 21.8125 22.5 C18.79531204 22.10430322 16.02906028 21.90821029 13 22 C13 20.02 13 18.04 13 16 C12.34 16 11.68 16 11 16 C11 18.31 11 20.62 11 23 C9.35 22.67 7.7 22.34 6 22 C6 20.02 6 18.04 6 16 C5.34 16 4.68 16 4 16 C4 18.31 4 20.62 4 23 C2.35 23 0.7 23 -1 23 C-1 20.69 -1 18.38 -1 16 C-1.99 16 -2.98 16 -4 16 Z " fill="#000000" transform="translate(8,0)"/>
<path d="M0 0 C4.29 0 8.58 0 13 0 C13 1.65 13 3.3 13 5 C8.71 5 4.42 5 0 5 C0 3.35 0 1.7 0 0 Z " fill="#000000" transform="translate(20,24)"/>
<path d="M0 0 C1.98 0 3.96 0 6 0 C6 1.65 6 3.3 6 5 C4.02 5 2.04 5 0 5 C0 3.35 0 1.7 0 0 Z " fill="#000000" transform="translate(13,24)"/>
<path d="M0 0 C1.65 0 3.3 0 5 0 C5 1.65 5 3.3 5 5 C3.35 5 1.7 5 0 5 C0 3.35 0 1.7 0 0 Z " fill="#000000" transform="translate(7,24)"/>
</svg>
