<?xml version="1.0" encoding="UTF-8"?>
<svg version="1.1" xmlns="http://www.w3.org/2000/svg" width="40" height="40">
<path d="M0 0 C13.2 0 26.4 0 40 0 C40 13.2 40 26.4 40 40 C26.8 40 13.6 40 0 40 C0 26.8 0 13.6 0 0 Z " fill="#D1D0FF" transform="translate(0,0)"/>
<path d="M0 0 C0.99 0 1.98 0 3 0 C3.01981934 0.62567871 3.03963867 1.25135742 3.06005859 1.89599609 C3.15514226 4.72276519 3.26488746 7.54877815 3.375 10.375 C3.4059375 11.35984375 3.436875 12.3446875 3.46875 13.359375 C3.50742188 14.30039062 3.54609375 15.24140625 3.5859375 16.2109375 C3.6173584 17.08024902 3.6487793 17.94956055 3.68115234 18.84521484 C3.81229433 21.20961794 3.81229433 21.20961794 6 23 C9.3135576 23.44804715 12.65959863 23.32409862 16 23.3125 C17.3921875 23.33666992 17.3921875 23.33666992 18.8125 23.36132812 C19.699375 23.36197266 20.58625 23.36261719 21.5 23.36328125 C22.72203125 23.36775269 22.72203125 23.36775269 23.96875 23.37231445 C24.97421875 23.1880188 24.97421875 23.1880188 26 23 C28.08745045 19.86882433 28.27653996 18.93053776 28.4140625 15.33203125 C28.45273437 14.43935547 28.49140625 13.54667969 28.53125 12.62695312 C28.57765625 11.23379883 28.57765625 11.23379883 28.625 9.8125 C28.66367187 8.87212891 28.70234375 7.93175781 28.7421875 6.96289062 C28.83643187 4.6421229 28.92204025 2.32136252 29 0 C29.99 0.33 30.98 0.66 32 1 C32.10845027 4.04263267 32.18752063 7.08136204 32.25 10.125 C32.30027344 11.40890625 32.30027344 11.40890625 32.3515625 12.71875 C32.43753916 18.30723266 31.87187516 21.64065854 28 26 C23.72237141 27.4258762 19.60769095 27.34504051 15.125 27.4375 C14.22652344 27.48326172 13.32804687 27.52902344 12.40234375 27.57617188 C7.78866978 27.654543 5.65913882 27.49704195 1.88671875 24.65234375 C-1.07693619 20.23887613 -0.53744854 15.23306229 -0.3125 10.125 C-0.28994141 9.15046875 -0.26738281 8.1759375 -0.24414062 7.171875 C-0.18550753 4.77964485 -0.10351153 2.3906385 0 0 Z " fill="#FAFAFF" transform="translate(4,13)"/>
<path d="M0 0 C0.86625 -0.01675781 1.7325 -0.03351562 2.625 -0.05078125 C5 0.3125 5 0.3125 6.8125 1.58203125 C8 3.3125 8 3.3125 8 7.3125 C11.3 7.3125 14.6 7.3125 18 7.3125 C18 8.3025 18 9.2925 18 10.3125 C6.12 10.3125 -5.76 10.3125 -18 10.3125 C-18 9.3225 -18 8.3325 -18 7.3125 C-15.03 7.3125 -12.06 7.3125 -9 7.3125 C-8.896875 6.52875 -8.79375 5.745 -8.6875 4.9375 C-7.44839714 0.20637998 -4.3345393 0.01935062 0 0 Z " fill="#FCFCFF" transform="translate(20,-0.3125)"/>
<path d="M0 0 C0.99 0 1.98 0 3 0 C3 4.95 3 9.9 3 15 C2.01 15 1.02 15 0 15 C0 10.05 0 5.1 0 0 Z " fill="#FCFCFF" transform="translate(14,16)"/>
<path d="M0 0 C2.97 0 5.94 0 9 0 C9.33 1.32 9.66 2.64 10 4 C6.37 4 2.74 4 -1 4 C-0.67 2.68 -0.34 1.36 0 0 Z " fill="#D0CFFF" transform="translate(15,3)"/>
</svg>
