<?xml version="1.0" encoding="UTF-8"?>
<svg version="1.1" xmlns="http://www.w3.org/2000/svg" width="40" height="40">
<path d="M0 0 C3.125 1.5703125 3.125 1.5703125 6 4 C6.69921875 7.35546875 6.69921875 7.35546875 6.6875 11.1875 C6.78642535 16.61070561 7.39368042 21.12351671 9.3671875 26.19140625 C10.17742593 28.50708768 10.235161 30.57000305 10 33 C9.0409375 33.1546875 9.0409375 33.1546875 8.0625 33.3125 C7.381875 33.539375 6.70125 33.76625 6 34 C5.67 34.99 5.34 35.98 5 37 C-2.31805865 38.29512034 -9.5928819 39.37727768 -17 40 C-17.33 39.34 -17.66 38.68 -18 38 C-18.66902344 37.76410156 -19.33804687 37.52820312 -20.02734375 37.28515625 C-20.67832031 36.86105469 -21.32929688 36.43695313 -22 36 C-22.50390625 33.05859375 -22.50390625 33.05859375 -22.5625 29.4375 C-22.78100595 24.10049229 -23.45857144 19.86699894 -25.3671875 14.91015625 C-26.25048286 12.24391285 -26.2136897 9.77796608 -26 7 C-25.360625 6.896875 -24.72125 6.79375 -24.0625 6.6875 C-23.381875 6.460625 -22.70125 6.23375 -22 6 C-21.67 5.01 -21.34 4.02 -21 3 C-20.09636719 2.86722656 -19.19273438 2.73445312 -18.26171875 2.59765625 C-17.08222656 2.42105469 -15.90273437 2.24445313 -14.6875 2.0625 C-12.92986328 1.80146484 -12.92986328 1.80146484 -11.13671875 1.53515625 C-1.27185544 -0.14789017 -1.27185544 -0.14789017 0 0 Z M-20 6 C-20.08775605 8.14558827 -20.10695219 10.29404421 -20.09765625 12.44140625 C-20.09443359 13.74658203 -20.09121094 15.05175781 -20.08789062 16.39648438 C-20.07953401 17.7851569 -20.07106905 19.17382877 -20.0625 20.5625 C-20.05748666 21.95507656 -20.05292347 23.34765481 -20.04882812 24.74023438 C-20.03699434 28.1601987 -20.0205088 31.58007844 -20 35 C-16.18751574 35.02887236 -12.3750593 35.04675492 -8.5625 35.0625 C-7.47388672 35.07087891 -6.38527344 35.07925781 -5.26367188 35.08789062 C-3.71196289 35.09272461 -3.71196289 35.09272461 -2.12890625 35.09765625 C-1.17056885 35.10289307 -0.21223145 35.10812988 0.77514648 35.11352539 C2.97285339 35.2505313 2.97285339 35.2505313 4 34 C4.09993532 31.9394469 4.13080906 29.8754741 4.1328125 27.8125 C4.13410156 26.55695312 4.13539062 25.30140625 4.13671875 24.0078125 C4.13462402 23.35071289 4.1325293 22.69361328 4.13037109 22.01660156 C4.12502234 20.00838665 4.13031691 18.00039541 4.13671875 15.9921875 C4.13542969 14.73664062 4.13414063 13.48109375 4.1328125 12.1875 C4.13168457 11.02605469 4.13055664 9.86460938 4.12939453 8.66796875 C4.30337474 6.07936716 4.30337474 6.07936716 3 5 C1.37742456 4.9008343 -0.24939831 4.86920223 -1.875 4.8671875 C-2.85984375 4.86589844 -3.8446875 4.86460937 -4.859375 4.86328125 C-6.41398437 4.86908203 -6.41398437 4.86908203 -8 4.875 C-9.03640625 4.87113281 -10.0728125 4.86726562 -11.140625 4.86328125 C-12.12546875 4.86457031 -13.1103125 4.86585938 -14.125 4.8671875 C-15.03507813 4.86831543 -15.94515625 4.86944336 -16.8828125 4.87060547 C-18.9852848 4.76439991 -18.9852848 4.76439991 -20 6 Z M-24 9 C-23.67 10.65 -23.34 12.3 -23 14 C-22.67 14 -22.34 14 -22 14 C-22 12.35 -22 10.7 -22 9 C-22.66 9 -23.32 9 -24 9 Z M6 27 C6 28.65 6 30.3 6 32 C6.66 31.34 7.32 30.68 8 30 C7.34 29.01 6.68 28.02 6 27 Z " fill="#5D636F" transform="translate(28,0)"/>
<path d="M0 0 C6.6 0 13.2 0 20 0 C20 2.97 20 5.94 20 9 C13.4 9 6.8 9 0 9 C0 6.03 0 3.06 0 0 Z " fill="#3C4049" transform="translate(10,13)"/>
<path d="M0 0 C0.33 10.23 0.66 20.46 1 31 C0.01 31 -0.98 31 -2 31 C-2.03738281 30.09378906 -2.07476562 29.18757813 -2.11328125 28.25390625 C-2.46557368 21.7261348 -3.0150251 16.01892753 -5.3671875 9.91015625 C-6.25048286 7.24391285 -6.2136897 4.77796608 -6 2 C-1.125 0 -1.125 0 0 0 Z M-4 4 C-3.67 5.65 -3.34 7.3 -3 9 C-2.67 9 -2.34 9 -2 9 C-2 7.35 -2 5.7 -2 4 C-2.66 4 -3.32 4 -4 4 Z " fill="#646B78" transform="translate(8,5)"/>
<path d="M0 0 C-0.33 0.99 -0.66 1.98 -1 3 C-4.9940478 3.70685038 -8.99400027 4.36450063 -13 5 C-14.44439453 5.24556641 -14.44439453 5.24556641 -15.91796875 5.49609375 C-16.79066406 5.62113281 -17.66335937 5.74617188 -18.5625 5.875 C-19.34753906 5.99617188 -20.13257813 6.11734375 -20.94140625 6.2421875 C-23 6 -23 6 -24.77734375 4.0078125 C-25.18082031 3.34523437 -25.58429687 2.68265625 -26 2 C-24.36481506 0.36481506 -22.45078083 0.7757322 -20.1953125 0.68359375 C-19.21949219 0.64169922 -18.24367188 0.59980469 -17.23828125 0.55664062 C-16.21089844 0.51732422 -15.18351562 0.47800781 -14.125 0.4375 C-13.10535156 0.39431641 -12.08570313 0.35113281 -11.03515625 0.30664062 C-3.64657738 0 -3.64657738 0 0 0 Z " fill="#515661" transform="translate(34,34)"/>
<path d="M0 0 C6.27 0 12.54 0 19 0 C19 1.32 19 2.64 19 4 C12.73 4 6.46 4 0 4 C0 2.68 0 1.36 0 0 Z " fill="#4F545F" transform="translate(10,17)"/>
<path d="M0 0 C0.99 0 1.98 0 3 0 C1.79618552 2.49361571 0.54571278 4.68143083 -1 7 C-0.01 8.485 -0.01 8.485 1 10 C0 11 0 11 -3.5625 11.0625 C-4.696875 11.041875 -5.83125 11.02125 -7 11 C-7 10.01 -7 9.02 -7 8 C-6.34 7.67 -5.68 7.34 -5 7 C-5.66 5.68 -6.32 4.36 -7 3 C-6.21625 3.061875 -5.4325 3.12375 -4.625 3.1875 C-3.75875 3.125625 -2.8925 3.06375 -2 3 C-1.34 2.01 -0.68 1.02 0 0 Z " fill="#4C515B" transform="translate(22,23)"/>
<path d="M0 0 C6.6 0 13.2 0 20 0 C20 0.66 20 1.32 20 2 C13.4 2 6.8 2 0 2 C0 1.34 0 0.68 0 0 Z " fill="#4D535D" transform="translate(10,10)"/>
<path d="M0 0 C6.6 0 13.2 0 20 0 C20 0.66 20 1.32 20 2 C13.4 2 6.8 2 0 2 C0 1.34 0 0.68 0 0 Z " fill="#4D535D" transform="translate(10,7)"/>
<path d="M0 0 C1.98 0.99 1.98 0.99 4 2 C4.83886169 4.67790463 4.81766414 7.1737941 5 10 C4.01 10.33 3.02 10.66 2 11 C2 9.68 2 8.36 2 7 C1.34 7.99 0.68 8.98 0 10 C0 6.7 0 3.4 0 0 Z " fill="#474C56" transform="translate(33,23)"/>
<path d="M0 0 C-0.33 0.66 -0.66 1.32 -1 2 C-3.31 2 -5.62 2 -8 2 C-8 1.01 -8 0.02 -8 -1 C-4.59745511 -2.2151946 -3.06748874 -1.86240388 0 0 Z " fill="#41464F" transform="translate(23,32)"/>
<path d="M0 0 C0.66 0.33 1.32 0.66 2 1 C2 1.66 2 2.32 2 3 C1.34 3 0.68 3 0 3 C0.33 4.32 0.66 5.64 1 7 C0.01 7 -0.98 7 -2 7 C-2 5.02 -2 3.04 -2 1 C-1.34 0.67 -0.68 0.34 0 0 Z " fill="#4E535E" transform="translate(4,6)"/>
</svg>
