<?xml version="1.0" encoding="UTF-8"?>
<svg version="1.1" xmlns="http://www.w3.org/2000/svg" width="40" height="40">
<path d="M0 0 C0.495 1.485 0.495 1.485 1 3 C1.99 3 2.98 3 4 3 C4 4.32 4 5.64 4 7 C3.01 7 2.02 7 1 7 C0.67 7.99 0.34 8.98 0 10 C-2.8125 10.625 -2.8125 10.625 -6 11 C-6.99 10.34 -7.98 9.68 -9 9 C-9 8.34 -9 7.68 -9 7 C-17.91 7 -26.82 7 -36 7 C-36 5.68 -36 4.36 -36 3 C-27.09 3 -18.18 3 -9 3 C-8.67 2.01 -8.34 1.02 -8 0 C-5.13822943 -1.43088528 -3.06624227 -0.59991697 0 0 Z M-5 3 C-5 4.32 -5 5.64 -5 7 C-4.01 6.67 -3.02 6.34 -2 6 C-2.33 5.01 -2.66 4.02 -3 3 C-3.66 3 -4.32 3 -5 3 Z " fill="#000000" transform="translate(36,15)"/>
<path d="M0 0 C3.375 -0.1875 3.375 -0.1875 7 0 C7.66 0.99 8.32 1.98 9 3 C11.61196291 3.51012565 11.61196291 3.51012565 14.6640625 3.51171875 C15.78554688 3.54716797 16.90703125 3.58261719 18.0625 3.61914062 C19.8259375 3.65297852 19.8259375 3.65297852 21.625 3.6875 C22.80835937 3.72166016 23.99171875 3.75582031 25.2109375 3.79101562 C28.1405306 3.87370575 31.0698164 3.94278714 34 4 C34 4.99 34 5.98 34 7 C33.25838623 7.01458252 32.51677246 7.02916504 31.75268555 7.04418945 C28.39709369 7.11859457 25.04250506 7.21528006 21.6875 7.3125 C20.52025391 7.33505859 19.35300781 7.35761719 18.15039062 7.38085938 C17.03212891 7.41630859 15.91386719 7.45175781 14.76171875 7.48828125 C13.2142395 7.52755737 13.2142395 7.52755737 11.63549805 7.56762695 C8.62113959 8.06215487 7.9853287 8.80618464 6 11 C2.8125 11.1875 2.8125 11.1875 0 11 C-0.66 9.68 -1.32 8.36 -2 7 C-3.32 7 -4.64 7 -6 7 C-6 6.01 -6 5.02 -6 4 C-4.68 4 -3.36 4 -2 4 C-1.34 2.68 -0.68 1.36 0 0 Z M2 3 C2 4.32 2 5.64 2 7 C2.99 7 3.98 7 5 7 C4.67 5.68 4.34 4.36 4 3 C3.34 3 2.68 3 2 3 Z " fill="#000000" transform="translate(6,4)"/>
<path d="M0 0 C1.98 0 3.96 0 6 0 C6.66 1.32 7.32 2.64 8 4 C14.27 4 20.54 4 27 4 C27 4.99 27 5.98 27 7 C25.73542969 7.03738281 24.47085938 7.07476562 23.16796875 7.11328125 C21.5077827 7.17893833 19.84762778 7.24538576 18.1875 7.3125 C17.35412109 7.33505859 16.52074219 7.35761719 15.66210938 7.38085938 C14.85966797 7.41630859 14.05722656 7.45175781 13.23046875 7.48828125 C12.49207764 7.51446533 11.75368652 7.54064941 10.99291992 7.56762695 C8.51077817 8.1061389 7.72260532 9.19464816 6 11 C3 11.375 3 11.375 0 11 C-0.67482422 10.26716797 -0.67482422 10.26716797 -1.36328125 9.51953125 C-3.58348288 7.45829394 -5.2035047 7.50626593 -8.1875 7.3125 C-9.08855469 7.24675781 -9.98960938 7.18101563 -10.91796875 7.11328125 C-11.60503906 7.07589844 -12.29210938 7.03851563 -13 7 C-13 6.01 -13 5.02 -13 4 C-9.37 4 -5.74 4 -2 4 C-1.34 2.68 -0.68 1.36 0 0 Z M1 4 C1.33 5.32 1.66 6.64 2 8 C2.99 7.67 3.98 7.34 5 7 C5 6.01 5 5.02 5 4 C3.68 4 2.36 4 1 4 Z " fill="#000000" transform="translate(13,25)"/>
</svg>
