<?xml version="1.0" encoding="UTF-8"?>
<svg version="1.1" xmlns="http://www.w3.org/2000/svg" width="40" height="40">
<path d="M0 0 C0 0.66 0 1.32 0 2 C-1.98 2.99 -1.98 2.99 -4 4 C-2.25181409 4.22304441 -0.50129677 4.4278645 1.25 4.625 C2.71179688 4.79902344 2.71179688 4.79902344 4.203125 4.9765625 C7.13429393 5.00112537 8.54528964 4.5312717 11 3 C8.525 2.505 8.525 2.505 6 2 C6 1.34 6 0.68 6 0 C11.625 -0.25 11.625 -0.25 15 2 C15.3984375 5.1875 15.3984375 5.1875 15.375 9 C15.38273437 10.258125 15.39046875 11.51625 15.3984375 12.8125 C15.26695313 13.864375 15.13546875 14.91625 15 16 C11.26332113 18.49111925 8.32129024 18.29613477 4 18.25 C2.91332031 18.26160156 2.91332031 18.26160156 1.8046875 18.2734375 C-1.99388493 18.25942063 -3.76837084 18.15441944 -7 16 C-7.22137393 13.37302936 -7.28162025 10.99106036 -7.1875 8.375 C-7.17396484 7.66859375 -7.16042969 6.9621875 -7.14648438 6.234375 C-7.1111104 4.48925872 -7.05730221 2.74453392 -7 1 C-4.53721199 -0.231394 -2.7204945 -0.07159196 0 0 Z M-5 7 C-1.3558226 9.4294516 0.71241272 9.16179575 5 9 C5 8.67 5 8.34 5 8 C1.7 7.67 -1.6 7.34 -5 7 Z M9 7 C10 9 10 9 10 9 Z M-4 11 C-4 11.33 -4 11.66 -4 12 C-2.25181409 12.22304441 -0.50129677 12.4278645 1.25 12.625 C2.22453125 12.74101563 3.1990625 12.85703125 4.203125 12.9765625 C7.32838168 13.21471985 7.32838168 13.21471985 11 11 C6.05 11 1.1 11 -4 11 Z M3.8125 14.5 C2.46091797 14.63921875 2.46091797 14.63921875 1.08203125 14.78125 C0.39496094 14.8534375 -0.29210937 14.925625 -1 15 C-1 15.33 -1 15.66 -1 16 C0.79133978 16.05391993 2.58313899 16.09275571 4.375 16.125 C5.37273438 16.14820313 6.37046875 16.17140625 7.3984375 16.1953125 C10.16262173 16.27216848 10.16262173 16.27216848 12 14 C9.22003893 14 6.57507433 14.21297929 3.8125 14.5 Z " fill="#575D68" transform="translate(16,22)"/>
<path d="M0 0 C2.78583421 0.17973124 3.80277618 0.79573247 5.75 2.8125 C7 5 7 5 7 9 C8.98 9 10.96 9 13 9 C12.91253716 10.43861294 12.80434652 11.87597508 12.6875 13.3125 C12.62949219 14.11300781 12.57148438 14.91351563 12.51171875 15.73828125 C11.90564977 18.4170136 11.19801915 19.38258968 9 21 C5.8125 21.1875 5.8125 21.1875 3 21 C3 22.32 3 23.64 3 25 C2.34 25 1.68 25 1 25 C1 23.68 1 22.36 1 21 C-0.093125 21.103125 -1.18625 21.20625 -2.3125 21.3125 C-6 21 -6 21 -7.9375 18.9375 C-9.19260598 15.46750111 -9.21548663 12.66327268 -9 9 C-7.35 9 -5.7 9 -4 9 C-3.566875 7.329375 -3.566875 7.329375 -3.125 5.625 C-2 2 -2 2 0 0 Z M1 3 C-1.34973818 4.89755144 -1.34973818 4.89755144 -1.125 8.125 C-1.08375 9.07375 -1.0425 10.0225 -1 11 C0.89179203 11.6814823 0.89179203 11.6814823 3 12 C3.66 11.34 4.32 10.68 5 10 C4.67801034 6.90073181 4.67801034 6.90073181 4 4 C3.01 3.67 2.02 3.34 1 3 Z M-7 11 C-6.55296014 15.47883696 -6.55296014 15.47883696 -4 19 C-1.39719432 18.67958603 -1.39719432 18.67958603 1 18 C0.87822312 16.08533633 0.87822312 16.08533633 0 14 C-3.20075978 11.63919803 -3.20075978 11.63919803 -7 11 Z M3 14 C2.58219121 16.62694422 2.58219121 16.62694422 3 19 C5.41645782 19.16687448 5.41645782 19.16687448 8 19 C10.5654594 16.4345406 10.54046087 14.52313332 11 11 C7.34076304 11 5.86103423 11.75756777 3 14 Z " fill="#4E535E" transform="translate(18,0)"/>
<path d="M0 0 C0 0.66 0 1.32 0 2 C-1.98 2.99 -1.98 2.99 -4 4 C-2.35 4.33 -0.7 4.66 1 5 C-0.98 5.99 -0.98 5.99 -3 7 C-2.34 7 -1.68 7 -1 7 C1.33333333 7 3.66666667 7 6 7 C6 7.99 6 8.98 6 10 C2.7 10.33 -0.6 10.66 -4 11 C-4 11.99 -4 12.98 -4 14 C1.94 14.99 1.94 14.99 8 16 C8 16.33 8 16.66 8 17 C6.06403108 17.22211116 4.12610672 17.42722992 2.1875 17.625 C0.56908203 17.79902344 0.56908203 17.79902344 -1.08203125 17.9765625 C-4 18 -4 18 -7 16 C-7.22137393 13.37302936 -7.28162025 10.99106036 -7.1875 8.375 C-7.17396484 7.66859375 -7.16042969 6.9621875 -7.14648438 6.234375 C-7.1111104 4.48925872 -7.05730221 2.74453392 -7 1 C-4.53721199 -0.231394 -2.7204945 -0.07159196 0 0 Z " fill="#4C515B" transform="translate(16,22)"/>
<path d="M0 0 C0.99 0.33 1.98 0.66 3 1 C3 1.66 3 2.32 3 3 C2.01 3.66 1.02 4.32 0 5 C-0.5 8 -0.5 8 0 11 C0.99 11.66 1.98 12.32 3 13 C1.375 13.6875 1.375 13.6875 -1 14 C-4.25 12.5625 -4.25 12.5625 -7 11 C-5.07608351 16.31411494 -5.07608351 16.31411494 -1 20 C-2.65 20.33 -4.3 20.66 -6 21 C-8.98514628 16.89542386 -9.2954439 14.02254631 -9 9 C-7.35 9 -5.7 9 -4 9 C-3.566875 7.329375 -3.566875 7.329375 -3.125 5.625 C-2 2 -2 2 0 0 Z " fill="#4D525D" transform="translate(18,0)"/>
<path d="M0 0 C0.99 0.33 1.98 0.66 3 1 C3 1.66 3 2.32 3 3 C2.01 3.66 1.02 4.32 0 5 C-0.5 8 -0.5 8 0 11 C0.99 11.66 1.98 12.32 3 13 C1.25 13.6875 1.25 13.6875 -1 14 C-3.25 12.5625 -3.25 12.5625 -5 11 C-4.34 10.67 -3.68 10.34 -3 10 C-3.0928125 8.63875 -3.0928125 8.63875 -3.1875 7.25 C-2.98327924 3.71017358 -2.35448165 2.55068845 0 0 Z " fill="#474B55" transform="translate(18,0)"/>
<path d="M0 0 C5.625 -0.25 5.625 -0.25 9 2 C9.40843923 4.71203652 9.13336867 7.2437142 9 10 C5 5.25 5 5.25 5 3 C3.35 2.67 1.7 2.34 0 2 C0 1.34 0 0.68 0 0 Z " fill="#4F545F" transform="translate(22,22)"/>
<path d="M0 0 C1.32 1.65 2.64 3.3 4 5 C3.01 5.495 3.01 5.495 2 6 C2 7.32 2 8.64 2 10 C1.34 10 0.68 10 0 10 C0 8.68 0 7.36 0 6 C-1.65 6 -3.3 6 -5 6 C-4.360625 5.566875 -3.72125 5.13375 -3.0625 4.6875 C-0.73253997 3.08760823 -0.73253997 3.08760823 0 0 Z " fill="#5E6471" transform="translate(19,15)"/>
<path d="M0 0 C3.96 0.33 7.92 0.66 12 1 C12 1.33 12 1.66 12 2 C10.37585622 2.19477739 8.75063577 2.38059458 7.125 2.5625 C6.22007813 2.66691406 5.31515625 2.77132812 4.3828125 2.87890625 C2 3 2 3 0 2 C0 1.34 0 0.68 0 0 Z " fill="#5F6571" transform="translate(12,34)"/>
<path d="M0 0 C1.875 0.1875 1.875 0.1875 4 1 C5.25 3.5625 5.25 3.5625 6 6 C5.34 6.66 4.68 7.32 4 8 C3.566875 6.2984375 3.566875 6.2984375 3.125 4.5625 C2.75375 3.386875 2.3825 2.21125 2 1 C1.34 0.67 0.68 0.34 0 0 Z " fill="#545A65" transform="translate(19,1)"/>
</svg>
