<?xml version="1.0" encoding="UTF-8"?>
<svg version="1.1" xmlns="http://www.w3.org/2000/svg" width="40" height="40">
<path d="M0 0 C3.32272108 1.10430169 5.10379937 2.73109054 7.64453125 5.12890625 C8.88203125 6.28132812 8.88203125 6.28132812 10.14453125 7.45703125 C10.96953125 8.25625 11.79453125 9.05546875 12.64453125 9.87890625 C14.02705078 10.86697266 14.02705078 10.86697266 15.4375 11.875 C19.00858142 16.73546303 18.17011365 21.83983563 17.95703125 27.69140625 C17.93447266 28.86123047 17.91191406 30.03105469 17.88867188 31.23632812 C17.82985216 34.11849394 17.74770266 36.99804306 17.64453125 39.87890625 C15.33209333 39.90576037 13.01956855 39.92523466 10.70703125 39.94140625 C9.41925781 39.95300781 8.13148437 39.96460938 6.8046875 39.9765625 C3.64453125 39.87890625 3.64453125 39.87890625 2.64453125 38.87890625 C2.57139558 36.34841223 2.55205598 33.84585788 2.58203125 31.31640625 C2.58654297 30.60548828 2.59105469 29.89457031 2.59570312 29.16210938 C2.60752261 27.40100612 2.62545862 25.63994589 2.64453125 23.87890625 C0.66453125 23.87890625 -1.31546875 23.87890625 -3.35546875 23.87890625 C-3.34386719 24.95011719 -3.33226562 26.02132813 -3.3203125 27.125 C-3.31093576 28.52213368 -3.30183544 29.91926924 -3.29296875 31.31640625 C-3.28458984 32.02345703 -3.27621094 32.73050781 -3.26757812 33.45898438 C-3.25893287 35.26584184 -3.30326864 37.07278228 -3.35546875 38.87890625 C-4.35546875 39.87890625 -4.35546875 39.87890625 -7.26171875 40.01171875 C-8.44765625 40.00914063 -9.63359375 40.0065625 -10.85546875 40.00390625 C-12.04140625 40.00648437 -13.22734375 40.0090625 -14.44921875 40.01171875 C-17.35546875 39.87890625 -17.35546875 39.87890625 -18.35546875 38.87890625 C-21.00471165 17.87741926 -21.00471165 17.87741926 -16.3359375 11.23828125 C-13.81160529 8.77071813 -11.29737313 6.8195928 -8.35546875 4.87890625 C-7.24017404 3.82809324 -6.13363536 2.76775965 -5.04296875 1.69140625 C-2.35546875 -0.12109375 -2.35546875 -0.12109375 0 0 Z M-10.44580078 10.46533203 C-14.82327458 15.09065232 -16.20136784 18.65956681 -16.33544922 25.01660156 C-16.1823482 29.00862172 -15.85801791 32.91435173 -15.35546875 36.87890625 C-12.38546875 36.87890625 -9.41546875 36.87890625 -6.35546875 36.87890625 C-6.02546875 31.92890625 -5.69546875 26.97890625 -5.35546875 21.87890625 C-1.72546875 21.54890625 1.90453125 21.21890625 5.64453125 20.87890625 C5.64453125 26.15890625 5.64453125 31.43890625 5.64453125 36.87890625 C8.61453125 36.87890625 11.58453125 36.87890625 14.64453125 36.87890625 C16.33582315 25.39644507 16.33582315 25.39644507 13.30273438 14.55761719 C9.74327214 10.12357918 5.45123738 5.95507401 0.64453125 2.87890625 C-3.74968138 2.87890625 -7.40210622 7.62127358 -10.44580078 10.46533203 Z " fill="#575D68" transform="translate(20.35546875,0.12109375)"/>
</svg>
