<?xml version="1.0" encoding="UTF-8"?>
<svg version="1.1" xmlns="http://www.w3.org/2000/svg" width="40" height="40">
<path d="M0 0 C9.57 0 19.14 0 29 0 C29.66 2.97 30.32 5.94 31 9 C32.32 7.35 33.64 5.7 35 4 C37.475 4.495 37.475 4.495 40 5 C39.48932654 9.46839274 37.88567577 11.61963695 35 15 C30.87643555 20.38394722 30.2074925 24.26398581 30.5234375 30.95703125 C29.88613541 34.66194414 28.86632032 36.35443277 26.09912109 38.85522461 C21.64429308 41.28470688 16.55042974 40.59951535 11.625 40.375 C7.78875 40.25125 3.9525 40.1275 0 40 C0 26.8 0 13.6 0 0 Z M2 3 C2 14.22 2 25.44 2 37 C7.07375 37.12375 7.07375 37.12375 12.25 37.25 C13.83989746 37.30462402 13.83989746 37.30462402 15.46191406 37.36035156 C20.86646654 37.47830673 20.86646654 37.47830673 25.65625 35.25 C27.12438958 32.79171977 27.4385048 31.57757204 27.25 28.75 C27.12625 26.89375 27.12625 26.89375 27 25 C25.35 25.66 23.7 26.32 22 27 C22.45341868 25.72740489 22.91295227 24.45698757 23.375 23.1875 C23.75785156 22.12595703 23.75785156 22.12595703 24.1484375 21.04296875 C25 19 25 19 27 16 C27.24246783 12.79620876 27.24246783 12.79620876 27.125 9.3125 C27.08375 7.229375 27.0425 5.14625 27 3 C18.75 3 10.5 3 2 3 Z " fill="#5B616D" transform="translate(0,0)"/>
<path d="M0 0 C1.32 0.33 2.64 0.66 4 1 C3.67 1.99 3.34 2.98 3 4 C2.34 4 1.68 4 1 4 C1.3196875 4.53882813 1.639375 5.07765625 1.96875 5.6328125 C3.21533425 8.49428999 3.40483702 10.75841254 3.5 13.875 C3.57734375 15.38707031 3.57734375 15.38707031 3.65625 16.9296875 C2.87482171 20.58565556 1.84608579 22.35853776 -0.90527344 24.85302734 C-5.35540183 27.28970604 -10.44931108 26.6012684 -15.375 26.375 C-17.05142578 26.33439453 -17.05142578 26.33439453 -18.76171875 26.29296875 C-21.50980752 26.22250494 -24.2538945 26.12404229 -27 26 C-26.01 24.515 -26.01 24.515 -25 23 C-22.89282227 22.61523438 -22.89282227 22.61523438 -20.31640625 22.59375 C-18.92518555 22.56087891 -18.92518555 22.56087891 -17.50585938 22.52734375 C-16.53455078 22.51832031 -15.56324219 22.50929688 -14.5625 22.5 C-12.64696382 22.48213357 -10.73149274 22.45143594 -8.81640625 22.40625 C-7.53938843 22.39561523 -7.53938843 22.39561523 -6.23657227 22.38476562 C-3.49791471 21.91362445 -2.59917028 21.252189 -1 19 C-0.7496423 15.37464024 -0.7496423 15.37464024 -1 12 C-2.32 12.33 -3.64 12.66 -5 13 C-4.54996653 7.37458159 -3.31558515 4.38512875 0 0 Z " fill="#494E58" transform="translate(27,14)"/>
<path d="M0 0 C6.6 0 13.2 0 20 0 C20 0.99 20 1.98 20 3 C13.4 3 6.8 3 0 3 C0 2.01 0 1.02 0 0 Z " fill="#565C68" transform="translate(4,15)"/>
<path d="M0 0 C6.6 0 13.2 0 20 0 C20 0.99 20 1.98 20 3 C13.4 3 6.8 3 0 3 C0 2.01 0 1.02 0 0 Z " fill="#454A53" transform="translate(4,10)"/>
<path d="M0 0 C0.33 0 0.66 0 1 0 C1.33 2.31 1.66 4.62 2 7 C3.32 5.35 4.64 3.7 6 2 C7.65 2.33 9.3 2.66 11 3 C10.25 7.75 10.25 7.75 8 10 C6.32706064 9.69972883 4.66014616 9.36442233 3 9 C2.01 9.33 1.02 9.66 0 10 C0 6.7 0 3.4 0 0 Z " fill="#4C515B" transform="translate(29,2)"/>
<path d="M0 0 C5.28 0 10.56 0 16 0 C16 0.99 16 1.98 16 3 C10.72 3 5.44 3 0 3 C0 2.01 0 1.02 0 0 Z " fill="#565C67" transform="translate(4,26)"/>
<path d="M0 0 C5.28 0 10.56 0 16 0 C16 0.99 16 1.98 16 3 C10.72 3 5.44 3 0 3 C0 2.01 0 1.02 0 0 Z " fill="#565C67" transform="translate(4,21)"/>
<path d="M0 0 C1.32 0.33 2.64 0.66 4 1 C3.67 1.99 3.34 2.98 3 4 C2.34 4 1.68 4 1 4 C1 4.99 1 5.98 1 7 C0.34 6.67 -0.32 6.34 -1 6 C-1 2 -1 2 0 0 Z " fill="#434750" transform="translate(27,14)"/>
</svg>
