<?xml version="1.0" encoding="UTF-8"?>
<svg version="1.1" xmlns="http://www.w3.org/2000/svg" width="40" height="40">
<path d="M0 0 C1.051875 -0.02578125 2.10375 -0.0515625 3.1875 -0.078125 C6 0.25 6 0.25 7.875 1.765625 C8.24625 2.25546875 8.6175 2.7453125 9 3.25 C5.85481639 4.0362959 3.33829471 4.22899348 0.0625 4.125 C-3.98622789 4.08687639 -6.56778235 4.98785655 -10 7.25 C-14.06634812 11.64605202 -15.38454529 15.08073596 -15.2734375 21.125 C-14.60267537 26.33778 -12.01813988 29.40516053 -8.0625 32.6875 C-2.83703356 35.38044871 3.30042202 34.55854858 9 34.25 C8 37.25 8 37.25 6 38.25 C-0.98627928 39.00236854 -6.599387 38.92511203 -12.37890625 34.68359375 C-16.39823524 31.12915101 -18.79473798 27.98551115 -19.203125 22.54296875 C-19.36514374 11.80922701 -19.36514374 11.80922701 -16 7.25 C-10.90457021 2.15457021 -7.3475347 0.10805198 0 0 Z " fill="#595F6B" transform="translate(19,0.75)"/>
<path d="M0 0 C3.55736507 1.4671173 5.44195167 3.3706419 7.8125 6.375 C8.43769531 7.14585938 9.06289063 7.91671875 9.70703125 8.7109375 C11 11 11 11 10.90625 13.0234375 C9.79433373 15.44856522 8.43294349 17.23171417 6.6875 19.25 C6.09324219 19.95640625 5.49898437 20.6628125 4.88671875 21.390625 C3 23 3 23 -1 23 C-0.3405469 19.30706264 0.52929434 18.29427421 3 15 C-1.95 14.67 -6.9 14.34 -12 14 C-12 12.68 -12 11.36 -12 10 C-7.05 9.67 -2.1 9.34 3 9 C1.68 7.35 0.36 5.7 -1 4 C-0.75 1.6875 -0.75 1.6875 0 0 Z " fill="#5A606C" transform="translate(29,8)"/>
</svg>
