<?xml version="1.0" encoding="UTF-8"?>
<svg version="1.1" xmlns="http://www.w3.org/2000/svg" width="200" height="200">
<path d="M0 0 C-1.60205018 4.42671762 -4.98437412 6.84446104 -8.5 9.75 C-9.09425781 10.25660156 -9.68851562 10.76320313 -10.30078125 11.28515625 C-14.73656503 15 -14.73656503 15 -17 15 C-14.7852249 20.07598602 -12.56131172 25.14782893 -10.32885742 30.21606445 C-9.57080018 31.94054334 -8.81524566 33.66612467 -8.06225586 35.39282227 C-6.97907132 37.87550692 -5.8869286 40.35407914 -4.79296875 42.83203125 C-4.29122383 43.98998955 -4.29122383 43.98998955 -3.77934265 45.17134094 C-3.29918449 46.25212166 -3.29918449 46.25212166 -2.80932617 47.35473633 C-2.53174973 47.98761063 -2.25417328 48.62048492 -1.96818542 49.27253723 C0.30957894 53.33658636 3.0967463 54.57657038 7.375 56.125 C25.47173639 63.44674721 39.80046313 77.84691096 47.6015625 95.65625 C48.87345452 99.07771392 49.98615666 102.49414678 51 106 C51.24492187 106.80308594 51.48984375 107.60617188 51.7421875 108.43359375 C56.07497225 125.5569965 53.06565581 145.53244559 45 161 C33.79181124 179.66551831 18.08247898 192.67769178 -2.99926758 198.55761719 C-22.38017028 203.39260837 -43.27363318 200.3021939 -60.39453125 190.2578125 C-77.94407544 179.46463036 -89.60549771 164.65247749 -94.875 144.5625 C-95.27624165 142.71383449 -95.65455073 140.85989888 -96 139 C-96.13019531 138.30777344 -96.26039062 137.61554688 -96.39453125 136.90234375 C-96.69840926 134.92916253 -96.87731188 132.99275248 -97 131 C-97.05285156 130.1440625 -97.10570312 129.288125 -97.16015625 128.40625 C-97.43946286 119.37128819 -96.57754458 108.75190317 -92.8359375 100.40234375 C-91.07462184 95.34061884 -93.39135726 90.72736654 -95.55274963 86.13638306 C-95.89756882 85.42364227 -96.242388 84.71090149 -96.59765625 83.9765625 C-96.95137802 83.23038666 -97.30509979 82.48421082 -97.66954041 81.71542358 C-98.79352161 79.34853843 -99.92781961 76.98677166 -101.0625 74.625 C-101.82946418 73.01465048 -102.59574763 71.40397656 -103.36132812 69.79296875 C-105.2330267 65.85818048 -107.11398956 61.92794714 -109 58 C-114.445 58.495 -114.445 58.495 -120 59 C-119.93091287 63.18148877 -119.84284758 67.36202754 -119.73754883 71.54272461 C-119.70439443 72.96351202 -119.67633308 74.38442813 -119.65356445 75.80541992 C-119.61984153 77.8539082 -119.56752255 79.9012272 -119.51171875 81.94921875 C-119.48553467 83.17987061 -119.45935059 84.41052246 -119.43237305 85.6784668 C-118.9701564 89.2292615 -117.88742743 91.02140856 -116 94 C-116.3125 97.625 -116.3125 97.625 -117 101 C-117 103.96335165 -116.64533932 105.1666533 -115.46875 107.79296875 C-115.15292969 108.50517578 -114.83710937 109.21738281 -114.51171875 109.95117188 C-114.17785156 110.68916016 -113.84398438 111.42714844 -113.5 112.1875 C-113.16613281 112.93708984 -112.83226563 113.68667969 -112.48828125 114.45898438 C-111.66379085 116.30819856 -110.83253959 118.15439566 -110 120 C-111 121 -111 121 -113.13305664 121.11352539 C-114.04949951 121.10828857 -114.96594238 121.10305176 -115.91015625 121.09765625 C-116.89951172 121.09443359 -117.88886719 121.09121094 -118.90820312 121.08789062 C-119.94912109 121.07951172 -120.99003906 121.07113281 -122.0625 121.0625 C-123.10728516 121.05798828 -124.15207031 121.05347656 -125.22851562 121.04882812 C-127.8190666 121.03699913 -130.40950559 121.02051689 -133 121 C-131.38938316 116.05777727 -129.70125342 111.19488718 -127.75 106.375 C-125.98268996 101.6378118 -125.96361043 98.871031 -127 94 C-126.01 93.01 -126.01 93.01 -125 92 C-124.81528999 88.78890241 -124.81528999 88.78890241 -125.0234375 85.0234375 C-125.06097641 83.99556625 -125.06097641 83.99556625 -125.09927368 82.94692993 C-125.18152309 80.7557869 -125.27809048 78.56553889 -125.375 76.375 C-125.43323472 74.8906617 -125.49053811 73.40628654 -125.546875 71.921875 C-125.68710758 68.28076026 -125.84018751 64.6403138 -126 61 C-127.65 61 -129.3 61 -131 61 C-131 58 -131 58 -129.296875 56.265625 C-128.45640625 55.60046875 -127.6159375 54.9353125 -126.75 54.25 C-125.75097656 53.45851562 -124.75195312 52.66703125 -123.72265625 51.8515625 C-118.37784867 47.73194699 -112.96784834 43.69761392 -107.55761719 39.66455078 C-103.07381435 36.31974466 -98.61212047 32.9554421 -94.22338867 29.48657227 C-93.07879485 28.58227991 -91.92922018 27.68425492 -90.7746582 26.79272461 C-88.2111799 24.80605698 -85.78949798 22.79565112 -83.4609375 20.53515625 C-74.60365172 12.4940252 -63.92110493 11.26466486 -52.4753418 9.19447327 C-46.79615613 8.16593572 -41.14421412 7.02341369 -35.4921875 5.85546875 C-31.86997526 5.11108376 -28.24749995 4.36798347 -24.625 3.625 C-23.7424353 3.44347382 -22.85987061 3.26194763 -21.95056152 3.07492065 C-19.41876904 2.55676978 -16.88546048 2.04680372 -14.3515625 1.5390625 C-13.5964035 1.38314133 -12.84124451 1.22722015 -12.0632019 1.0665741 C-7.98026948 0.25659789 -4.16158854 -0.16154344 0 0 Z " fill="#B7D6F0" transform="translate(140,0)"/>
<path d="M0 0 C-1.60205018 4.42671762 -4.98437412 6.84446104 -8.5 9.75 C-9.09425781 10.25660156 -9.68851562 10.76320313 -10.30078125 11.28515625 C-14.73656503 15 -14.73656503 15 -17 15 C-14.7828674 20.05663157 -12.55898683 25.11021972 -10.32885742 30.16113281 C-9.57146958 31.87906664 -8.81591754 33.59781105 -8.06225586 35.31738281 C-6.97733885 37.79188041 -5.88580807 40.26336783 -4.79296875 42.734375 C-4.29122383 43.88459137 -4.29122383 43.88459137 -3.77934265 45.05804443 C-2.16305958 48.69573012 -0.60551874 51.93966135 2 55 C1.01 55.495 1.01 55.495 0 56 C-3.34330132 58.22886755 -5.88163697 60.77348697 -8.64453125 63.671875 C-10.61421447 65.61869291 -12.61650479 67.43342534 -14.70703125 69.24609375 C-19.20907748 73.1513194 -23.54710286 77.21618332 -27.875 81.3125 C-29.01195313 82.38467773 -29.01195313 82.38467773 -30.171875 83.47851562 C-34.12225035 87.20178523 -34.12225035 87.20178523 -38 91 C-40.77124023 91.47070312 -40.77124023 91.47070312 -44.30859375 91.78125 C-45.60498779 91.90016602 -46.90138184 92.01908203 -48.23706055 92.14160156 C-49.63718722 92.26129965 -51.03733411 92.38076147 -52.4375 92.5 C-54.56053939 92.68957837 -56.68332145 92.88187764 -58.80610657 93.07427979 C-60.21607312 93.20179391 -61.62613858 93.32821898 -63.03630066 93.45355225 C-69.52511201 94.03353102 -75.99847386 94.73619643 -82.46459961 95.52929688 C-89.27950817 96.30420954 -89.27950817 96.30420954 -92 95 C-93.40161934 92.60127209 -94.51591904 90.36226925 -95.6015625 87.82421875 C-95.92410004 87.10265091 -96.24663757 86.38108307 -96.57894897 85.63764954 C-97.60826325 83.32683165 -98.61689243 81.00763699 -99.625 78.6875 C-100.31112748 77.13546022 -100.99861203 75.58401961 -101.6875 74.03320312 C-102.95343777 71.18166205 -104.20988761 68.32626778 -105.45947266 65.4675293 C-106.57793305 62.95001852 -107.76802482 60.46395035 -109 58 C-114.445 58.495 -114.445 58.495 -120 59 C-119.93091287 63.18148877 -119.84284758 67.36202754 -119.73754883 71.54272461 C-119.70439443 72.96351202 -119.67633308 74.38442813 -119.65356445 75.80541992 C-119.61984153 77.8539082 -119.56752255 79.9012272 -119.51171875 81.94921875 C-119.48553467 83.17987061 -119.45935059 84.41052246 -119.43237305 85.6784668 C-118.9701564 89.2292615 -117.88742743 91.02140856 -116 94 C-116.3125 97.625 -116.3125 97.625 -117 101 C-117 103.96335165 -116.64533932 105.1666533 -115.46875 107.79296875 C-115.15292969 108.50517578 -114.83710937 109.21738281 -114.51171875 109.95117188 C-114.17785156 110.68916016 -113.84398438 111.42714844 -113.5 112.1875 C-113.16613281 112.93708984 -112.83226563 113.68667969 -112.48828125 114.45898438 C-111.66379085 116.30819856 -110.83253959 118.15439566 -110 120 C-111 121 -111 121 -113.13305664 121.11352539 C-114.04949951 121.10828857 -114.96594238 121.10305176 -115.91015625 121.09765625 C-116.89951172 121.09443359 -117.88886719 121.09121094 -118.90820312 121.08789062 C-119.94912109 121.07951172 -120.99003906 121.07113281 -122.0625 121.0625 C-123.10728516 121.05798828 -124.15207031 121.05347656 -125.22851562 121.04882812 C-127.8190666 121.03699913 -130.40950559 121.02051689 -133 121 C-131.38938316 116.05777727 -129.70125342 111.19488718 -127.75 106.375 C-125.98268996 101.6378118 -125.96361043 98.871031 -127 94 C-126.01 93.01 -126.01 93.01 -125 92 C-124.81528999 88.78890241 -124.81528999 88.78890241 -125.0234375 85.0234375 C-125.06097641 83.99556625 -125.06097641 83.99556625 -125.09927368 82.94692993 C-125.18152309 80.7557869 -125.27809048 78.56553889 -125.375 76.375 C-125.43323472 74.8906617 -125.49053811 73.40628654 -125.546875 71.921875 C-125.68710758 68.28076026 -125.84018751 64.6403138 -126 61 C-127.65 61 -129.3 61 -131 61 C-131 58 -131 58 -129.296875 56.265625 C-128.45640625 55.60046875 -127.6159375 54.9353125 -126.75 54.25 C-125.75097656 53.45851562 -124.75195312 52.66703125 -123.72265625 51.8515625 C-118.37784867 47.73194699 -112.96784834 43.69761392 -107.55761719 39.66455078 C-103.07381435 36.31974466 -98.61212047 32.9554421 -94.22338867 29.48657227 C-93.07879485 28.58227991 -91.92922018 27.68425492 -90.7746582 26.79272461 C-88.2111799 24.80605698 -85.78949798 22.79565112 -83.4609375 20.53515625 C-74.60365172 12.4940252 -63.92110493 11.26466486 -52.4753418 9.19447327 C-46.79615613 8.16593572 -41.14421412 7.02341369 -35.4921875 5.85546875 C-31.86997526 5.11108376 -28.24749995 4.36798347 -24.625 3.625 C-23.7424353 3.44347382 -22.85987061 3.26194763 -21.95056152 3.07492065 C-19.41876904 2.55676978 -16.88546048 2.04680372 -14.3515625 1.5390625 C-13.5964035 1.38314133 -12.84124451 1.22722015 -12.0632019 1.0665741 C-7.98026948 0.25659789 -4.16158854 -0.16154344 0 0 Z " fill="#EA537B" transform="translate(140,0)"/>
<path d="M0 0 C-1.56979545 4.20586707 -4.69669924 6.60451094 -8.0625 9.375 C-8.6503125 9.86613281 -9.238125 10.35726563 -9.84375 10.86328125 C-13.62366211 13.98150197 -17.50896739 16.73429803 -21.64453125 19.36328125 C-25.24656255 21.86618526 -28.5172471 24.74850528 -31.83618164 27.60791016 C-36.50220651 31.61666244 -41.29549008 35.43687176 -46.1550293 39.20776367 C-46.70070557 39.63162354 -47.24638184 40.0554834 -47.80859375 40.4921875 C-48.28095459 40.85683105 -48.75331543 41.22147461 -49.23999023 41.59716797 C-51.19591391 43.09978392 -51.19591391 43.09978392 -53.48095703 45.50756836 C-57.84416349 49.13216521 -63.03881437 49.54045552 -68.49609375 50.38671875 C-69.60300064 50.57466507 -70.70990753 50.76261139 -71.85035706 50.95625305 C-75.37665317 51.55151541 -78.90657528 52.12040406 -82.4375 52.6875 C-85.9637808 53.27059718 -89.489096 53.85911245 -93.01393127 54.45088196 C-95.2032804 54.8166276 -97.39363121 55.17644151 -99.58506775 55.52946472 C-105.81266122 56.54763182 -105.81266122 56.54763182 -111.91430664 58.12426758 C-114.79474565 58.94174797 -117.03023606 59.17998569 -120 59 C-119.93091287 63.18148877 -119.84284758 67.36202754 -119.73754883 71.54272461 C-119.70439443 72.96351202 -119.67633308 74.38442813 -119.65356445 75.80541992 C-119.61984153 77.8539082 -119.56752255 79.9012272 -119.51171875 81.94921875 C-119.48553467 83.17987061 -119.45935059 84.41052246 -119.43237305 85.6784668 C-118.9701564 89.2292615 -117.88742743 91.02140856 -116 94 C-116.3125 97.625 -116.3125 97.625 -117 101 C-117 103.96335165 -116.64533932 105.1666533 -115.46875 107.79296875 C-115.15292969 108.50517578 -114.83710937 109.21738281 -114.51171875 109.95117188 C-114.17785156 110.68916016 -113.84398438 111.42714844 -113.5 112.1875 C-113.16613281 112.93708984 -112.83226563 113.68667969 -112.48828125 114.45898438 C-111.66379085 116.30819856 -110.83253959 118.15439566 -110 120 C-111 121 -111 121 -113.13305664 121.11352539 C-114.04949951 121.10828857 -114.96594238 121.10305176 -115.91015625 121.09765625 C-116.89951172 121.09443359 -117.88886719 121.09121094 -118.90820312 121.08789062 C-119.94912109 121.07951172 -120.99003906 121.07113281 -122.0625 121.0625 C-123.10728516 121.05798828 -124.15207031 121.05347656 -125.22851562 121.04882812 C-127.8190666 121.03699913 -130.40950559 121.02051689 -133 121 C-131.38938316 116.05777727 -129.70125342 111.19488718 -127.75 106.375 C-125.98268996 101.6378118 -125.96361043 98.871031 -127 94 C-126.01 93.01 -126.01 93.01 -125 92 C-124.81528999 88.78890241 -124.81528999 88.78890241 -125.0234375 85.0234375 C-125.06097641 83.99556625 -125.06097641 83.99556625 -125.09927368 82.94692993 C-125.18152309 80.7557869 -125.27809048 78.56553889 -125.375 76.375 C-125.43323472 74.8906617 -125.49053811 73.40628654 -125.546875 71.921875 C-125.68710758 68.28076026 -125.84018751 64.6403138 -126 61 C-127.65 61 -129.3 61 -131 61 C-131 58 -131 58 -129.296875 56.265625 C-128.45640625 55.60046875 -127.6159375 54.9353125 -126.75 54.25 C-125.75097656 53.45851562 -124.75195312 52.66703125 -123.72265625 51.8515625 C-118.37784867 47.73194699 -112.96784834 43.69761392 -107.55761719 39.66455078 C-103.07381435 36.31974466 -98.61212047 32.9554421 -94.22338867 29.48657227 C-93.07879485 28.58227991 -91.92922018 27.68425492 -90.7746582 26.79272461 C-88.2111799 24.80605698 -85.78949798 22.79565112 -83.4609375 20.53515625 C-74.60365172 12.4940252 -63.92110493 11.26466486 -52.4753418 9.19447327 C-46.79615613 8.16593572 -41.14421412 7.02341369 -35.4921875 5.85546875 C-31.86997526 5.11108376 -28.24749995 4.36798347 -24.625 3.625 C-23.7424353 3.44347382 -22.85987061 3.26194763 -21.95056152 3.07492065 C-19.41876904 2.55676978 -16.88546048 2.04680372 -14.3515625 1.5390625 C-13.5964035 1.38314133 -12.84124451 1.22722015 -12.0632019 1.0665741 C-7.98026948 0.25659789 -4.16158854 -0.16154344 0 0 Z " fill="#47628E" transform="translate(140,0)"/>
<path d="M0 0 C1.04607422 0.37705078 2.09214844 0.75410156 3.16992188 1.14257812 C12.44429345 4.49440005 12.44429345 4.49440005 22.10742188 6.20507812 C21.40501671 23.7300871 14.71169938 39.16133871 3.10742188 52.20507812 C2.51445312 52.89214844 1.92148438 53.57921875 1.31054688 54.28710938 C-9.68389581 66.19775562 -25.08003531 73.44415795 -40.89257812 76.20507812 C-42.21257812 76.20507812 -43.53257813 76.20507812 -44.89257812 76.20507812 C-47.21573635 68.6548139 -48.74823419 60.30298526 -45.39257812 52.89257812 C-39.20417708 46.240047 -31.65018583 39.12428069 -22.89257812 36.20507812 C-21.75047995 34.42278876 -21.75047995 34.42278876 -20.89257812 32.20507812 C-20.52132812 31.50382812 -20.15007812 30.80257812 -19.76757812 30.08007812 C-17.43657827 22.4210786 -18.94849038 15.96253438 -22.01757812 8.74804688 C-22.96023285 6.00845659 -23.24087792 4.07855141 -22.89257812 1.20507812 C-15.72486202 -5.42505927 -8.28279401 -2.87893469 0 0 Z " fill="#6DC098" transform="translate(170.892578125,123.794921875)"/>
<path d="M0 0 C5.28 1.98 10.56 3.96 16 6 C16 7.65 16 9.3 16 11 C8.91467501 15.82442983 2.50331764 16.60146842 -5.84130859 16.63452148 C-10.02677746 16.53175633 -10.02677746 16.53175633 -13.64868164 18.30419922 C-15.81871695 21.0274269 -16.81622575 24.26311728 -18 27.5 C-21.05351177 35.84944626 -21.05351177 35.84944626 -24 38 C-27.17437174 39.10131264 -30.1947677 39.86307282 -33.50390625 40.42578125 C-38.67647034 41.31228627 -42.25934908 42.02555839 -46 46 C-48.89303985 50.73966103 -48.5830766 55.61775444 -48 61 C-45.49532087 70.13098215 -37.44622369 75.4148535 -29.6640625 79.95703125 C-28 81 -28 81 -26 83 C-25.26330268 88.34105559 -25.62061934 91.02524244 -28.875 95.375 C-30.51019987 97.35777859 -32.18188292 99.18188292 -34 101 C-49.96638507 89.66686655 -59.44929436 73.11699917 -63 54 C-63.13019531 53.30777344 -63.26039062 52.61554688 -63.39453125 51.90234375 C-63.69840926 49.92916253 -63.87731188 47.99275248 -64 46 C-64.07927734 44.71609375 -64.07927734 44.71609375 -64.16015625 43.40625 C-64.49658258 32.52358968 -63.01253215 20.76515522 -58 11 C-55.45556358 10.15185453 -53.55923051 9.77700608 -50.9309082 9.53515625 C-49.70867302 9.41998657 -49.70867302 9.41998657 -48.46174622 9.30249023 C-47.14456856 9.18369507 -47.14456856 9.18369507 -45.80078125 9.0625 C-44.89176559 8.97750244 -43.98274994 8.89250488 -43.04618835 8.80493164 C-40.13525825 8.5332758 -37.22391533 8.26640087 -34.3125 8 C-31.41901735 7.73281284 -28.52563526 7.46459928 -25.63237 7.19506836 C-23.83271831 7.02767274 -22.03292993 6.86173807 -20.23298645 6.69750977 C-18.58968997 6.5456023 -16.94706538 6.38618671 -15.30532837 6.21826172 C-13.80118875 6.0758542 -12.29344421 5.96652363 -10.78427124 5.89501953 C-4.91525084 5.49841658 -4.64936988 4.64936988 0 0 Z " fill="#6DC097" transform="translate(107,85)"/>
<path d="M0 0 C3.5 0.25 3.5 0.25 5.5 2.25 C5.24438677 4.5931213 4.90729228 6.92843403 4.5 9.25 C4.5 12.21335165 4.85466068 13.4166533 6.03125 16.04296875 C6.34707031 16.75517578 6.66289062 17.46738281 6.98828125 18.20117188 C7.32214844 18.93916016 7.65601562 19.67714844 8 20.4375 C8.33386719 21.18708984 8.66773437 21.93667969 9.01171875 22.70898438 C9.83620915 24.55819856 10.66746041 26.40439566 11.5 28.25 C10.5 29.25 10.5 29.25 8.36694336 29.36352539 C7.45050049 29.35828857 6.53405762 29.35305176 5.58984375 29.34765625 C4.60048828 29.34443359 3.61113281 29.34121094 2.59179688 29.33789062 C1.55087891 29.32951172 0.50996094 29.32113281 -0.5625 29.3125 C-1.60728516 29.30798828 -2.65207031 29.30347656 -3.72851562 29.29882812 C-6.3190666 29.28699913 -8.90950559 29.27051689 -11.5 29.25 C-9.88938316 24.30777727 -8.20125342 19.44488718 -6.25 14.625 C-4.48268996 9.8878118 -4.46361043 7.121031 -5.5 2.25 C-3.5 0.25 -3.5 0.25 0 0 Z " fill="#E3CA47" transform="translate(18.5,91.75)"/>
<path d="M0 0 C5.44115933 0.83252711 8.7920501 4.07595344 12.375 8.0625 C15.61744473 12.8248407 15.84109409 16.46937086 15.375 22.0625 C13.375 24.0625 13.375 24.0625 10.25 24.125 C4.48832319 23.10257301 0.4743253 18.73223022 -3.01953125 14.2890625 C-5.63572249 10.20299703 -6.18626443 6.83324769 -5.625 2.0625 C-3.625 0.0625 -3.625 0.0625 0 0 Z " fill="#FCFDFE" transform="translate(164.625,75.9375)"/>
<path d="M0 0 C3.5 0.25 3.5 0.25 5.5 2.25 C5.125 5.875 5.125 5.875 4.5 9.25 C-1.125 10.375 -1.125 10.375 -4.5 9.25 C-5.125 5.875 -5.125 5.875 -5.5 2.25 C-3.5 0.25 -3.5 0.25 0 0 Z " fill="#D54E6F" transform="translate(18.5,91.75)"/>
</svg>
