<?xml version="1.0" encoding="UTF-8"?>
<svg version="1.1" xmlns="http://www.w3.org/2000/svg" width="40" height="40">
<path d="M0 0 C0.82290527 0.00202423 1.64581055 0.00404846 2.49365234 0.00613403 C3.33331543 0.00517731 4.17297852 0.00422058 5.03808594 0.00323486 C6.81689529 0.00255306 8.59570712 0.00440737 10.37451172 0.00857544 C13.10699011 0.01392371 15.83930411 0.00863048 18.57177734 0.00222778 C20.29573604 0.00288856 22.01969464 0.00416973 23.74365234 0.00613403 C24.56655762 0.0041098 25.38946289 0.00208557 26.23730469 0 C32.0037018 0.02399599 32.0037018 0.02399599 33.11865234 1.13894653 C33.2180001 2.82279728 33.24945284 4.51076251 33.25146484 6.19754028 C33.25339844 7.73571411 33.25339844 7.73571411 33.25537109 9.30496216 C33.25150391 10.384552 33.24763672 11.46414185 33.24365234 12.57644653 C33.24945313 14.19003052 33.24945313 14.19003052 33.25537109 15.83621216 C33.25408203 16.86295044 33.25279297 17.88968872 33.25146484 18.94754028 C33.25033691 19.89427612 33.24920898 20.84101196 33.24804688 21.81643677 C33.11865234 24.13894653 33.11865234 24.13894653 32.11865234 26.13894653 C19.57865234 26.13894653 7.03865234 26.13894653 -5.88134766 26.13894653 C-7.1527254 23.59619104 -7.01077265 21.79086452 -7.01416016 18.94754028 C-7.01544922 17.920802 -7.01673828 16.89406372 -7.01806641 15.83621216 C-7.01419922 14.7604895 -7.01033203 13.68476685 -7.00634766 12.57644653 C-7.01021484 11.49685669 -7.01408203 10.41726685 -7.01806641 9.30496216 C-7.01677734 8.27951294 -7.01548828 7.25406372 -7.01416016 6.19754028 C-7.01303223 5.25193237 -7.0119043 4.30632446 -7.01074219 3.33206177 C-6.74645288 -1.14739267 -3.80594814 0.01583788 0 0 Z M7.11865234 12.13894653 C7.11865234 12.79894653 7.11865234 13.45894653 7.11865234 14.13894653 C7.77865234 13.80894653 8.43865234 13.47894653 9.11865234 13.13894653 C8.45865234 12.80894653 7.79865234 12.47894653 7.11865234 12.13894653 Z M18.11865234 12.13894653 C17.78865234 12.79894653 17.45865234 13.45894653 17.11865234 14.13894653 C17.77865234 14.13894653 18.43865234 14.13894653 19.11865234 14.13894653 C18.78865234 13.47894653 18.45865234 12.81894653 18.11865234 12.13894653 Z " fill="#000000" transform="translate(6.88134765625,6.861053466796875)"/>
</svg>
