<?xml version="1.0" encoding="UTF-8"?>
<svg version="1.1" xmlns="http://www.w3.org/2000/svg" width="200" height="200">
<path d="M0 0 C0.77300949 -0.0066568 1.54601898 -0.0133136 2.342453 -0.02017212 C3.97380201 -0.030268 5.60519205 -0.03499009 7.23657227 -0.03466797 C9.71245654 -0.03903076 12.18654126 -0.07535095 14.66210938 -0.11328125 C16.25390022 -0.11915247 17.84569944 -0.12311982 19.4375 -0.125 C20.1679805 -0.13937103 20.898461 -0.15374207 21.65107727 -0.16854858 C27.13295065 -0.12063498 31.41504407 1.14091889 35.91796875 4.3359375 C40.22824599 9.25650695 42.06674204 15.53370416 44.24609375 21.61328125 C44.63996277 22.6979921 45.03383179 23.78270294 45.43963623 24.90028381 C46.26725112 27.18749265 47.09067462 29.47622194 47.91015625 31.76635742 C49.16421076 35.26295934 50.43867155 38.75165348 51.71484375 42.24023438 C52.51817573 44.46830019 53.32029999 46.69680191 54.12109375 48.92578125 C54.50227356 49.96451889 54.88345337 51.00325653 55.27618408 52.07347107 C57.14604161 57.35345296 58.55683141 61.72260709 57.91796875 67.3359375 C56.35546875 69.8359375 56.35546875 69.8359375 53.91796875 71.3359375 C50.35546875 71.3359375 50.35546875 71.3359375 46.91796875 70.3359375 C43.46867057 66.855867 42.18264696 62.14950421 40.5625 57.6328125 C40.25600021 56.79502258 39.94950043 55.95723267 39.63371277 55.09405518 C38.65961343 52.42694691 37.69493408 49.75654273 36.73046875 47.0859375 C36.07028056 45.2732119 35.40948019 43.46070914 34.74804688 41.6484375 C33.13091506 37.21348851 31.522221 32.7755608 29.91796875 28.3359375 C29.91796875 31.98517773 30.32787105 34.15776372 31.38671875 37.57592773 C31.70705078 38.62058701 32.02738281 39.66524628 32.35742188 40.74156189 C32.70740234 41.86454178 33.05738281 42.98752167 33.41796875 44.14453125 C34.14718052 46.52407472 34.87634575 48.90363245 35.60546875 51.28320312 C36.76228357 55.03424405 37.92141087 58.78455869 39.08203125 62.53442383 C40.19980861 66.15270527 41.30921118 69.77347756 42.41796875 73.39453125 C42.76794922 74.51548691 43.11792969 75.63644257 43.47851562 76.79136658 C43.79884766 77.83917801 44.11917969 78.88698944 44.44921875 79.96655273 C44.87557617 81.34410988 44.87557617 81.34410988 45.31054688 82.74949646 C45.91796875 85.3359375 45.91796875 85.3359375 45.91796875 90.3359375 C39.97796875 90.3359375 34.03796875 90.3359375 27.91796875 90.3359375 C27.94938965 93.07632324 27.94938965 93.07632324 27.98144531 95.87207031 C28.04596838 101.91096611 28.09191761 107.94978026 28.12521744 113.98892593 C28.14608485 117.65020261 28.17438581 121.31110608 28.21972656 124.97216797 C28.26321638 128.50592461 28.28711223 132.03932249 28.29747772 135.57332611 C28.30845612 137.57645002 28.33967751 139.57942976 28.37115479 141.58233643 C28.37160797 143.41378204 28.37160797 143.41378204 28.37207031 145.28222656 C28.38095276 146.35700256 28.38983521 147.43177856 28.39898682 148.53912354 C27.80104432 152.01577863 26.65047132 153.17919265 23.91796875 155.3359375 C21.91796875 155.8671875 21.91796875 155.8671875 19.91796875 155.8359375 C18.92796875 155.85140625 18.92796875 155.85140625 17.91796875 155.8671875 C14.97959802 155.08668277 13.82083625 153.6804582 11.91796875 151.3359375 C11.43695068 148.53912354 11.43695068 148.53912354 11.46386719 145.28222656 C11.46416931 144.06126282 11.46447144 142.84029907 11.46478271 141.58233643 C11.48542786 140.26868103 11.506073 138.95502563 11.52734375 137.6015625 C11.53480788 136.23965282 11.54050001 134.87773238 11.54449463 133.51580811 C11.55973783 129.93823382 11.59900694 126.36131328 11.64331055 122.78399658 C11.68429243 119.13082726 11.70251178 115.47755188 11.72265625 111.82421875 C11.76550365 104.6611609 11.8337376 97.49864094 11.91796875 90.3359375 C10.92796875 90.3359375 9.93796875 90.3359375 8.91796875 90.3359375 C8.92463058 91.06399094 8.93129242 91.79204437 8.93815613 92.54216003 C8.99833874 99.4129915 9.04397949 106.28378341 9.07340527 113.15481091 C9.08904218 116.68706216 9.11024376 120.21909509 9.14428711 123.7512207 C9.18320478 127.81463687 9.19769422 131.87782471 9.2109375 135.94140625 C9.22642136 137.2061528 9.24190521 138.47089935 9.25785828 139.77397156 C9.25808487 140.95481827 9.25831146 142.13566498 9.25854492 143.35229492 C9.26520676 144.38932053 9.27186859 145.42634613 9.2787323 146.49479675 C8.85988822 149.79334228 7.87231067 151.66892768 5.91796875 154.3359375 C2.7839599 155.90294192 -0.7135822 156.18758311 -4.08203125 155.3359375 C-7.65895837 151.67050421 -8.57893969 149.34381533 -8.53613281 144.26049805 C-8.53567963 142.45919685 -8.53567963 142.45919685 -8.53521729 140.62150574 C-8.51457214 139.33488541 -8.493927 138.04826508 -8.47265625 136.72265625 C-8.46518952 135.38459623 -8.45949863 134.04652522 -8.45550537 132.70845032 C-8.44028256 129.19828742 -8.40103134 125.68879376 -8.35668945 122.17889404 C-8.31566332 118.59266207 -8.2974788 115.00632123 -8.27734375 111.41992188 C-8.23453241 104.39162558 -8.16421095 97.36388264 -8.08203125 90.3359375 C-13.69203125 90.3359375 -19.30203125 90.3359375 -25.08203125 90.3359375 C-26.2916238 86.70715986 -25.75804321 85.52148531 -24.63500977 81.91821289 C-24.29458145 80.81018814 -23.95415314 79.70216339 -23.60340881 78.56056213 C-23.03788551 76.76521278 -23.03788551 76.76521278 -22.4609375 74.93359375 C-21.88230332 73.055604 -21.30367496 71.17761244 -20.72539425 69.29951382 C-19.91223222 66.66590635 -19.09127133 64.03475768 -18.2701416 61.40362549 C-16.83516388 56.8042769 -15.40601719 52.20314554 -13.98655701 47.59898376 C-13.22994565 45.14764004 -12.46778253 42.69800177 -11.69960022 40.2502594 C-11.35601974 39.13908249 -11.01243927 38.02790558 -10.65844727 36.88305664 C-10.35342789 35.90615372 -10.04840851 34.92925079 -9.73414612 33.92274475 C-8.919068 31.13411836 -8.919068 31.13411836 -9.08203125 27.3359375 C-9.31801025 27.96870605 -9.55398926 28.60147461 -9.79711914 29.25341797 C-12.14776466 35.55180377 -14.51016449 41.84566864 -16.88037109 48.13671875 C-17.97238632 51.04402625 -19.05361093 53.95510718 -20.1328125 56.8671875 C-20.74029851 58.48199175 -21.34833433 60.09658931 -21.95703125 61.7109375 C-22.23039307 62.45843262 -22.50375488 63.20592773 -22.78540039 63.97607422 C-24.16207681 67.59011613 -24.77647656 69.13223437 -28.08203125 71.3359375 C-31.7645941 71.2044174 -34.17951362 71.06923307 -37.08203125 68.7109375 C-39.7739356 62.31766466 -35.43320534 54.05389796 -33.2578125 47.9609375 C-32.87392868 46.8776416 -32.49004486 45.7943457 -32.0945282 44.67822266 C-31.28188414 42.39421849 -30.46554648 40.11152555 -29.64575195 37.83007812 C-28.40069426 34.35314824 -27.17948971 30.86842418 -25.95898438 27.3828125 C-25.16421448 25.15833412 -24.3680366 22.93435818 -23.5703125 20.7109375 C-23.21068924 19.67533691 -22.85106598 18.63973633 -22.48054504 17.57275391 C-19.96495444 10.67596522 -17.19564545 4.79469815 -10.7121582 0.91943359 C-7.13754618 0.12640262 -3.64360916 0.01100991 0 0 Z " fill="#F3DC78" transform="translate(132.08203125,44.6640625)"/>
<path d="M0 0 C1.06488647 -0.00524185 2.12977295 -0.0104837 3.22692871 -0.0158844 C5.47272878 -0.02229233 7.71856247 -0.02098358 9.96435547 -0.01245117 C13.39481446 -0.00393464 16.82361129 -0.03273212 20.25390625 -0.06445312 C22.44010367 -0.06606516 24.62630403 -0.06548757 26.8125 -0.0625 C28.34553772 -0.07935097 28.34553772 -0.07935097 29.9095459 -0.09654236 C35.71707252 -0.03986293 39.43130471 0.34017522 43.90625 4.43359375 C46.85677907 8.44188466 47.28813162 11.33682739 47.31030273 16.27172852 C47.31716599 16.93902985 47.32402924 17.60633118 47.33110046 18.29385376 C47.34932244 20.48778883 47.34553897 22.6810059 47.33984375 24.875 C47.34440683 26.40527071 47.34971278 27.93553937 47.35572815 29.46580505 C47.36464942 32.66763657 47.36224636 35.8692185 47.35229492 39.07104492 C47.34078863 43.17258067 47.36104615 47.27325758 47.39021206 51.37468052 C47.40856014 54.53258219 47.40828476 57.69027732 47.40257454 60.84821892 C47.40242125 62.36048528 47.40847226 63.87276557 47.42086601 65.38498116 C47.43575436 67.49882066 47.42511891 69.61106381 47.40795898 71.72485352 C47.40779282 72.92666763 47.40762665 74.12848175 47.40745544 75.36671448 C46.90625 78.43359375 46.90625 78.43359375 45.10145569 80.86070251 C42.90625 82.43359375 42.90625 82.43359375 39.28125 82.30859375 C35.90625 81.43359375 35.90625 81.43359375 33.90625 79.43359375 C33.89816315 80.28692795 33.89007629 81.14026215 33.88174438 82.01945496 C33.8037508 90.06775732 33.71644566 98.11589349 33.61872292 106.16398144 C33.56881194 110.30142563 33.52248152 114.43884493 33.484375 118.57641602 C33.4474564 122.57062422 33.40107876 126.56462156 33.34818649 130.55864906 C33.32967744 132.08120328 33.31455662 133.60380264 33.30290604 135.12642479 C33.28598355 137.26182955 33.25693504 139.39675505 33.22509766 141.53198242 C33.21177399 142.74665695 33.19845032 143.96133148 33.1847229 145.21281433 C32.81164374 149.52779683 31.98463652 152.35520723 28.90625 155.43359375 C23.99877531 156.10350299 19.39282966 156.49543637 15.28125 153.55859375 C13.90625 151.43359375 13.90625 151.43359375 12.90625 149.43359375 C12.431875 150.23796875 11.9575 151.04234375 11.46875 151.87109375 C9.90625 154.43359375 9.90625 154.43359375 8.90625 155.43359375 C6.54296875 155.671875 6.54296875 155.671875 3.59375 155.74609375 C2.14548828 155.80216797 2.14548828 155.80216797 0.66796875 155.859375 C-2.94750859 155.3019676 -3.87866828 154.32077509 -6.09375 151.43359375 C-6.61273193 148.14324951 -6.61273193 148.14324951 -6.63964844 144.18652344 C-6.64998611 143.46417511 -6.66032379 142.74182678 -6.67097473 141.99758911 C-6.70040662 139.61665489 -6.7019019 137.2365706 -6.703125 134.85546875 C-6.71810649 133.2020709 -6.73483357 131.54868803 -6.75323486 129.89532471 C-6.79692458 125.54865838 -6.81691093 121.20219393 -6.83197021 116.85534668 C-6.85153555 112.41776586 -6.89350617 107.98040324 -6.93359375 103.54296875 C-7.00891338 94.83990082 -7.05919406 86.13691853 -7.09375 77.43359375 C-7.9909375 78.65369141 -7.9909375 78.65369141 -8.90625 79.8984375 C-11.09375 82.43359375 -11.09375 82.43359375 -14.09375 82.99609375 C-17.80842849 82.29959153 -18.79702499 81.40046917 -21.09375 78.43359375 C-21.60168457 75.3734436 -21.60168457 75.3734436 -21.61132812 71.74072266 C-21.6183374 71.07677994 -21.62534668 70.41283722 -21.63256836 69.72877502 C-21.65014082 67.53880702 -21.63852725 65.35013691 -21.625 63.16015625 C-21.62769581 61.63324741 -21.63157898 60.10634024 -21.63659668 58.57943726 C-21.64249119 55.37994027 -21.63393324 52.18089028 -21.61523438 48.98144531 C-21.59248282 44.89012728 -21.60554305 40.79986108 -21.62952423 36.70858192 C-21.64401691 33.55486204 -21.63935982 30.40138915 -21.62901306 27.24766159 C-21.62635331 25.73985036 -21.62958902 24.23201636 -21.63893127 22.72423172 C-21.64915065 20.61064041 -21.63352295 18.49872144 -21.61132812 16.38525391 C-21.60814575 15.18486481 -21.60496338 13.98447571 -21.60168457 12.74771118 C-20.98839203 8.74616529 -19.5928033 6.5829164 -17.09375 3.43359375 C-11.80976546 -0.38558873 -6.26679738 -0.01800059 0 0 Z " fill="#BDE3F2" transform="translate(30.09375,44.56640625)"/>
<path d="M0 0 C5.13338231 3.04343117 9.35636337 7.3912307 11.45703125 13.046875 C12.80843834 19.80391044 12.61510249 25.05152689 9.30078125 31.1875 C5.71384871 36.56789881 1.725458 39.43182141 -4.54296875 41.046875 C-11.32655349 42.05652482 -16.96674037 41.13930012 -22.54296875 37.046875 C-27.85558826 32.06481848 -30.57858954 27.51471177 -30.85546875 20.171875 C-30.70154464 13.26581306 -28.41970269 8.05907377 -23.54296875 3.046875 C-16.96802174 -2.24166934 -7.90727223 -2.96370879 0 0 Z " fill="#F2DB78" transform="translate(151.54296875,0.953125)"/>
<path d="M0 0 C5.99608652 2.20283057 9.78739613 6.38447701 13.078125 11.76171875 C15.27589177 17.09782198 14.74910829 23.88793266 13.41796875 29.41796875 C10.98165582 35.16944722 6.38301241 38.13500813 1 41 C-4.68021484 42.89340495 -10.74101669 42.92131907 -16.25 40.4375 C-22.03732529 37.13380419 -25.92291853 32.30677463 -28 26 C-28.78811804 19.86917478 -28.52023799 14.21928295 -25.4140625 8.7890625 C-18.56168421 0.11947892 -10.53888745 -1.02846599 0 0 Z " fill="#BDE4F3" transform="translate(50,0)"/>
</svg>
