<?xml version="1.0" encoding="UTF-8"?>
<svg version="1.1" xmlns="http://www.w3.org/2000/svg" width="40" height="40">
<path d="M0 0 C4.88660121 2.70795954 7.82966918 5.42650753 9.625 10.8125 C10.35924739 17.69757392 9.76561216 22.21707816 5.625 27.8125 C0.8167324 32.49423424 -3.83661962 33.91185768 -10.4375 34 C-13.87619501 33.93794836 -17.01138647 33.54829046 -20.375 32.8125 C-21.365 33.3075 -21.365 33.3075 -22.375 33.8125 C-24.37460012 33.852492 -26.37547242 33.85596799 -28.375 33.8125 C-28.375 29.8125 -28.375 29.8125 -27.375 26.8125 C-27.849375 26.1525 -28.32375 25.4925 -28.8125 24.8125 C-31.42386987 19.79866985 -31.35783063 14.12569005 -29.75390625 8.71875 C-27.31434838 3.77457938 -23.20875468 1.21448898 -18.375 -1.1875 C-11.96852387 -3.32299204 -6.09649255 -2.88115722 0 0 Z M-26.375 8.8125 C-27.71967225 12.84651676 -27.82869389 16.59083989 -27.375 20.8125 C-26.0233633 23.06005753 -26.0233633 23.06005753 -24.375 24.8125 C-23.99552991 26.46927136 -23.6570889 28.13639895 -23.375 29.8125 C-10.22086515 31.60608829 -10.22086515 31.60608829 1.625 26.8125 C4.44778056 24.42399338 5.45185376 23.33193871 6.625 19.8125 C7.0073833 15.14742377 7.10436179 12.77122359 5 8.5625 C0.73755786 3.62704068 -3.55754376 1.05126748 -10.0625 0.5 C-16.5679585 0.58386411 -22.30952211 3.77130741 -26.375 8.8125 Z " fill="#515762" transform="translate(30.375,4.1875)"/>
<path d="M0 0 C5.28 0.33 10.56 0.66 16 1 C15.67 1.99 15.34 2.98 15 4 C9.26157749 4.20413361 4.39460953 4.27141454 -1 2 C-0.67 1.34 -0.34 0.68 0 0 Z " fill="#565C67" transform="translate(10,34)"/>
<path d="M0 0 C1.32 0.66 2.64 1.32 4 2 C3.34 3.32 2.68 4.64 2 6 C0.68 5.34 -0.64 4.68 -2 4 C-1.34 2.68 -0.68 1.36 0 0 Z " fill="#4E545E" transform="translate(19,17)"/>
<path d="M0 0 C0.99 0.33 1.98 0.66 3 1 C2.67 2.65 2.34 4.3 2 6 C0.68 5.67 -0.64 5.34 -2 5 C-2 3.68 -2 2.36 -2 1 C-1.34 0.67 -0.68 0.34 0 0 Z " fill="#515661" transform="translate(28,17)"/>
<path d="M0 0 C0.99 0.33 1.98 0.66 3 1 C3 2.32 3 3.64 3 5 C1.68 5.33 0.36 5.66 -1 6 C-1.33 4.35 -1.66 2.7 -2 1 C-1.34 0.67 -0.68 0.34 0 0 Z " fill="#515661" transform="translate(11,17)"/>
<path d="M0 0 C1.231394 3.69418201 0.64432764 6.2056261 0 10 C-0.66 9.67 -1.32 9.34 -2 9 C-2 6.36 -2 3.72 -2 1 C-1.34 0.67 -0.68 0.34 0 0 Z " fill="#666D7B" transform="translate(2,14)"/>
</svg>
