<?xml version="1.0" encoding="UTF-8"?>
<svg version="1.1" xmlns="http://www.w3.org/2000/svg" width="40" height="40">
<path d="M0 0 C1.875 1.0625 1.875 1.0625 3 3 C3.5 6.5 3.5 6.5 3 10 C0.875 12.0625 0.875 12.0625 -2 13 C-7.2 11.8 -7.2 11.8 -9 10 C-9.45985401 3.7919708 -9.45985401 3.7919708 -7.875 1.0625 C-5.11019567 -0.50422245 -3.11811483 -0.38976435 0 0 Z " fill="#E7E7E7" transform="translate(23,14)"/>
<path d="M0 0 C1.875 1.0625 1.875 1.0625 3 3 C3.4375 6.5 3.4375 6.5 3 10 C1.375 12 1.375 12 -1 13 C-4.125 12.875 -4.125 12.875 -7 12 C-9.31282587 8.53076119 -9.42478586 7.07794425 -9 3 C-6.79086995 -0.68188342 -4.01844539 -0.50230567 0 0 Z " fill="#E9E9E9" transform="translate(37,14)"/>
<path d="M0 0 C1.875 1.125 1.875 1.125 3 3 C3.42478586 7.07794425 3.31282587 8.53076119 1 12 C-2.30053834 13.00451167 -4.16403572 13.35198496 -7.375 12 C-9 10 -9 10 -9.4375 6.5 C-9 3 -9 3 -7.875 1.0625 C-5.11019567 -0.50422245 -3.11811483 -0.38976435 0 0 Z " fill="#EAEAEA" transform="translate(9,14)"/>
</svg>
