<?xml version="1.0" encoding="UTF-8"?>
<svg version="1.1" xmlns="http://www.w3.org/2000/svg" width="40" height="40">
<path d="M0 0 C3.24499591 2.16333061 3.87172124 3.44412537 4.75 7.25 C4.87375 8.61125 4.87375 8.61125 5 10 C6.093125 9.938125 7.18625 9.87625 8.3125 9.8125 C12 10 12 10 13.9375 11.125 C15.48724515 13.85984439 15.32162076 15.9124407 15 19 C14.34 19.99 13.68 20.98 13 22 C13.99 22.33 14.98 22.66 16 23 C18.53859104 28.07718207 17 34.32353788 17 40 C6.44 40 -4.12 40 -15 40 C-15.103125 37.009375 -15.20625 34.01875 -15.3125 30.9375 C-15.35802002 30.00929443 -15.40354004 29.08108887 -15.45043945 28.12475586 C-15.55519961 21.79926976 -14.12455667 18.78708388 -10 14 C-10.66 13.01 -11.32 12.02 -12 11 C-12.41857482 7.16306413 -12.54644269 4.88796936 -10.5 1.5625 C-6.98401025 -0.63499359 -4.04059653 -0.81309745 0 0 Z M-7.125 3.125 C-9.30208333 4.92708333 -9.30208333 4.92708333 -9.4375 8.0625 C-9.293125 9.031875 -9.14875 10.00125 -9 11 C-6.162422 13.35014158 -6.162422 13.35014158 -2.875 12.6875 C-0.11913578 12.29355679 -0.11913578 12.29355679 1 11 C1.41702122 8.0842309 1.41702122 8.0842309 1 5 C-1.82672086 2.17327914 -3.47090943 1.19048146 -7.125 3.125 Z M8 12 C6.35444301 13.22809091 6.35444301 13.22809091 5 15 C5.22757731 17.16299211 5.22757731 17.16299211 6 19 C7.65 19 9.3 19 11 19 C11.33 17.35 11.66 15.7 12 14 C10.68 13.34 9.36 12.68 8 12 Z M-12 21 C-13.18681726 24.56045177 -13.09689832 27.43808337 -13.0625 31.1875 C-13.05347656 32.45980469 -13.04445313 33.73210938 -13.03515625 35.04296875 C-13.02355469 36.01878906 -13.01195312 36.99460937 -13 38 C-8.71 38 -4.42 38 0 38 C0.12375 36.081875 0.2475 34.16375 0.375 32.1875 C0.75 26.375 0.75 26.375 3 23 C2.91428339 20.90708843 2.91428339 20.90708843 2 19 C-3.53186906 15.3120873 -7.43234965 16.43234965 -12 21 Z M4.8125 24.3125 C1.87593868 28.66671161 2.7540912 32.83591526 3 38 C6.96 38 10.92 38 15 38 C15.70066192 30.92972583 15.70066192 30.92972583 12.6875 24.875 C9.47277887 22.63217131 8.20750786 22.27549529 4.8125 24.3125 Z " fill="#5F6572" transform="translate(19,0)"/>
<path d="M0 0 C2.4375 1.625 2.4375 1.625 4 4 C4.39013716 5.9896995 4.73202649 7.99019869 5 10 C5.66 10.33 6.32 10.66 7 11 C7.33 11.66 7.66 12.32 8 13 C7.34 13 6.68 13 6 13 C5.67 13.66 5.34 14.32 5 15 C4.67 14.67 4.34 14.34 4 14 C3.67 14.66 3.34 15.32 3 16 C1.0625 15.6875 1.0625 15.6875 -1 15 C-1.33 14.01 -1.66 13.02 -2 12 C-1.34 11.67 -0.68 11.34 0 11 C0 9.02 0 7.04 0 5 C-2.32854463 3.80161791 -2.32854463 3.80161791 -5 3 C-8.22404978 4.66954819 -8.22404978 4.66954819 -8.6875 7.625 C-8.790625 8.40875 -8.89375 9.1925 -9 10 C-10.625 8.3125 -10.625 8.3125 -12 6 C-11.3125 3.3125 -11.3125 3.3125 -10 1 C-6.79729456 -0.60135272 -3.47536616 -0.48861584 0 0 Z " fill="#575D68" transform="translate(19,0)"/>
<path d="M0 0 C0.33 0 0.66 0 1 0 C1.185625 0.94875 1.37125 1.8975 1.5625 2.875 C2.036875 3.90625 2.51125 4.9375 3 6 C5.32206525 6.70491267 7.65593068 7.37212429 10 8 C11.4375 10.625 11.4375 10.625 12 13 C10.7625 12.938125 9.525 12.87625 8.25 12.8125 C5.38398499 12.8125 4.18570949 12.89737107 1.625 14.3125 C-0.20024334 16.10798342 -0.20024334 16.10798342 -2 19 C-2.66 18.67 -3.32 18.34 -4 18 C-2.7508258 14.54074837 -1.32472205 11.85306797 1 9 C0.34 8.01 -0.32 7.02 -1 6 C-1.1875 3.375 -1.1875 3.375 -1 1 C-0.67 0.67 -0.34 0.34 0 0 Z " fill="#5C626E" transform="translate(8,5)"/>
<path d="M0 0 C3.5 0.3125 3.5 0.3125 7 1 C8.35439668 3.70879335 8.06501451 6.00933268 8 9 C7.01 8.67 6.02 8.34 5 8 C4.690625 7.195625 4.38125 6.39125 4.0625 5.5625 C3.23391841 2.85842507 3.23391841 2.85842507 0.875 1.6875 C0.25625 1.460625 -0.3625 1.23375 -1 1 C-0.67 0.67 -0.34 0.34 0 0 Z " fill="#575D68" transform="translate(26,10)"/>
<path d="M0 0 C1.75 1.3125 1.75 1.3125 2.75 3.3125 C2.09 3.3125 1.43 3.3125 0.75 3.3125 C0.42 3.9725 0.09 4.6325 -0.25 5.3125 C-0.58 4.9825 -0.91 4.6525 -1.25 4.3125 C-1.58 4.9725 -1.91 5.6325 -2.25 6.3125 C-4.1875 6 -4.1875 6 -6.25 5.3125 C-6.58 4.3225 -6.91 3.3325 -7.25 2.3125 C-2.84459459 -0.86918168 -2.84459459 -0.86918168 0 0 Z " fill="#474C56" transform="translate(24.25,9.6875)"/>
<path d="M0 0 C0.99 0.33 1.98 0.66 3 1 C3 1.66 3 2.32 3 3 C2.01 3.66 1.02 4.32 0 5 C-0.72965366 7.56282742 -0.72965366 7.56282742 -1 10 C-2.625 8.3125 -2.625 8.3125 -4 6 C-3.3125 3.3125 -3.3125 3.3125 -2 1 C-1.34 0.67 -0.68 0.34 0 0 Z " fill="#484C56" transform="translate(11,0)"/>
<path d="M0 0 C0.33 0.66 0.66 1.32 1 2 C0.22265625 3.9453125 0.22265625 3.9453125 -0.9375 6.125 C-1.31777344 6.84945313 -1.69804687 7.57390625 -2.08984375 8.3203125 C-2.39019531 8.87460937 -2.69054687 9.42890625 -3 10 C-3.99 9.67 -4.98 9.34 -6 9 C-4.68775452 5.06326356 -3.08089673 2.77280706 0 0 Z " fill="#505560" transform="translate(10,14)"/>
</svg>
