<?xml version="1.0" encoding="UTF-8"?>
<svg version="1.1" xmlns="http://www.w3.org/2000/svg" width="40" height="40">
<path d="M0 0 C0.50471197 1.76949612 1.00360685 3.54065223 1.5 5.3125 C1.7784375 6.29863281 2.056875 7.28476563 2.34375 8.30078125 C3 11 3 11 3 14 C1.02 14.99 1.02 14.99 -1 16 C0.22992967 22.30338958 4.00869895 25.38297687 9 29 C11.77853916 30.43701723 11.77853916 30.43701723 14 31 C14.33 29.35 14.66 27.7 15 26 C16.77131561 26.30975468 18.54203778 26.62290425 20.3125 26.9375 C21.79169922 27.19853516 21.79169922 27.19853516 23.30078125 27.46484375 C26 28 26 28 29 29 C29.28027248 32.64354222 29.44312908 35.177046 27.6875 38.4375 C22.5980868 41.39646116 16.96053912 40.70489027 11.375 39.375 C2.72432573 36.34726401 -3.83458077 30.86317958 -8 22.6875 C-10.86341655 16.35417936 -11.72770928 10.94442566 -11 4 C-8.25863143 -0.71515394 -5.14350695 -0.39565438 0 0 Z " fill="#000000" transform="translate(11,0)"/>
</svg>
