<?xml version="1.0" encoding="UTF-8"?>
<svg version="1.1" xmlns="http://www.w3.org/2000/svg" width="40" height="40">
<path d="M0 0 C5.20772731 3.15567582 8.74203963 6.96034604 10.234375 12.9296875 C10.97152932 19.44407456 11.14510875 25.4007191 7.234375 30.9296875 C3.26293763 35.54514174 -0.40099547 38.59183612 -6.60546875 39.21484375 C-14.10494152 39.42805497 -18.66501661 38.59765286 -24.453125 33.6171875 C-29.51751179 27.7315488 -30.43467287 22.85972996 -30.2421875 15.1953125 C-29.26984443 8.53237148 -25.74966386 4.62438736 -20.765625 0.3671875 C-14.54378885 -2.60546755 -6.33133885 -2.45026391 0 0 Z M-21.546875 5.4765625 C-25.14463657 9.46231797 -27.77981415 13.33983312 -27.7578125 18.90625 C-27.38264565 23.26144783 -26.36060076 26.31928644 -23.765625 29.9296875 C-22.58230747 28.1547112 -21.43873888 26.35020756 -20.390625 24.4921875 C-18.75797996 21.91763186 -16.98974666 20.00042146 -14.765625 17.9296875 C-15.095625 17.2696875 -15.425625 16.6096875 -15.765625 15.9296875 C-16.21282997 10.67502911 -16.21282997 10.67502911 -14.640625 8.0546875 C-11.88471616 6.40114219 -9.91487048 6.53603182 -6.765625 6.9296875 C-4.890625 8.0546875 -4.890625 8.0546875 -3.765625 9.9296875 C-3.47962311 13.36171021 -3.67372458 15.65398625 -4.765625 18.9296875 C-3.816875 19.6309375 -2.868125 20.3321875 -1.890625 21.0546875 C1.23292126 23.62571968 2.30818796 25.94708323 3.234375 29.9296875 C6.3666665 27.36690355 7.34802523 24.84439898 8.234375 20.9296875 C8.34819275 15.2274182 6.88883665 11.39625174 3.234375 6.9296875 C-3.98161302 0.09348832 -13.77910246 -1.26913471 -21.546875 5.4765625 Z M-11.765625 8.9296875 C-12.425625 9.5896875 -13.085625 10.2496875 -13.765625 10.9296875 C-13.44363534 14.02895569 -13.44363534 14.02895569 -12.765625 16.9296875 C-10.785625 16.9296875 -8.805625 16.9296875 -6.765625 16.9296875 C-6.08761466 14.02895569 -6.08761466 14.02895569 -5.765625 10.9296875 C-6.425625 10.2696875 -7.085625 9.6096875 -7.765625 8.9296875 C-9.085625 8.9296875 -10.405625 8.9296875 -11.765625 8.9296875 Z M-16.765625 22.9296875 C-19.73370092 26.59031447 -20.08982572 29.28281047 -19.765625 33.9296875 C-13.18658952 36.82259672 -8.59446062 37.29740218 -1.765625 34.9296875 C-1.105625 34.5996875 -0.445625 34.2696875 0.234375 33.9296875 C0.14913846 27.63382434 0.14913846 27.63382434 -3.015625 22.4296875 C-8.53678586 19.41814521 -11.38354332 19.41963423 -16.765625 22.9296875 Z " fill="#555B66" transform="translate(29.765625,1.0703125)"/>
<path d="M0 0 C5.26045928 3.15974782 8.35963034 7.07673248 10.2421875 12.921875 C10.2421875 13.581875 10.2421875 14.241875 10.2421875 14.921875 C9.5821875 14.921875 8.9221875 14.921875 8.2421875 14.921875 C7.9121875 15.581875 7.5821875 16.241875 7.2421875 16.921875 C6.8709375 15.705 6.4996875 14.488125 6.1171875 13.234375 C3.99783312 7.61261338 0.80523855 5.14768202 -4.6328125 2.546875 C-10.10091566 1.45325437 -14.12725168 2.01252377 -19.0078125 4.734375 C-21.44581788 6.67369746 -23.63979885 8.64093722 -25.7578125 10.921875 C-26.4178125 10.591875 -27.0778125 10.261875 -27.7578125 9.921875 C-26.08965857 4.92592421 -23.99912645 2.84591673 -19.5859375 0.10546875 C-13.30123826 -2.52472997 -6.33397215 -2.47617042 0 0 Z " fill="#515661" transform="translate(29.7578125,1.078125)"/>
<path d="M0 0 C0.66 0 1.32 0 2 0 C2.3238762 6.06967993 2.52214307 10.77751201 -1 16 C-3.6875 18.875 -3.6875 18.875 -6 21 C-6.99 20.67 -7.98 20.34 -9 20 C-8.34 18.68 -7.68 17.36 -7 16 C-6.01 16 -5.02 16 -4 16 C-2.68 10.72 -1.36 5.44 0 0 Z " fill="#5A606C" transform="translate(38,16)"/>
<path d="M0 0 C0.66 0.33 1.32 0.66 2 1 C0.65515549 5.03453354 -1.48129471 5.72319069 -5 8 C-6.36886951 9.29682374 -7.7169291 10.61823134 -9 12 C-9.66 11.67 -10.32 11.34 -11 11 C-9.6717914 6.71616238 -8.17477484 5.0216474 -4.375 2.6875 C-3.55773437 2.17574219 -2.74046875 1.66398437 -1.8984375 1.13671875 C-1.27195312 0.76160156 -0.64546875 0.38648437 0 0 Z " fill="#4E545E" transform="translate(13,0)"/>
<path d="M0 0 C1.20220203 3.53094302 0.79532349 6.12898982 0.0625 9.75 C-0.13214844 10.73484375 -0.32679687 11.7196875 -0.52734375 12.734375 C-0.68332031 13.48203125 -0.83929688 14.2296875 -1 15 C-1.66 14.67 -2.32 14.34 -3 14 C-3.08114106 12.22992286 -3.13925505 10.45877902 -3.1875 8.6875 C-3.22230469 7.70136719 -3.25710937 6.71523438 -3.29296875 5.69921875 C-3 3 -3 3 -1.48828125 1.14453125 C-0.99714844 0.76683594 -0.50601562 0.38914062 0 0 Z " fill="#5E6470" transform="translate(3,10)"/>
<path d="M0 0 C2.8203125 -0.29296875 2.8203125 -0.29296875 6.125 -0.1875 C7.76855469 -0.14689453 7.76855469 -0.14689453 9.4453125 -0.10546875 C10.28835937 -0.07066406 11.13140625 -0.03585937 12 0 C12.33 0.99 12.66 1.98 13 3 C8.05 3 3.1 3 -2 3 C-1.34 2.01 -0.68 1.02 0 0 Z " fill="#5B616D" transform="translate(15,0)"/>
<path d="M0 0 C5.41139241 -0.36075949 5.41139241 -0.36075949 7.9375 1.1875 C9 3 9 3 8.8125 5.625 C8 8 8 8 6 9 C5.34 7.02 4.68 5.04 4 3 C2.35 2.67 0.7 2.34 -1 2 C-0.67 1.34 -0.34 0.68 0 0 Z " fill="#5B616E" transform="translate(18,8)"/>
<path d="M0 0 C0.66 0 1.32 0 2 0 C2.05395478 1.62463842 2.09277195 3.24978541 2.125 4.875 C2.14820313 5.77992187 2.17140625 6.68484375 2.1953125 7.6171875 C2 10 2 10 0 12 C-0.33 11.67 -0.66 11.34 -1 11 C-0.91015699 9.14227838 -0.75388139 7.28752015 -0.5625 5.4375 C-0.46066406 4.42558594 -0.35882813 3.41367187 -0.25390625 2.37109375 C-0.17011719 1.58863281 -0.08632813 0.80617188 0 0 Z " fill="#626875" transform="translate(38,16)"/>
<path d="M0 0 C0.94875 0.04125 1.8975 0.0825 2.875 0.125 C2.875 0.455 2.875 0.785 2.875 1.125 C1.225 1.455 -0.425 1.785 -2.125 2.125 C-2.785 4.435 -3.445 6.745 -4.125 9.125 C-5.115 8.135 -6.105 7.145 -7.125 6.125 C-4.34782609 0.17391304 -4.34782609 0.17391304 0 0 Z " fill="#454A53" transform="translate(20.125,6.875)"/>
<path d="M0 0 C0.33 0.66 0.66 1.32 1 2 C-1.31 2.66 -3.62 3.32 -6 4 C-6 3.34 -6 2.68 -6 2 C-6.99 1.67 -7.98 1.34 -9 1 C-2.25 -1.125 -2.25 -1.125 0 0 Z " fill="#4D525D" transform="translate(30,36)"/>
</svg>
