<svg width="176" height="176" viewBox="0 0 14 14" xmlns="http://www.w3.org/2000/svg"><rect x="0" y="0" width="14" height="14" rx="8" fill="none"/><svg xmlns="http://www.w3.org/2000/svg" viewBox="0 0 14 14" fill="#000000" x="0" y="0" width="14" height="14"><g fill="none" stroke="#000000" stroke-linecap="round" stroke-linejoin="round"><path d="M7.202 4.722a1.332 1.332 0 0 0-1.258-.889H4.912a1.19 1.19 0 0 0-.254 2.353l1.571.344a1.334 1.334 0 0 1-.285 2.637h-.888a1.334 1.334 0 0 1-1.258-.89M5.5 3.833V2.5m0 8V9.167"/><path d="M12 .5H2.5a2 2 0 0 0-2 2v11L3 12l2.5 1.5L8 12l2.5 1.5V2a1.5 1.5 0 1 1 3 0v3.5h-3"/></g></svg></svg>