<?xml version="1.0" encoding="UTF-8"?>
<svg version="1.1" xmlns="http://www.w3.org/2000/svg" width="40" height="40">
<path d="M0 0 C13.2 0 26.4 0 40 0 C40 13.2 40 26.4 40 40 C26.8 40 13.6 40 0 40 C0 26.8 0 13.6 0 0 Z " fill="#F9F9FA" transform="translate(0,0)"/>
<path d="M0 0 C13.2 0 26.4 0 40 0 C40 13.2 40 26.4 40 40 C26.8 40 13.6 40 0 40 C0 26.8 0 13.6 0 0 Z M5.1875 9.125 C1.10836769 14.48614533 1.38640924 19.40605991 2 26 C4.47495957 31.2354914 8.78458462 35.39229231 14 38 C19.50158755 38.50239048 24.38795569 38.76205731 29.4375 36.375 C35.54471646 30.85084414 35.54471646 30.85084414 38.23828125 23.390625 C38.44504245 14.96453247 38.44504245 14.96453247 34 8 C28.27274418 2.65261319 24.74817647 1.63913251 16.98046875 1.72265625 C11.48793426 2.2337571 8.63312043 5.15377645 5.1875 9.125 Z " fill="#878D98" transform="translate(0,0)"/>
<path d="M0 0 C4.00364637 1.2984799 5.59522794 2.61145755 8 6 C8.99 6.33 9.98 6.66 11 7 C11.625 8.8125 11.625 8.8125 12 11 C12.185625 11.7425 12.37125 12.485 12.5625 13.25 C12.7790625 14.11625 12.7790625 14.11625 13 15 C12.34 15 11.68 15 11 15 C10.34 14.01 9.68 13.02 9 12 C6.69 12.33 4.38 12.66 2 13 C2 14.98 2 16.96 2 19 C1.34 19 0.68 19 0 19 C0 17.68 0 16.36 0 15 C-0.66 15 -1.32 15 -2 15 C-1.85930804 12.87465341 -1.71229079 10.74972471 -1.5625 8.625 C-1.48128906 7.44164062 -1.40007813 6.25828125 -1.31640625 5.0390625 C-1 2 -1 2 0 0 Z " fill="#8A909B" transform="translate(13,11)"/>
<path d="M0 0 C0.33 0 0.66 0 1 0 C1 5.28 1 10.56 1 16 C-4.28 16 -9.56 16 -15 16 C-12 14 -12 14 -8.5625 12.3125 C-3.58897782 9.51555095 -1.77782125 5.33346374 0 0 Z " fill="#F7F7F8" transform="translate(39,24)"/>
<path d="M0 0 C2 3 2 3 3.75 6.4375 C5.82388348 10.11922573 8.32183791 11.88701327 12 14 C12.99 14.66 13.98 15.32 15 16 C10.05 16 5.1 16 0 16 C0 10.72 0 5.44 0 0 Z " fill="#F8F9F9" transform="translate(0,24)"/>
<path d="M0 0 C5.28 0 10.56 0 16 0 C16 4.95 16 9.9 16 15 C14.97430056 13.46145084 13.95234814 11.91751827 13.02734375 10.31640625 C9.70683803 4.97265332 5.84983619 3.05190333 0 1 C0 0.67 0 0.34 0 0 Z " fill="#F8F9F9" transform="translate(24,0)"/>
<path d="M0 0 C4.95 0 9.9 0 15 0 C13.45620382 1.02919745 11.9083859 2.05484092 10.31640625 3.0078125 C5.34809679 6.17248178 3.16849931 9.57201726 1 15 C0.67 15 0.34 15 0 15 C0 10.05 0 5.1 0 0 Z " fill="#FAFAFA" transform="translate(0,0)"/>
<path d="M0 0 C2.62187494 1.04874998 3.79371361 1.64931313 5.25 4.125 C5.4975 4.74375 5.745 5.3625 6 6 C3 8 3 8 0 8 C0 5.36 0 2.72 0 0 Z " fill="#EFEFF1" transform="translate(14,14)"/>
<path d="M0 0 C0.66 0 1.32 0 2 0 C2 0.66 2 1.32 2 2 C3.32 2 4.64 2 6 2 C6 2.66 6 3.32 6 4 C5.34 4 4.68 4 4 4 C3.67 5.32 3.34 6.64 3 8 C1.68 7.01 0.36 6.02 -1 5 C-0.67 3.35 -0.34 1.7 0 0 Z " fill="#8D929D" transform="translate(26,11)"/>
</svg>
