<?xml version="1.0" encoding="UTF-8"?>
<svg version="1.1" xmlns="http://www.w3.org/2000/svg" width="40" height="40">
<path d="M0 0 C4.47870656 2.15937638 7.18198188 4.92952939 10 9 C11.79750058 14.39250175 11.76681926 19.81246104 9.5 25.0625 C9.005 26.031875 8.51 27.00125 8 28 C8.97453125 28.92232422 8.97453125 28.92232422 9.96875 29.86328125 C10.8040625 30.67152344 11.639375 31.47976562 12.5 32.3125 C13.3353125 33.11300781 14.170625 33.91351563 15.03125 34.73828125 C17 37 17 37 17 40 C14.75 40.25390625 14.75 40.25390625 12 40 C9.75571201 38.05750073 7.98006842 35.91399199 6.0625 33.65234375 C4.11892364 31.70199221 4.11892364 31.70199221 1.5546875 32.234375 C0.71164063 32.48703125 -0.13140625 32.7396875 -1 33 C-7.88062197 33.67478769 -12.43079315 33.23259721 -18 29 C-22.11378919 23.6953771 -23.55025047 19.71305576 -23 13 C-19.05513667 1.50844161 -11.44717566 -1.07879142 0 0 Z M-16.3125 9.125 C-18.66352345 13.13044736 -18.93445961 16.46347812 -18 21 C-15.93668868 24.8493397 -13.04300459 27.37678626 -9 29 C-4.98027753 29.41658942 -1.39380781 29.05258515 1.8828125 26.578125 C5.11952013 23.04432827 7.10264888 19.9271462 7 15 C5.75250344 10.74383526 4.5783025 8.51258631 1.25 5.5625 C-5.96680727 2.09288112 -10.73752769 4.00205248 -16.3125 9.125 Z " fill="#5C626E" transform="translate(23,0)"/>
</svg>
