<?xml version="1.0" encoding="UTF-8"?>
<svg version="1.1" xmlns="http://www.w3.org/2000/svg" width="40" height="40">
<path d="M0 0 C1.98 0 3.96 0 6 0 C6.33 0.66 6.66 1.32 7 2 C7.763125 1.79375 8.52625 1.5875 9.3125 1.375 C12 1 12 1 15 3 C15.12375 3.66 15.2475 4.32 15.375 5 C15.58125 5.66 15.7875 6.32 16 7 C16.825 7.33 17.65 7.66 18.5 8 C21 9 21 9 21.875 10.9375 C22 13 22 13 21 16 C21.66 16.33 22.32 16.66 23 17 C23 18.98 23 20.96 23 23 C22.01 23.495 22.01 23.495 21 24 C21.20625 24.763125 21.4125 25.52625 21.625 26.3125 C22 29 22 29 20 32 C19.34 32.12375 18.68 32.2475 18 32.375 C17.34 32.58125 16.68 32.7875 16 33 C15.67 33.825 15.34 34.65 15 35.5 C14 38 14 38 12.0625 38.875 C10 39 10 39 7 38 C6.67 38.66 6.34 39.32 6 40 C4.02 40 2.04 40 0 40 C-0.33 39.34 -0.66 38.68 -1 38 C-1.763125 38.20625 -2.52625 38.4125 -3.3125 38.625 C-6 39 -6 39 -9 37 C-9.1875 34.375 -9.1875 34.375 -9 32 C-10.65 32 -12.3 32 -14 32 C-16.125 27.375 -16.125 27.375 -15 24 C-15.66 23.67 -16.32 23.34 -17 23 C-17 21.02 -17 19.04 -17 17 C-16.34 16.67 -15.68 16.34 -15 16 C-15.20625 15.236875 -15.4125 14.47375 -15.625 13.6875 C-16 11 -16 11 -14 8 C-13.34 7.87625 -12.68 7.7525 -12 7.625 C-11.01 7.315625 -11.01 7.315625 -10 7 C-9.67 6.175 -9.34 5.35 -9 4.5 C-8 2 -8 2 -6.0625 1.125 C-4 1 -4 1 -1 2 C-0.67 1.34 -0.34 0.68 0 0 Z M2 2 C1.3503125 2.7734375 1.3503125 2.7734375 0.6875 3.5625 C0.130625 4.036875 -0.42625 4.51125 -1 5 C-3.6875 4.6875 -3.6875 4.6875 -6 4 C-6.226875 4.78375 -6.45375 5.5675 -6.6875 6.375 C-8 9 -8 9 -10.625 10.3125 C-11.800625 10.6528125 -11.800625 10.6528125 -13 11 C-12.773125 11.763125 -12.54625 12.52625 -12.3125 13.3125 C-12.209375 14.199375 -12.10625 15.08625 -12 16 C-13.4375 17.6875 -13.4375 17.6875 -15 19 C-15 19.66 -15 20.32 -15 21 C-14.2265625 21.6496875 -14.2265625 21.6496875 -13.4375 22.3125 C-12.963125 22.869375 -12.48875 23.42625 -12 24 C-12.3125 26.6875 -12.3125 26.6875 -13 29 C-12.21625 29.226875 -11.4325 29.45375 -10.625 29.6875 C-8 31 -8 31 -6.6875 33.625 C-6.460625 34.40875 -6.23375 35.1925 -6 36 C-5.236875 35.773125 -4.47375 35.54625 -3.6875 35.3125 C-2.3571875 35.1578125 -2.3571875 35.1578125 -1 35 C0.6875 36.4375 0.6875 36.4375 2 38 C2.66 38 3.32 38 4 38 C4.6496875 37.2265625 4.6496875 37.2265625 5.3125 36.4375 C5.869375 35.963125 6.42625 35.48875 7 35 C9.6875 35.3125 9.6875 35.3125 12 36 C12.226875 35.21625 12.45375 34.4325 12.6875 33.625 C14 31 14 31 16.625 29.6875 C17.40875 29.460625 18.1925 29.23375 19 29 C18.773125 28.236875 18.54625 27.47375 18.3125 26.6875 C18.1578125 25.3571875 18.1578125 25.3571875 18 24 C19.4375 22.3125 19.4375 22.3125 21 21 C21 20.34 21 19.68 21 19 C20.2265625 18.3503125 20.2265625 18.3503125 19.4375 17.6875 C18.963125 17.130625 18.48875 16.57375 18 16 C18.3125 13.3125 18.3125 13.3125 19 11 C18.21625 10.773125 17.4325 10.54625 16.625 10.3125 C14 9 14 9 12.6875 6.375 C12.460625 5.59125 12.23375 4.8075 12 4 C11.236875 4.226875 10.47375 4.45375 9.6875 4.6875 C8.800625 4.790625 7.91375 4.89375 7 5 C5.3125 3.5625 5.3125 3.5625 4 2 C3.34 2 2.68 2 2 2 Z " fill="#515661" transform="translate(17,0)"/>
<path d="M0 0 C2.93423195 1.79646854 4.47205355 2.9441071 6 6 C6.53118252 10.91996928 6.75105553 14.77327597 4.125 19.0625 C0.38214851 22.47509989 -2.60769925 22.32843064 -7.515625 22.29296875 C-10.97198834 21.88537873 -12.68663869 20.53723498 -15 18 C-16.84862688 14.30274625 -16.47587094 10.03538558 -16 6 C-11.95766104 -0.60248696 -7.2842127 -0.85898735 0 0 Z M-13 6 C-14.42662219 8.85324437 -14.31033868 10.83454549 -14 14 C-12.20006226 16.69990662 -10.916227 18.5418865 -8 20 C-4.12785818 20.43023798 -2.47503629 20.31669086 0.8125 18.125 C3.39266816 15.61855093 3.91717964 14.74538327 4.3125 11.1875 C3.92835642 7.2692355 2.70743683 5.78706733 0 3 C-5.2981842 0.3509079 -9.0084938 2.12253683 -13 6 Z " fill="#555B66" transform="translate(25,9)"/>
<path d="M0 0 C0.33 0.99 0.66 1.98 1 3 C1.99 3.33 2.98 3.66 4 4 C3.67 5.65 3.34 7.3 3 9 C2.01 9.33 1.02 9.66 0 10 C0 10.66 0 11.32 0 12 C0.99 12.33 1.98 12.66 3 13 C3.33 14.65 3.66 16.3 4 18 C2.35 18.66 0.7 19.32 -1 20 C-0.67 18.35 -0.34 16.7 0 15 C-0.66 14.67 -1.32 14.34 -2 14 C-2 12.02 -2 10.04 -2 8 C-1.34 7.67 -0.68 7.34 0 7 C-0.2784375 5.824375 -0.2784375 5.824375 -0.5625 4.625 C-1 2 -1 2 0 0 Z " fill="#4F545F" transform="translate(2,9)"/>
<path d="M0 0 C0.33 0 0.66 0 1 0 C1.09796875 0.61488281 1.1959375 1.22976562 1.296875 1.86328125 C2.13839217 6.83089791 2.13839217 6.83089791 4.75 11 C7.48285323 12.21460144 10.03736091 12.66333647 13 13 C13 13.66 13 14.32 13 15 C5.76813075 15.49029622 5.76813075 15.49029622 2.0625 13.125 C-0.70248229 10.27623037 -1.13900209 8.79507492 -1.125 4.9375 C-1 1 -1 1 0 0 Z " fill="#595F6A" transform="translate(10,16)"/>
<path d="M0 0 C2.475 0.495 2.475 0.495 5 1 C5 1.66 5 2.32 5 3 C5.66 3 6.32 3 7 3 C7.33 2.01 7.66 1.02 8 0 C9.32 0.33 10.64 0.66 12 1 C10.875 3 10.875 3 9 5 C5.8125 5.25 5.8125 5.25 3 5 C2.87625 4.360625 2.7525 3.72125 2.625 3.0625 C2.315625 2.0415625 2.315625 2.0415625 2 1 C1.34 0.67 0.68 0.34 0 0 Z " fill="#595F6B" transform="translate(14,35)"/>
<path d="M0 0 C1.98 0 3.96 0 6 0 C6.66 1.65 7.32 3.3 8 5 C6.68 4.67 5.36 4.34 4 4 C4 3.34 4 2.68 4 2 C3.34 2 2.68 2 2 2 C1.67 2.99 1.34 3.98 1 5 C0.01 4.67 -0.98 4.34 -2 4 C-1.34 2.68 -0.68 1.36 0 0 Z " fill="#595E6A" transform="translate(17,0)"/>
<path d="M0 0 C-1.26117725 3.88862987 -2.45264167 5.89375599 -6 8 C-6.66 8 -7.32 8 -8 8 C-8 5 -8 5 -5.6875 2.3125 C-3 0 -3 0 0 0 Z " fill="#4B505A" transform="translate(31,23)"/>
<path d="M0 0 C0.99 0.33 1.98 0.66 3 1 C2.07347299 2.17539996 1.13336613 3.34010577 0.1875 4.5 C-0.33457031 5.1496875 -0.85664063 5.799375 -1.39453125 6.46875 C-3 8 -3 8 -6 8 C-4.75237172 4.15314615 -3.6129609 1.97070595 0 0 Z " fill="#4B505A" transform="translate(15,9)"/>
<path d="M0 0 C0.33 0.66 0.66 1.32 1 2 C3.02463255 2.65213292 3.02463255 2.65213292 5 3 C5 4.98 5 6.96 5 9 C4.01 8.67 3.02 8.34 2 8 C2.33 7.01 2.66 6.02 3 5 C2.01 4.67 1.02 4.34 0 4 C0 2.68 0 1.36 0 0 Z " fill="#5B616D" transform="translate(35,14)"/>
<path d="M0 0 C1.32 0.66 2.64 1.32 4 2 C2.1875 3.5625 2.1875 3.5625 0 5 C-0.99 4.67 -1.98 4.34 -3 4 C-3 3.34 -3 2.68 -3 2 C-2.01 1.34 -1.02 0.68 0 0 Z " fill="#424750" transform="translate(27,1)"/>
<path d="M0 0 C0.99 0.33 1.98 0.66 3 1 C3 1.66 3 2.32 3 3 C1.35 3.66 -0.3 4.32 -2 5 C-2.66 4.34 -3.32 3.68 -4 3 C-2.1875 1.4375 -2.1875 1.4375 0 0 Z " fill="#40444D" transform="translate(13,34)"/>
<path d="M0 0 C0.33 0.99 0.66 1.98 1 3 C1.99 3.33 2.98 3.66 4 4 C3.67 4.99 3.34 5.98 3 7 C2.34 7 1.68 7 1 7 C-0.0625 4.625 -0.0625 4.625 -1 2 C-0.67 1.34 -0.34 0.68 0 0 Z " fill="#40444D" transform="translate(2,9)"/>
<path d="M0 0 C2.625 0.9375 2.625 0.9375 5 2 C5 2.99 5 3.98 5 5 C3.68 4.67 2.36 4.34 1 4 C1 3.34 1 2.68 1 2 C0.01 1.67 -0.98 1.34 -2 1 C-1.34 0.67 -0.68 0.34 0 0 Z " fill="#464B54" transform="translate(11,1)"/>
</svg>
