<?xml version="1.0" encoding="UTF-8"?>
<svg version="1.1" xmlns="http://www.w3.org/2000/svg" width="40" height="40">
<path d="M0 0 C2.85778973 -0.24218557 5.19617643 -0.42974492 8 0 C10.625 2.3125 10.625 2.3125 13 5 C14.96879323 6.06011943 16.96435867 7.07470849 19 8 C20 9 20 9 20.1484375 12.13671875 C20.00443323 15.88461945 19.46719324 19.16438571 18.625 22.8125 C17.3232306 28.52582127 16.1302664 34.25073095 15 40 C11.47923768 40.05855176 7.9586024 40.0937806 4.4375 40.125 C2.9515332 40.15013672 2.9515332 40.15013672 1.43554688 40.17578125 C-4.10999539 40.21262871 -8.79858384 39.99678526 -14 38 C-16 36 -16 36 -16.3125 32.6875 C-16.20369893 27.70078412 -14.9257708 23.02237331 -13.7265625 18.203125 C-13.08577176 15.37813358 -12.68837839 12.69295555 -12.4375 9.8125 C-12 6 -12 6 -10 4 C-6.875 3.875 -6.875 3.875 -4 4 C-4 3.34 -4 2.68 -4 2 C-2.68 2 -1.36 2 0 2 C0 1.34 0 0.68 0 0 Z " fill="#CFD3E8" transform="translate(18,0)"/>
<path d="M0 0 C0.94875 0.04125 1.8975 0.0825 2.875 0.125 C2.875 0.785 2.875 1.445 2.875 2.125 C1.555 2.455 0.235 2.785 -1.125 3.125 C-1.32996094 4.25679687 -1.53492188 5.38859375 -1.74609375 6.5546875 C-2.01806972 8.03648761 -2.29021387 9.51825685 -2.5625 11 C-2.69720703 11.74636719 -2.83191406 12.49273437 -2.97070312 13.26171875 C-4.01171875 18.8984375 -4.01171875 18.8984375 -5.125 21.125 C-5.1939472 22.49842831 -5.20967708 23.87502102 -5.1875 25.25 C-5.166875 26.52875 -5.14625 27.8075 -5.125 29.125 C0.97685129 30.45531352 7.37564752 31.60375863 13.296875 29.1015625 C17.11059468 26.58228052 19.23766868 24.28338863 20.375 19.8125 C20.59390081 18.25645808 20.75939387 16.69210537 20.875 15.125 C20.94332031 14.29742187 21.01164062 13.46984375 21.08203125 12.6171875 C21.24627745 9.35167323 21.24627745 9.35167323 20.875 6.125 C19.885 5.465 18.895 4.805 17.875 4.125 C17.875 3.465 17.875 2.805 17.875 2.125 C24.625 2.875 24.625 2.875 26.875 5.125 C27.1939224 9.96198979 26.58606057 14.23302971 25.5 18.9375 C24.1982306 24.65082127 23.0052664 30.37573095 21.875 36.125 C18.35423768 36.18355176 14.8336024 36.2187806 11.3125 36.25 C9.8265332 36.27513672 9.8265332 36.27513672 8.31054688 36.30078125 C2.76500461 36.33762871 -1.92358384 36.12178526 -7.125 34.125 C-9.125 32.125 -9.125 32.125 -9.4375 28.8125 C-9.32869893 23.82578412 -8.0507708 19.14737331 -6.8515625 14.328125 C-6.21077176 11.50313358 -5.81337839 8.81795555 -5.5625 5.9375 C-5.02977972 1.29522327 -4.75088495 0.1900354 0 0 Z " fill="#D98D64" transform="translate(11.125,3.875)"/>
<path d="M0 0 C6.75 0.75 6.75 0.75 9 3 C9.3308834 7.90910651 8.67551634 12.22840842 7.5625 17 C6.72004606 20.64656394 5.99264478 24.08065946 5.65234375 27.8125 C5 31 5 31 3.21875 32.421875 C0.88750719 33.02931151 -1.09147413 33.26649675 -3.5 33.25 C-4.2528125 33.25515625 -5.005625 33.2603125 -5.78125 33.265625 C-8.2296721 32.97250404 -9.87304054 32.21816769 -12 31 C-8.04 30.505 -8.04 30.505 -4 30 C-3.67 29.01 -3.34 28.02 -3 27 C-2.360625 26.484375 -1.72125 25.96875 -1.0625 25.4375 C3.38383786 20.18273708 3.20918067 12.45067869 3.36328125 5.8125 C3.13825216 3.58169156 3.13825216 3.58169156 0 2 C0 1.34 0 0.68 0 0 Z " fill="#E79E5A" transform="translate(29,6)"/>
<path d="M0 0 C1.45599609 0.16048828 1.45599609 0.16048828 2.94140625 0.32421875 C4.39353516 0.47310547 4.39353516 0.47310547 5.875 0.625 C8.50390625 1.01171875 8.50390625 1.01171875 11.50390625 2.01171875 C11.17390625 4.65171875 10.84390625 7.29171875 10.50390625 10.01171875 C6.09475842 11.11400571 2.02008224 11.08826411 -2.49609375 11.01171875 C-2.49609375 10.02171875 -2.49609375 9.03171875 -2.49609375 8.01171875 C-3.48609375 8.67171875 -4.47609375 9.33171875 -5.49609375 10.01171875 C-6.81609375 10.01171875 -8.13609375 10.01171875 -9.49609375 10.01171875 C-9.16609375 7.04171875 -8.83609375 4.07171875 -8.49609375 1.01171875 C-6.51609375 1.50671875 -6.51609375 1.50671875 -4.49609375 2.01171875 C-2.49609375 0.01171875 -2.49609375 0.01171875 0 0 Z " fill="#B1B0EC" transform="translate(17.49609375,17.98828125)"/>
<path d="M0 0 C7.10993658 -0.7230444 7.10993658 -0.7230444 9.64453125 1.3359375 C11 3 11 3 13 6 C12.34 6 11.68 6 11 6 C10.67 6.99 10.34 7.98 10 9 C7.8537974 8.85970581 5.70803782 8.71261836 3.5625 8.5625 C2.36753906 8.48128906 1.17257813 8.40007813 -0.05859375 8.31640625 C-3 8 -3 8 -4 7 C-4.04063832 5.33382885 -4.042721 3.66611905 -4 2 C-2.68 2 -1.36 2 0 2 C0 1.34 0 0.68 0 0 Z " fill="#A584ED" transform="translate(18,0)"/>
<path d="M0 0 C0.94875 0.04125 1.8975 0.0825 2.875 0.125 C2.875 0.785 2.875 1.445 2.875 2.125 C1.555 2.455 0.235 2.785 -1.125 3.125 C-1.32996094 4.25679687 -1.53492188 5.38859375 -1.74609375 6.5546875 C-2.01806972 8.03648761 -2.29021387 9.51825685 -2.5625 11 C-2.69720703 11.74636719 -2.83191406 12.49273437 -2.97070312 13.26171875 C-4.01171875 18.8984375 -4.01171875 18.8984375 -5.125 21.125 C-5.1939472 22.49842831 -5.20967708 23.87502102 -5.1875 25.25 C-5.166875 26.52875 -5.14625 27.8075 -5.125 29.125 C-3.475 29.455 -1.825 29.785 -0.125 30.125 C-2.77238916 31.5856285 -4.01948334 32.125 -7.125 32.125 C-7.125 31.465 -7.125 30.805 -7.125 30.125 C-7.785 30.125 -8.445 30.125 -9.125 30.125 C-8.67145264 24.40791619 -7.94269532 18.94150565 -6.59375 13.3671875 C-5.94319747 10.25537791 -5.69224109 7.14064245 -5.46875 3.97265625 C-4.81311821 0.44863541 -3.3964314 0.13585726 0 0 Z " fill="#E5A879" transform="translate(11.125,3.875)"/>
<path d="M0 0 C1.75 0.875 1.75 0.875 2.75 1.875 C3.34754554 8.10059073 2.33869469 13.87484057 0.75 19.875 C0.09 19.875 -0.57 19.875 -1.25 19.875 C-2.16058531 16.80177456 -2.33886184 14.07402639 -2.25 10.875 C-1.59 10.875 -0.93 10.875 -0.25 10.875 C-0.58 9.225 -0.91 7.575 -1.25 5.875 C-4.22 5.38 -4.22 5.38 -7.25 4.875 C-2.83139535 -0.15729974 -2.83139535 -0.15729974 0 0 Z " fill="#D1D6ED" transform="translate(30.25,8.125)"/>
<path d="M0 0 C6.75 0.75 6.75 0.75 9 3 C8.75390625 5.13671875 8.75390625 5.13671875 8 8 C7.67902344 9.24394531 7.35804687 10.48789062 7.02734375 11.76953125 C6.66566203 13.11761766 6.30234868 14.46526725 5.9375 15.8125 C5.75123047 16.50537109 5.56496094 17.19824219 5.37304688 17.91210938 C4.91678802 19.60845641 4.45859046 21.3042818 4 23 C1.83888234 19.13143441 2.17645958 17.36476424 3 13 C3.12262342 11.41922412 3.2042094 9.83486344 3.25 8.25 C3.27578125 7.49203125 3.3015625 6.7340625 3.328125 5.953125 C3.21984375 5.30859375 3.1115625 4.6640625 3 4 C2.01 3.34 1.02 2.68 0 2 C0 1.34 0 0.68 0 0 Z " fill="#E7AB76" transform="translate(29,6)"/>
<path d="M0 0 C2.53541298 0.09086451 5.03554784 0.2370945 7.5625 0.4375 C8.62887695 0.51581055 8.62887695 0.51581055 9.71679688 0.59570312 C11.47821999 0.72574107 13.23916173 0.86226897 15 1 C15 2.32 15 3.64 15 5 C11.04 5 7.08 5 3 5 C2.67 4.01 2.34 3.02 2 2 C1.01 2.66 0.02 3.32 -1 4 C-2.32 4 -3.64 4 -5 4 C-4.67 3.01 -4.34 2.02 -4 1 C-3.01 1 -2.02 1 -1 1 C-0.67 0.67 -0.34 0.34 0 0 Z " fill="#9392EC" transform="translate(15,13)"/>
<path d="M0 0 C1.79487005 0.0643113 3.58738778 0.20139986 5.375 0.375 C6.35210937 0.46523438 7.32921875 0.55546875 8.3359375 0.6484375 C11 1 11 1 14 2 C14 3.32 14 4.64 14 6 C11.8535247 5.88655624 9.70779408 5.75893655 7.5625 5.625 C6.36753906 5.55539063 5.17257813 5.48578125 3.94140625 5.4140625 C2.97074219 5.27742188 2.00007813 5.14078125 1 5 C0.67 4.34 0.34 3.68 0 3 C-0.33 3.33 -0.66 3.66 -1 4 C-2.66617115 4.04063832 -4.33388095 4.042721 -6 4 C-5.67 3.01 -5.34 2.02 -5 1 C-3.68 1 -2.36 1 -1 1 C-0.67 0.67 -0.34 0.34 0 0 Z " fill="#9190EC" transform="translate(15,18)"/>
<path d="M0 0 C4.16138263 -0.08159574 7.9472484 0.01751476 12 1 C11.01 2.485 11.01 2.485 10 4 C11.32 4.66 12.64 5.32 14 6 C12.53626953 5.96519531 12.53626953 5.96519531 11.04296875 5.9296875 C9.77066406 5.91164063 8.49835937 5.89359375 7.1875 5.875 C5.92292969 5.85179687 4.65835937 5.82859375 3.35546875 5.8046875 C-0.1338024 5.72418082 -0.1338024 5.72418082 -3 8 C-3.66 6.68 -4.32 5.36 -5 4 C-3.35 3.67 -1.7 3.34 0 3 C0 2.01 0 1.02 0 0 Z " fill="#C1C1EE" transform="translate(15,8)"/>
<path d="M0 0 C2.35694954 0.09031574 4.71153582 0.24688128 7.0625 0.4375 C8.35285156 0.53933594 9.64320312 0.64117188 10.97265625 0.74609375 C12.47119141 0.87177734 12.47119141 0.87177734 14 1 C14 1.99 14 2.98 14 4 C9.59085217 5.10228696 5.51617599 5.07654536 1 5 C1 4.01 1 3.02 1 2 C0.34 1.67 -0.32 1.34 -1 1 C-0.67 0.67 -0.34 0.34 0 0 Z " fill="#9695ED" transform="translate(14,24)"/>
<path d="M0 0 C1.65 0 3.3 0 5 0 C4.67 0.61875 4.34 1.2375 4 1.875 C2.85806765 3.91018344 2.85806765 3.91018344 3 6 C3.66 6.66 4.32 7.32 5 8 C-1.15234375 8.09765625 -1.15234375 8.09765625 -3 8 C-4 7 -4 7 -4.0625 4.4375 C-4.041875 3.633125 -4.02125 2.82875 -4 2 C-2.68 2 -1.36 2 0 2 C0 1.34 0 0.68 0 0 Z " fill="#9E7EEC" transform="translate(18,0)"/>
<path d="M0 0 C0.76666992 0.03552979 1.53333984 0.07105957 2.32324219 0.10766602 C5.79858443 0.26532506 9.27425439 0.41401087 12.75 0.5625 C13.9565625 0.61857422 15.163125 0.67464844 16.40625 0.73242188 C17.56640625 0.78076172 18.7265625 0.82910156 19.921875 0.87890625 C20.99018555 0.9260376 22.05849609 0.97316895 23.15917969 1.02172852 C25.66694407 1.00254744 27.62203427 0.74499559 30 0 C29.67 0.99 29.34 1.98 29 3 C25.47923768 3.05855176 21.9586024 3.0937806 18.4375 3.125 C16.9515332 3.15013672 16.9515332 3.15013672 15.43554688 3.17578125 C9.87271509 3.21274359 5.25156925 2.87082551 0 1 C0 0.67 0 0.34 0 0 Z " fill="#D4673E" transform="translate(4,37)"/>
<path d="M0 0 C0.33 0.99 0.66 1.98 1 3 C3.31 2.34 5.62 1.68 8 1 C8.33 1.66 8.66 2.32 9 3 C11.8159849 3.46898963 11.8159849 3.46898963 15.0625 3.625 C16.71958984 3.73714844 16.71958984 3.73714844 18.41015625 3.8515625 C19.26480469 3.90054687 20.11945312 3.94953125 21 4 C16.74571078 6.64889706 13.42670407 5.77524344 8.65625 5.09375 C5.77215496 4.99195841 4.41838525 5.49421296 2 7 C0 5 0 5 -0.125 2.375 C-0.08375 1.59125 -0.0425 0.8075 0 0 Z " fill="#B6B6EC" transform="translate(9,14)"/>
<path d="M0 0 C0.94875 0.04125 1.8975 0.0825 2.875 0.125 C2.875 0.785 2.875 1.445 2.875 2.125 C1.555 2.455 0.235 2.785 -1.125 3.125 C-1.785 6.425 -2.445 9.725 -3.125 13.125 C-3.455 13.125 -3.785 13.125 -4.125 13.125 C-4.34651549 11.33491533 -4.55182213 9.54281838 -4.75 7.75 C-4.86601563 6.75226562 -4.98203125 5.75453125 -5.1015625 4.7265625 C-5.10929688 3.86804688 -5.11703125 3.00953125 -5.125 2.125 C-3.125 0.125 -3.125 0.125 0 0 Z " fill="#E6B78C" transform="translate(11.125,3.875)"/>
<path d="M0 0 C3.375 0.25 3.375 0.25 7 1 C8.4375 3.0625 8.4375 3.0625 9 5 C8.34 5 7.68 5 7 5 C6.67 5.66 6.34 6.32 6 7 C5.34 7 4.68 7 4 7 C3.566875 6.0409375 3.566875 6.0409375 3.125 5.0625 C2.17176549 2.84793921 2.17176549 2.84793921 0 2 C0 1.34 0 0.68 0 0 Z " fill="#E7B992" transform="translate(29,6)"/>
<path d="M0 0 C0.66 0.99 1.32 1.98 2 3 C0.71283353 4.00578589 -0.57988658 5.00446798 -1.875 6 C-2.95394531 6.8353125 -2.95394531 6.8353125 -4.0546875 7.6875 C-6 9 -6 9 -8 9 C-8 7 -8 7 -5.6875 4.375 C-3 2 -3 2 0 2 C0 1.34 0 0.68 0 0 Z " fill="#C8C5E4" transform="translate(28,26)"/>
<path d="M0 0 C4.16138263 -0.08159574 7.9472484 0.01751476 12 1 C11.67 1.66 11.34 2.32 11 3 C7.7 3 4.4 3 1 3 C0.67 2.01 0.34 1.02 0 0 Z " fill="#BDB5EC" transform="translate(15,8)"/>
<path d="M0 0 C0.33 0 0.66 0 1 0 C1.04254356 1.99954746 1.04080783 4.00041636 1 6 C0 7 0 7 -3.0625 7.0625 C-4.5165625 7.0315625 -4.5165625 7.0315625 -6 7 C-5.02433888 5.83040013 -4.044375 4.66438823 -3.0625 3.5 C-2.51722656 2.8503125 -1.97195312 2.200625 -1.41015625 1.53125 C-0.71212891 0.77328125 -0.71212891 0.77328125 0 0 Z " fill="#EAB077" transform="translate(31,31)"/>
<path d="M0 0 C1.07310858 3.27185553 0.89263102 5.42947592 0.0625 8.75 C-0.22947266 9.94882812 -0.22947266 9.94882812 -0.52734375 11.171875 C-0.68332031 11.77515625 -0.83929687 12.3784375 -1 13 C-1.66 13 -2.32 13 -3 13 C-3.33 11.68 -3.66 10.36 -4 9 C-3.34 9 -2.68 9 -2 9 C-2.04125 8.2575 -2.0825 7.515 -2.125 6.75 C-1.99601866 3.91241048 -1.42948778 2.41226062 0 0 Z " fill="#D7D2E0" transform="translate(32,15)"/>
<path d="M0 0 C0.66 1.32 1.32 2.64 2 4 C-0.31 4.33 -2.62 4.66 -5 5 C-5 3.68 -5 2.36 -5 1 C-3 0 -3 0 0 0 Z " fill="#BBA6EF" transform="translate(26,0)"/>
</svg>
