<?xml version="1.0" encoding="UTF-8"?>
<svg version="1.1" xmlns="http://www.w3.org/2000/svg" width="40" height="40">
<path d="M0 0 C0.87011719 0.00451172 1.74023438 0.00902344 2.63671875 0.01367188 C4.75784293 0.0253264 6.8789311 0.04325643 9 0.0625 C8.84152588 0.75561279 8.68305176 1.44872559 8.51977539 2.1628418 C7.95883527 5.29214465 7.78899558 8.27991889 7.68359375 11.45703125 C7.62075195 13.26010742 7.62075195 13.26010742 7.55664062 15.09960938 C7.51732422 16.34548828 7.47800781 17.59136719 7.4375 18.875 C7.37272461 20.77282227 7.37272461 20.77282227 7.30664062 22.70898438 C7.2007553 25.82671889 7.09867595 28.94453035 7 32.0625 C7.66 32.0625 8.32 32.0625 9 32.0625 C9 33.7125 9 35.3625 9 37.0625 C4.91721966 38.14568662 1.82121165 37.89723185 -2.3125 37.125 C-3.38113281 36.93035156 -4.44976563 36.73570313 -5.55078125 36.53515625 C-6.76314453 36.30119141 -6.76314453 36.30119141 -8 36.0625 C-8 37.3825 -8 38.7025 -8 40.0625 C-9.98 40.0625 -11.96 40.0625 -14 40.0625 C-14 38.7425 -14 37.4225 -14 36.0625 C-18.62 35.0725 -23.24 34.0825 -28 33.0625 C-28 30.37935959 -27.98987221 27.69842297 -27.96484375 25.015625 C-27.95557521 23.44791757 -27.94646566 21.88020919 -27.9375 20.3125 C-27.92912109 19.5390625 -27.92074219 18.765625 -27.91210938 17.96875 C-27.89087396 12.90622663 -28.27348215 8.07375698 -29 3.0625 C-27.33389071 2.74704181 -25.6670755 2.43531161 -24 2.125 C-23.071875 1.95097656 -22.14375 1.77695312 -21.1875 1.59765625 C-14.03303135 0.39647708 -7.24326058 -0.07232134 0 0 Z " fill="#909EE1" transform="translate(30,-0.0625)"/>
<path d="M0 0 C0.87011719 0.00451172 1.74023438 0.00902344 2.63671875 0.01367188 C4.75784293 0.0253264 6.8789311 0.04325643 9 0.0625 C8.84152588 0.75561279 8.68305176 1.44872559 8.51977539 2.1628418 C7.95883527 5.29214465 7.78899558 8.27991889 7.68359375 11.45703125 C7.62075195 13.26010742 7.62075195 13.26010742 7.55664062 15.09960938 C7.51732422 16.34548828 7.47800781 17.59136719 7.4375 18.875 C7.37272461 20.77282227 7.37272461 20.77282227 7.30664062 22.70898438 C7.2007553 25.82671889 7.09867595 28.94453035 7 32.0625 C7.66 32.0625 8.32 32.0625 9 32.0625 C9 33.7125 9 35.3625 9 37.0625 C4.91721966 38.14568662 1.82121165 37.89723185 -2.3125 37.125 C-3.38113281 36.93035156 -4.44976563 36.73570313 -5.55078125 36.53515625 C-6.76314453 36.30119141 -6.76314453 36.30119141 -8 36.0625 C-8 37.3825 -8 38.7025 -8 40.0625 C-9.98 40.0625 -11.96 40.0625 -14 40.0625 C-14 38.7425 -14 37.4225 -14 36.0625 C-18.62 35.0725 -23.24 34.0825 -28 33.0625 C-28 31.7425 -28 30.4225 -28 29.0625 C-27.16190796 29.15337891 -27.16190796 29.15337891 -26.30688477 29.24609375 C-23.72592274 29.52312962 -21.14424343 29.79284719 -18.5625 30.0625 C-17.68400391 30.15789063 -16.80550781 30.25328125 -15.90039062 30.3515625 C-10.23241145 30.93718396 -4.69811032 31.15524645 1 31.0625 C1 29.7425 1 28.4225 1 27.0625 C-0.65 27.0625 -2.3 27.0625 -4 27.0625 C-2.41037341 23.02729403 -0.71767682 19.04438718 1 15.0625 C-1.31 15.0625 -3.62 15.0625 -6 15.0625 C-3 13.0625 -3 13.0625 1 13.0625 C1 12.0725 1 11.0825 1 10.0625 C0.01 10.0625 -0.98 10.0625 -2 10.0625 C-2 9.0725 -2 8.0825 -2 7.0625 C-11.0719352 6.96778142 -19.98185679 6.91733896 -29 8.0625 C-29 6.4125 -29 4.7625 -29 3.0625 C-27.33389071 2.74704181 -25.6670755 2.43531161 -24 2.125 C-23.071875 1.95097656 -22.14375 1.77695312 -21.1875 1.59765625 C-14.03303135 0.39647708 -7.24326058 -0.07232134 0 0 Z " fill="#8084CF" transform="translate(30,-0.0625)"/>
<path d="M0 0 C0.73001221 0.09087891 1.46002441 0.18175781 2.2121582 0.27539062 C5.57813327 0.69045039 8.94526718 1.09527575 12.3125 1.5 C14.03436523 1.71462891 14.03436523 1.71462891 15.79101562 1.93359375 C22.90124747 2.77957034 29.84062443 3.1961224 37 3 C37 4.65 37 6.3 37 8 C32.91721966 9.08318662 29.82121165 8.83473185 25.6875 8.0625 C24.61886719 7.86785156 23.55023437 7.67320313 22.44921875 7.47265625 C21.64097656 7.31667969 20.83273438 7.16070312 20 7 C20 8.32 20 9.64 20 11 C18.02 11 16.04 11 14 11 C14 9.68 14 8.36 14 7 C9.38 6.01 4.76 5.02 0 4 C0 2.68 0 1.36 0 0 Z " fill="#576684" transform="translate(2,29)"/>
<path d="M0 0 C0.99 0.33 1.98 0.66 3 1 C3.33 2.65 3.66 4.3 4 6 C4.66 6 5.32 6 6 6 C7.625 7.5 7.625 7.5 9 9 C9.33 7.02 9.66 5.04 10 3 C11.65 3 13.3 3 15 3 C13.35 6.63 11.7 10.26 10 14 C13.3 14.33 16.6 14.66 20 15 C19.67 15.66 19.34 16.32 19 17 C12.71628693 17.10064005 6.67190051 16.75941669 0.4375 16 C-0.38041016 15.90460937 -1.19832031 15.80921875 -2.04101562 15.7109375 C-4.02788675 15.47855491 -6.01402794 15.23994484 -8 15 C-6.68 14.67 -5.36 14.34 -4 14 C-4 12.68 -4 11.36 -4 10 C-2.68 10 -1.36 10 0 10 C0 10.99 0 11.98 0 13 C0.66 13 1.32 13 2 13 C1.34 8.71 0.68 4.42 0 0 Z " fill="#8C95DB" transform="translate(12,15)"/>
<path d="M0 0 C0.87011719 0.00451172 1.74023438 0.00902344 2.63671875 0.01367188 C4.75784293 0.0253264 6.8789311 0.04325643 9 0.0625 C8.67 1.7125 8.34 3.3625 8 5.0625 C7.16339844 5.08231934 6.32679687 5.10213867 5.46484375 5.12255859 C2.32609654 5.20120107 -0.81230086 5.28791003 -3.95068359 5.37988281 C-5.96305333 5.43646123 -7.97567227 5.48394088 -9.98828125 5.53125 C-16.61912076 5.73117481 -22.65569403 6.07181216 -29 8.0625 C-29 6.4125 -29 4.7625 -29 3.0625 C-27.33389071 2.74704181 -25.6670755 2.43531161 -24 2.125 C-23.071875 1.95097656 -22.14375 1.77695312 -21.1875 1.59765625 C-14.03303135 0.39647708 -7.24326058 -0.07232134 0 0 Z " fill="#586682" transform="translate(30,-0.0625)"/>
<path d="M0 0 C2.97 0 5.94 0 9 0 C8.42365861 4.75481646 6.44931479 7.97048212 4 12 C5.65 12 7.3 12 9 12 C9 12.99 9 13.98 9 15 C6.03 14.67 3.06 14.34 0 14 C0.56545837 10.04179141 1.80902348 7.3340947 4 4 C2.68 3.67 1.36 3.34 0 3 C0 2.01 0 1.02 0 0 Z " fill="#E2AACC" transform="translate(22,15)"/>
<path d="M0 0 C5.28 0 10.56 0 16 0 C16 1.65 16 3.3 16 5 C11.643098 6.19127531 8.12042737 5.76679687 3.6875 5.0625 C2.43324219 4.86785156 1.17898437 4.67320313 -0.11328125 4.47265625 C-1.06589844 4.31667969 -2.01851562 4.16070312 -3 4 C-3 3.34 -3 2.68 -3 2 C-2.01 2 -1.02 2 0 2 C0 1.34 0 0.68 0 0 Z " fill="#53617F" transform="translate(23,32)"/>
<path d="M0 0 C1.32 0 2.64 0 4 0 C4.33692785 1.60341555 4.66941093 3.20776555 5 4.8125 C5.185625 5.70582031 5.37125 6.59914063 5.5625 7.51953125 C6 10 6 10 6 13 C5.34 13 4.68 13 4 13 C4 12.01 4 11.02 4 10 C2.68 10 1.36 10 0 10 C0 10.66 0 11.32 0 12 C-0.66 12 -1.32 12 -2 12 C-1.85962479 10.18706911 -1.71255111 8.3746557 -1.5625 6.5625 C-1.48128906 5.55316406 -1.40007813 4.54382813 -1.31640625 3.50390625 C-1 1 -1 1 0 0 Z " fill="#87CEE6" transform="translate(8,15)"/>
<path d="M0 0 C1.65 0.33 3.3 0.66 5 1 C5 2.32 5 3.64 5 5 C3.02 5 1.04 5 -1 5 C-0.67 3.35 -0.34 1.7 0 0 Z " fill="#E0B97A" transform="translate(17,35)"/>
<path d="M0 0 C0.66 0 1.32 0 2 0 C2 1.65 2 3.3 2 5 C-2.61073111 6.29676812 -6.33840089 5.71109139 -11 5 C-11 4.67 -11 4.34 -11 4 C-5.555 3.505 -5.555 3.505 0 3 C0 2.01 0 1.02 0 0 Z " fill="#343F63" transform="translate(37,32)"/>
<path d="M0 0 C0.99 0.33 1.98 0.66 3 1 C3 4.96 3 8.92 3 13 C0.89172945 9.83759418 0.66182535 8.49342531 0.375 4.8125 C0.30023438 3.91144531 0.22546875 3.01039062 0.1484375 2.08203125 C0.09945313 1.39496094 0.05046875 0.70789062 0 0 Z " fill="#6092D4" transform="translate(12,15)"/>
<path d="M0 0 C3.63 0.33 7.26 0.66 11 1 C7.79619983 3.13586678 6.98060033 3.23132175 3.3125 3.125 C2.10013672 3.09792969 2.10013672 3.09792969 0.86328125 3.0703125 C-0.05904297 3.03550781 -0.05904297 3.03550781 -1 3 C-0.67 2.01 -0.34 1.02 0 0 Z " fill="#637297" transform="translate(2,29)"/>
<path d="M0 0 C1.67542976 0.28604898 3.34385343 0.61781233 5 1 C5 2.32 5 3.64 5 5 C3.68 5 2.36 5 1 5 C0.34 3.68 -0.32 2.36 -1 1 C-0.67 0.67 -0.34 0.34 0 0 Z " fill="#C5C6DD" transform="translate(16,19)"/>
<path d="M0 0 C0.99 0 1.98 0 3 0 C2.67 1.65 2.34 3.3 2 5 C0.02 5 -1.96 5 -4 5 C-2.68 4.67 -1.36 4.34 0 4 C0 2.68 0 1.36 0 0 Z " fill="#7892D7" transform="translate(8,25)"/>
<path d="M0 0 C0.99 0 1.98 0 3 0 C3 0.66 3 1.32 3 2 C3.99 2 4.98 2 6 2 C6 2.66 6 3.32 6 4 C4.02 4 2.04 4 0 4 C0 2.68 0 1.36 0 0 Z " fill="#AEC0E2" transform="translate(25,8)"/>
</svg>
