<?xml version="1.0" encoding="UTF-8"?>
<svg version="1.1" xmlns="http://www.w3.org/2000/svg" width="40" height="40">
<path d="M0 0 C0.89847656 0.09023437 1.79695313 0.18046875 2.72265625 0.2734375 C4.9375 0.625 4.9375 0.625 5.9375 1.625 C5.87816438 3.14695853 5.78958603 4.66781026 5.6875 6.1875 C5.59660728 11.94679314 7.57620402 15.12857783 10.9375 19.625 C12.56401522 22.87803044 12.05203156 26.01725602 11.9375 29.625 C10.1025111 31.4599889 7.2270435 31.30964591 4.75 31.6875 C3.62207031 31.86410156 2.49414062 32.04070313 1.33203125 32.22265625 C-1.85060999 32.5998853 -4.86213997 32.7719795 -8.0625 32.625 C-8.5575 32.13 -8.5575 32.13 -9.0625 31.625 C-10.41408203 31.53412109 -10.41408203 31.53412109 -11.79296875 31.44140625 C-20.90728461 30.77199322 -20.90728461 30.77199322 -24.2578125 27.4453125 C-26.91072604 23.12631799 -28.52144422 19.76863902 -28.0625 14.625 C-26.9375 12.3125 -26.9375 12.3125 -25.0625 10.625 C-21.875 10.375 -21.875 10.375 -19.0625 10.625 C-19.083125 9.655625 -19.10375 8.68625 -19.125 7.6875 C-19.0625 4.625 -19.0625 4.625 -18.0625 3.625 C-16.37641034 3.55294489 -14.68749341 3.54113932 -13 3.5625 C-12.08089844 3.57152344 -11.16179688 3.58054687 -10.21484375 3.58984375 C-9.50457031 3.60144531 -8.79429688 3.61304688 -8.0625 3.625 C-7.7325 2.635 -7.4025 1.645 -7.0625 0.625 C-4.46138792 -0.67555604 -2.87508678 -0.30612435 0 0 Z " fill="#EDEBEC" transform="translate(28.0625,4.375)"/>
<path d="M0 0 C0.89847656 0.09023437 1.79695313 0.18046875 2.72265625 0.2734375 C4.9375 0.625 4.9375 0.625 5.9375 1.625 C6.00929964 3.14428038 6.02142007 4.66667482 6 6.1875 C5.99097656 7.01378906 5.98195313 7.84007812 5.97265625 8.69140625 C5.96105469 9.32949219 5.94945313 9.96757812 5.9375 10.625 C5.01066406 10.80675781 4.08382812 10.98851562 3.12890625 11.17578125 C1.93136719 11.42714844 0.73382812 11.67851562 -0.5 11.9375 C-2.29244141 12.30294922 -2.29244141 12.30294922 -4.12109375 12.67578125 C-5.09175781 12.98902344 -6.06242187 13.30226563 -7.0625 13.625 C-7.3925 14.615 -7.7225 15.605 -8.0625 16.625 C-9.52317199 16.17417531 -10.98098032 15.71406463 -12.4375 15.25 C-13.65566406 14.86714844 -13.65566406 14.86714844 -14.8984375 14.4765625 C-17.0625 13.625 -17.0625 13.625 -19.0625 11.625 C-19.25 8.0625 -19.25 8.0625 -19.0625 4.625 C-18.0625 3.625 -18.0625 3.625 -15.77734375 3.52734375 C-14.40255859 3.54474609 -14.40255859 3.54474609 -13 3.5625 C-12.08089844 3.57152344 -11.16179688 3.58054687 -10.21484375 3.58984375 C-9.50457031 3.60144531 -8.79429688 3.61304688 -8.0625 3.625 C-7.7325 2.635 -7.4025 1.645 -7.0625 0.625 C-4.46138792 -0.67555604 -2.87508678 -0.30612435 0 0 Z " fill="#E3B88B" transform="translate(28.0625,4.375)"/>
<path d="M0 0 C1.64630328 0.14042877 3.29204179 0.28749329 4.9375 0.4375 C6.31228516 0.55931641 6.31228516 0.55931641 7.71484375 0.68359375 C10 1 10 1 11 2 C11.07179964 3.51928038 11.08392007 5.04167482 11.0625 6.5625 C11.05347656 7.38878906 11.04445313 8.21507812 11.03515625 9.06640625 C11.02355469 9.70449219 11.01195312 10.34257812 11 11 C3.375 13 3.375 13 0 13 C-1.18306728 10.63386544 -1.13354608 9.13219264 -1.125 6.5 C-1.12757812 5.7059375 -1.13015625 4.911875 -1.1328125 4.09375 C-1 2 -1 2 0 0 Z " fill="#DE7FA1" transform="translate(23,4)"/>
<path d="M0 0 C1.07378906 0.15597656 2.14757812 0.31195312 3.25390625 0.47265625 C4.69003546 0.66977202 6.12623741 0.86635841 7.5625 1.0625 C8.61920898 1.2181543 8.61920898 1.2181543 9.69726562 1.37695312 C14.36796344 2.00114776 18.31728101 1.80275183 23 1 C24.64485066 0.93943849 26.29172957 0.91218045 27.9375 0.9375 C28.70964844 0.94652344 29.48179688 0.95554687 30.27734375 0.96484375 C30.84582031 0.97644531 31.41429687 0.98804687 32 1 C31.67 2.32 31.34 3.64 31 5 C28.95928485 5.33910994 26.91737379 5.67102704 24.875 6 C23.73804687 6.185625 22.60109375 6.37125 21.4296875 6.5625 C18.22778108 6.97094364 15.22249903 7.15299699 12 7 C11.67 6.67 11.34 6.34 11 6 C8.81980521 5.60333773 6.6303537 5.25684763 4.4375 4.9375 C2.64119141 4.67259766 2.64119141 4.67259766 0.80859375 4.40234375 C-0.11824219 4.26957031 -1.04507812 4.13679688 -2 4 C-1.34 3.67 -0.68 3.34 0 3 C0 2.01 0 1.02 0 0 Z " fill="#8555CA" transform="translate(8,30)"/>
<path d="M0 0 C0.85271484 0.23396484 0.85271484 0.23396484 1.72265625 0.47265625 C6.91293395 1.7810568 10.66954912 1.95186623 16 1 C24.23751891 0.61875946 24.23751891 0.61875946 27 2 C27 2.99 27 3.98 27 5 C16.62504529 6.49860457 7.327656 7.63253976 -3 5 C-2.34 4.67 -1.68 4.34 -1 4 C-0.34786708 1.97536745 -0.34786708 1.97536745 0 0 Z " fill="#CFCDD3" transform="translate(13,26)"/>
<path d="M0 0 C2.75907807 1.37953903 3.25444066 3.0753888 4.625 5.8125 C5.07101563 6.68519531 5.51703125 7.55789062 5.9765625 8.45703125 C7 11 7 11 7 15 C6.01 15 5.02 15 4 15 C3.1533966 13.61217515 2.32324661 12.21430603 1.5 10.8125 C1.0359375 10.03519531 0.571875 9.25789063 0.09375 8.45703125 C-1.11592349 5.73958616 -1.28453624 3.9419015 -1 1 C-0.67 0.67 -0.34 0.34 0 0 Z " fill="#CBA5EF" transform="translate(1,18)"/>
<path d="M0 0 C1.65 0 3.3 0 5 0 C5 2.64 5 5.28 5 8 C2.29120665 9.35439668 -0.00933268 9.06501451 -3 9 C-2.01 7.68 -1.02 6.36 0 5 C-0.66 4.67 -1.32 4.34 -2 4 C-1.34 2.68 -0.68 1.36 0 0 Z " fill="#E4A2BA" transform="translate(29,7)"/>
<path d="M0 0 C-0.33 0.99 -0.66 1.98 -1 3 C-3.04071515 3.33910994 -5.08262621 3.67102704 -7.125 4 C-8.83042969 4.2784375 -8.83042969 4.2784375 -10.5703125 4.5625 C-13.76137602 4.96956049 -16.78817791 5.07809902 -20 5 C-20.33 4.34 -20.66 3.68 -21 3 C-18.06298109 2.49702428 -15.12544669 1.99750127 -12.1875 1.5 C-11.35412109 1.35691406 -10.52074219 1.21382812 -9.66210938 1.06640625 C-8.45844727 0.86337891 -8.45844727 0.86337891 -7.23046875 0.65625 C-6.12288208 0.46772461 -6.12288208 0.46772461 -4.99291992 0.27539062 C-3 0 -3 0 0 0 Z " fill="#5E31AE" transform="translate(40,32)"/>
<path d="M0 0 C1.64666203 0.1135629 3.29236082 0.24117381 4.9375 0.375 C5.85402344 0.44460937 6.77054688 0.51421875 7.71484375 0.5859375 C8.84599609 0.79089844 8.84599609 0.79089844 10 1 C10.33 1.66 10.66 2.32 11 3 C7.04 3.99 3.08 4.98 -1 6 C-0.67 4.02 -0.34 2.04 0 0 Z " fill="#D26B91" transform="translate(23,4)"/>
<path d="M0 0 C1.20628008 2.33214148 2.1654738 4.49642139 3 7 C2.01 7.495 2.01 7.495 1 8 C0.67 8.99 0.34 9.98 0 11 C-0.66 11 -1.32 11 -2 11 C-2.33 9.35 -2.66 7.7 -3 6 C-2.34 6 -1.68 6 -1 6 C-1.0309375 4.7934375 -1.0309375 4.7934375 -1.0625 3.5625 C-1 1 -1 1 0 0 Z " fill="#DFA864" transform="translate(20,10)"/>
<path d="M0 0 C1.65 0 3.3 0 5 0 C4.01 0.495 4.01 0.495 3 1 C3 3.31 3 5.62 3 8 C3.99 8.33 4.98 8.66 6 9 C1.125 8.125 1.125 8.125 0 7 C-0.04092937 4.66702567 -0.04241723 2.33294775 0 0 Z " fill="#E7C177" transform="translate(9,9)"/>
<path d="M0 0 C6.75 -0.125 6.75 -0.125 9 1 C9 1.99 9 2.98 9 4 C7.35 4 5.7 4 4 4 C4 3.34 4 2.68 4 2 C2.68 2 1.36 2 0 2 C0 1.34 0 0.68 0 0 Z " fill="#C3BAD0" transform="translate(31,27)"/>
<path d="M0 0 C3.14624993 -0.26218749 4.61837017 -0.24754367 7.3125 1.5 C8.1478125 2.2425 8.1478125 2.2425 9 3 C9.33 2.01 9.66 1.02 10 0 C10 1.32 10 2.64 10 4 C6.19881294 5.26706235 4.6149628 4.57172296 1 3 C0.67 2.01 0.34 1.02 0 0 Z " fill="#EADFD5" transform="translate(11,18)"/>
<path d="M0 0 C4.62 0.66 9.24 1.32 14 2 C14 2.33 14 2.66 14 3 C9.38 3 4.76 3 0 3 C0 2.01 0 1.02 0 0 Z " fill="#996FD7" transform="translate(8,30)"/>
<path d="M0 0 C1.32 0 2.64 0 4 0 C3.67 1.65 3.34 3.3 3 5 C2.01 5 1.02 5 0 5 C-0.5625 3.0625 -0.5625 3.0625 -1 1 C-0.67 0.67 -0.34 0.34 0 0 Z " fill="#DC81A7" transform="translate(36,13)"/>
<path d="M0 0 C1.65 0 3.3 0 5 0 C5 1.32 5 2.64 5 4 C3.68 4.33 2.36 4.66 1 5 C0.67 3.35 0.34 1.7 0 0 Z " fill="#DFB66E" transform="translate(2,3)"/>
<path d="M0 0 C0.66 0 1.32 0 2 0 C2 1.65 2 3.3 2 5 C0.02 5 -1.96 5 -4 5 C-2.71937515 3.2925002 -1.38232443 1.62626404 0 0 Z " fill="#E38FAD" transform="translate(30,11)"/>
<path d="M0 0 C2.97 0 5.94 0 9 0 C9.33 0.66 9.66 1.32 10 2 C7.69 2.66 5.38 3.32 3 4 C3 3.01 3 2.02 3 1 C2.01 0.67 1.02 0.34 0 0 Z " fill="#E280A4" transform="translate(24,5)"/>
<path d="M0 0 C0.33 0 0.66 0 1 0 C1.33 3.3 1.66 6.6 2 10 C-1.47244094 5.37007874 -1.47244094 5.37007874 -1 1 C-0.67 0.67 -0.34 0.34 0 0 Z " fill="#B070EC" transform="translate(1,18)"/>
</svg>
