<?xml version="1.0" encoding="UTF-8"?>
<svg version="1.1" xmlns="http://www.w3.org/2000/svg" width="40" height="40">
<path d="M0 0 C1.32 0.33 2.64 0.66 4 1 C4 1.99 4 2.98 4 4 C4.99 4 5.98 4 7 4 C7 2.68 7 1.36 7 0 C8.65 0 10.3 0 12 0 C15.8774542 5.75364171 16.79192342 10.12514971 17 17 C17.03109863 17.74024414 17.06219727 18.48048828 17.09423828 19.24316406 C17.19377319 21.78705628 17.25773292 24.32977199 17.3125 26.875 C17.3424707 27.70805664 17.37244141 28.54111328 17.40332031 29.39941406 C17.43857755 33.17500447 17.43896623 35.3307564 15.33203125 38.54296875 C12.47297759 40.32927866 10.72961519 40.50531567 7.375 40.4375 C6.41335937 40.43621094 5.45171875 40.43492188 4.4609375 40.43359375 C3.64882813 40.29050781 2.83671875 40.14742187 2 40 C1.34 39.01 0.68 38.02 0 37 C-2.07240483 36.50925585 -2.07240483 36.50925585 -4.46484375 36.5234375 C-5.78838867 36.47703125 -5.78838867 36.47703125 -7.13867188 36.4296875 C-8.06228516 36.41164062 -8.98589844 36.39359375 -9.9375 36.375 C-11.75921975 36.32393568 -13.58084627 36.26939548 -15.40234375 36.2109375 C-16.21179443 36.19337402 -17.02124512 36.17581055 -17.85522461 36.15771484 C-20 36 -20 36 -23 35 C-23.28952921 23.98180502 -23.39100569 12.91945046 -18 3 C-17.01 2.67 -16.02 2.34 -15 2 C-14.01 2.99 -13.02 3.98 -12 5 C-10.68 3.68 -9.36 2.36 -8 1 C-7.38125 1.495 -6.7625 1.99 -6.125 2.5 C-4.16119096 4.19222773 -4.16119096 4.19222773 -2 4 C-1.34 2.68 -0.68 1.36 0 0 Z " fill="#A7BAE6" transform="translate(23,0)"/>
<path d="M0 0 C0.33 0 0.66 0 1 0 C1.10957031 0.62648437 1.21914062 1.25296875 1.33203125 1.8984375 C1.49058594 2.71570313 1.64914063 3.53296875 1.8125 4.375 C1.96332031 5.18710938 2.11414063 5.99921875 2.26953125 6.8359375 C2.87544942 9.35820641 2.87544942 9.35820641 6 11 C6 12.32 6 13.64 6 15 C6.66 15 7.32 15 8 15 C8.33 13.35 8.66 11.7 9 10 C11.64 10 14.28 10 17 10 C17.33 11.65 17.66 13.3 18 15 C18.66 13.02 19.32 11.04 20 9 C22.97 9 25.94 9 29 9 C29 11.64 29 14.28 29 17 C27.68 16.67 26.36 16.34 25 16 C25 16.99 25 17.98 25 19 C23.5459375 19.680625 23.5459375 19.680625 22.0625 20.375 C18.92920418 21.65786221 18.92920418 21.65786221 18 24 C17.77532169 25.53668865 17.59203195 27.07968054 17.4375 28.625 C17.35371094 29.44226563 17.26992188 30.25953125 17.18359375 31.1015625 C17.09271484 32.04128906 17.09271484 32.04128906 17 33 C13.89585298 33.02903577 10.79174091 33.0468107 7.6875 33.0625 C6.80642578 33.07087891 5.92535156 33.07925781 5.01757812 33.08789062 C4.17001953 33.09111328 3.32246094 33.09433594 2.44921875 33.09765625 C1.66893311 33.10289307 0.88864746 33.10812988 0.0847168 33.11352539 C-2 33 -2 33 -5 32 C-5.29752956 20.67734721 -5.03966136 10.30839824 0 0 Z " fill="#93B0EF" transform="translate(5,3)"/>
<path d="M0 0 C3.4375 1.375 3.4375 1.375 6 4 C6.9861643 8.53183902 6.76575399 12.46849202 4.6875 16.625 C0.39997719 18.81861632 -4.30146944 18.97557276 -9 18 C-11.06251904 15.99984655 -11.86677041 14.62062785 -12.46875 11.81640625 C-12.52735459 7.58955029 -12.36146255 5.53671713 -9.9375 1.9375 C-6.21508588 -0.51770931 -4.38737473 -0.69274338 0 0 Z " fill="#EFBC1B" transform="translate(34,22)"/>
<path d="M0 0 C3.625 -0.1875 3.625 -0.1875 7 0 C7 0.66 7 1.32 7 2 C7.99 2.33 8.98 2.66 10 3 C9.67 3.66 9.34 4.32 9 5 C8.67 7.97 8.34 10.94 8 14 C1.73 14 -4.54 14 -11 14 C-11.33 13.34 -11.66 12.68 -12 12 C-8.04 12 -4.08 12 0 12 C0 11.01 0 10.02 0 9 C-0.66 9 -1.32 9 -2 9 C-2.25 3.375 -2.25 3.375 0 0 Z " fill="#718BDD" transform="translate(14,22)"/>
<path d="M0 0 C1.134375 0.020625 2.26875 0.04125 3.4375 0.0625 C3.32410796 2.70930904 3.19737127 5.35427518 3.0625 8 C3.01609375 9.13211914 3.01609375 9.13211914 2.96875 10.28710938 C2.8648685 12.21757395 2.65854386 14.14192081 2.4375 16.0625 C-0.27129335 17.41689668 -2.57183268 17.12751451 -5.5625 17.0625 C-5.6875 10.3125 -5.6875 10.3125 -4.5625 8.0625 C-4.5625 6.886875 -4.5625 5.71125 -4.5625 4.5 C-4.5625 0.08004386 -4.5625 0.08004386 0 0 Z " fill="#6E89DD" transform="translate(7.5625,13.9375)"/>
<path d="M0 0 C1.23556641 0.01740234 1.23556641 0.01740234 2.49609375 0.03515625 C3.32238281 0.04417969 4.14867187 0.05320312 5 0.0625 C5.63808594 0.07410156 6.27617188 0.08570313 6.93359375 0.09765625 C6.93359375 2.73765625 6.93359375 5.37765625 6.93359375 8.09765625 C5.61359375 7.76765625 4.29359375 7.43765625 2.93359375 7.09765625 C2.93359375 8.08765625 2.93359375 9.07765625 2.93359375 10.09765625 C0.95359375 10.75765625 -1.02640625 11.41765625 -3.06640625 12.09765625 C-3.06640625 11.43765625 -3.06640625 10.77765625 -3.06640625 10.09765625 C-2.40640625 10.09765625 -1.74640625 10.09765625 -1.06640625 10.09765625 C-1.06640625 9.43765625 -1.06640625 8.77765625 -1.06640625 8.09765625 C-1.72640625 8.09765625 -2.38640625 8.09765625 -3.06640625 8.09765625 C-3.10882348 5.7647085 -3.10733562 3.43063058 -3.06640625 1.09765625 C-2.06640625 0.09765625 -2.06640625 0.09765625 0 0 Z " fill="#7A91DD" transform="translate(27.06640625,11.90234375)"/>
<path d="M0 0 C0.99 0.33 1.98 0.66 3 1 C3 4.3 3 7.6 3 11 C-3.27 11 -9.54 11 -16 11 C-16.33 10.34 -16.66 9.68 -17 9 C-11.06 9 -5.12 9 1 9 C0.67 8.01 0.34 7.02 0 6 C-2.97 5.505 -2.97 5.505 -6 5 C-5.195625 4.360625 -4.39125 3.72125 -3.5625 3.0625 C-1.7249496 1.59396498 -1.7249496 1.59396498 0 0 Z " fill="#6179C1" transform="translate(19,25)"/>
<path d="M0 0 C3.2414197 -0.22614556 5.75685972 -0.07399921 8.875 0.875 C11.47636145 3.47636145 11.3590454 4.41200953 11.4375 8 C11.34409395 11.69228613 11.1177444 12.8233834 9 16 C8.34 16 7.68 16 7 16 C7 15.34 7 14.68 7 14 C6.34 13.67 5.68 13.34 5 13 C5.33 12.67 5.66 12.34 6 12 C6.07148199 10.64756083 6.08399454 9.29165633 6.0625 7.9375 C6.041875 6.638125 6.02125 5.33875 6 4 C4.02 3.34 2.04 2.68 0 2 C0 1.34 0 0.68 0 0 Z " fill="#E6A218" transform="translate(29,23)"/>
<path d="M0 0 C1.134375 0.020625 2.26875 0.04125 3.4375 0.0625 C3.4375 2.7025 3.4375 5.3425 3.4375 8.0625 C0.7975 8.0625 -1.8425 8.0625 -4.5625 8.0625 C-4.60491723 5.72955225 -4.60342937 3.39547433 -4.5625 1.0625 C-3.5625 0.0625 -3.5625 0.0625 0 0 Z " fill="#738DDF" transform="translate(17.5625,12.9375)"/>
<path d="M0 0 C2.11096433 3.47688243 2.11096433 3.47688243 1.5625 6.0625 C1.376875 6.701875 1.19125 7.34125 1 8 C1.33 8.99 1.66 9.98 2 11 C0.02 11 -1.96 11 -4 11 C-3.67 9.68 -3.34 8.36 -3 7 C-3.99 6.34 -4.98 5.68 -6 5 C-6.6875 2.875 -6.6875 2.875 -7 1 C-3.535 0.505 -3.535 0.505 0 0 Z " fill="#EBB42D" transform="translate(34,28)"/>
<path d="M0 0 C0.33 0.99 0.66 1.98 1 3 C3.50447516 4.21869929 3.50447516 4.21869929 6 5 C5.01 5.33 4.02 5.66 3 6 C3 6.99 3 7.98 3 9 C4.98 9 6.96 9 9 9 C9 9.33 9 9.66 9 10 C5.37 10 1.74 10 -2 10 C-4 5 -4 5 -3 2 C-2.01 1.34 -1.02 0.68 0 0 Z " fill="#F0B911" transform="translate(27,30)"/>
<path d="M0 0 C0.66 0 1.32 0 2 0 C2.74507544 6.37305598 3.10349817 12.58311325 3 19 C2.01 18.67 1.02 18.34 0 18 C0 12.06 0 6.12 0 0 Z " fill="#90ACEB" transform="translate(37,7)"/>
<path d="M0 0 C2.9375 1.1875 2.9375 1.1875 6 3 C6.875 5.6875 6.875 5.6875 7 8 C5.35 7.67 3.7 7.34 2 7 C2 6.01 2 5.02 2 4 C1.01 4 0.02 4 -1 4 C-0.67 2.68 -0.34 1.36 0 0 Z " fill="#92A3D1" transform="translate(8,3)"/>
<path d="M0 0 C1.98 0.99 3.96 1.98 6 3 C6 3.66 6 4.32 6 5 C6.66 5 7.32 5 8 5 C8.33 5.99 8.66 6.98 9 8 C6.03 7.505 6.03 7.505 3 7 C3 6.01 3 5.02 3 4 C1.68 4 0.36 4 -1 4 C-0.67 2.68 -0.34 1.36 0 0 Z " fill="#8B9CCC" transform="translate(16,2)"/>
<path d="M0 0 C2.375 -0.125 2.375 -0.125 5 0 C7 2 7 2 7.125 4.625 C7.08375 5.40875 7.0425 6.1925 7 7 C6.34 6.01 5.68 5.02 5 4 C4.01 4 3.02 4 2 4 C2 3.34 2 2.68 2 2 C1.34 1.34 0.68 0.68 0 0 Z " fill="#EFAB1E" transform="translate(29,25)"/>
<path d="M0 0 C0.33 0.99 0.66 1.98 1 3 C1.66 3 2.32 3 3 3 C3 4.98 3 6.96 3 9 C2.01 9 1.02 9 0 9 C0 6.03 0 3.06 0 0 Z " fill="#E2B230" transform="translate(22,27)"/>
<path d="M0 0 C0.33 0 0.66 0 1 0 C1.33 2.64 1.66 5.28 2 8 C0.35 8 -1.3 8 -3 8 C-2.01 5.36 -1.02 2.72 0 0 Z " fill="#8C9BC5" transform="translate(5,3)"/>
<path d="M0 0 C0.99 0.33 1.98 0.66 3 1 C2.34 1 1.68 1 1 1 C1.33 2.98 1.66 4.96 2 7 C1.01 7 0.02 7 -1 7 C-2 4 -2 4 -1.0625 1.8125 C-0.5365625 0.9153125 -0.5365625 0.9153125 0 0 Z " fill="#D7DAE2" transform="translate(23,0)"/>
</svg>
