<?xml version="1.0" encoding="UTF-8"?>
<svg version="1.1" xmlns="http://www.w3.org/2000/svg" width="40" height="40">
<path d="M0 0 C1.32 0 2.64 0 4 0 C4.33 8.58 4.66 17.16 5 26 C5.99 26 6.98 26 8 26 C7.63803085 28.67857172 7.26012724 30.60980914 5.75 32.875 C4 34 4 34 1.5 33.875 C-1.17020438 32.94042847 -2.3781177 32.30478011 -4 30 C-4 28.68 -4 27.36 -4 26 C-3.01 26 -2.02 26 -1 26 C-0.67 17.42 -0.34 8.84 0 0 Z " fill="#000000" transform="translate(4,4)"/>
<path d="M0 0 C8.25 0 16.5 0 25 0 C25 1.32 25 2.64 25 4 C16.75 4 8.5 4 0 4 C0 2.68 0 1.36 0 0 Z " fill="#000000" transform="translate(15,8)"/>
<path d="M0 0 C6.6 0 13.2 0 20 0 C20.33 1.32 20.66 2.64 21 4 C14.07 4 7.14 4 0 4 C0 2.68 0 1.36 0 0 Z " fill="#000000" transform="translate(15,15)"/>
<path d="M0 0 C5.61 0 11.22 0 17 0 C16.67 1.32 16.34 2.64 16 4 C10.72 4 5.44 4 0 4 C0 2.68 0 1.36 0 0 Z " fill="#000000" transform="translate(15,23)"/>
</svg>
