<?xml version="1.0" encoding="UTF-8"?>
<svg version="1.1" xmlns="http://www.w3.org/2000/svg" width="40" height="40">
<path d="M0 0 C1.68996094 0.04060547 1.68996094 0.04060547 3.4140625 0.08203125 C4.87972656 0.13423828 4.87972656 0.13423828 6.375 0.1875 C8.21674245 0.1875 10.05954823 0.1493518 11.8984375 0.046875 C16.31517516 -0.12253412 19.51641818 -0.21653851 23.5625 1.6875 C26.19978967 5.32514092 25.74366926 7.76346888 25.375 12.1875 C24.715 12.1875 24.055 12.1875 23.375 12.1875 C23.065625 11.053125 22.75625 9.91875 22.4375 8.75 C21.74575469 5.39974901 21.74575469 5.39974901 20.375 4.1875 C18.85571962 4.11570036 17.33332518 4.10357993 15.8125 4.125 C14.98621094 4.13402344 14.15992187 4.14304687 13.30859375 4.15234375 C12.35146484 4.16974609 12.35146484 4.16974609 11.375 4.1875 C12.365 5.6725 12.365 5.6725 13.375 7.1875 C13.63260279 9.88202521 13.46400053 12.47298375 13.375 15.1875 C12.715 15.1875 12.055 15.1875 11.375 15.1875 C11.19324219 14.56101562 11.01148437 13.93453125 10.82421875 13.2890625 C10.57285156 12.47179688 10.32148438 11.65453125 10.0625 10.8125 C9.81886719 10.00039063 9.57523438 9.18828125 9.32421875 8.3515625 C8.46131815 5.85565371 8.46131815 5.85565371 5.375 4.1875 C2.54096357 3.79407482 2.54096357 3.79407482 -0.5625 3.8125 C-1.60277344 3.78414062 -2.64304687 3.75578125 -3.71484375 3.7265625 C-7.32629536 4.29857765 -8.42213957 5.32124941 -10.625 8.1875 C-11.90265265 11.82293901 -11.90265265 11.82293901 -12.625 15.1875 C-13.285 15.1875 -13.945 15.1875 -14.625 15.1875 C-14.91821709 10.20280948 -14.80838925 7.13929356 -11.625 3.1875 C-7.65866015 0.24973141 -4.8874834 -0.15168052 0 0 Z " fill="#545964" transform="translate(14.625,20.8125)"/>
<path d="M0 0 C2 2 2 2 2.375 5.875 C2.28294676 8.85319304 2.06485821 9.89622686 0.4375 12.5 C-2.94888329 14.58392818 -5.09385318 14.55802097 -9 14 C-11.4375 12.4375 -11.4375 12.4375 -13 10 C-13.5 6.5 -13.5 6.5 -13 3 C-9.0120168 -2.22563316 -5.87808416 -2.37624679 0 0 Z M-8.6875 2.1875 C-10.1760735 3.97843299 -10.1760735 3.97843299 -10.5 6.5 C-10.22493707 9.20799476 -10.22493707 9.20799476 -7.75 10.9375 C-5.12132038 12.24503602 -5.12132038 12.24503602 -2.75 11.5 C-0.82297795 10.0745356 -0.82297795 10.0745356 0 7.625 C0.26400617 4.86552747 0.26400617 4.86552747 -1.75 2.6875 C-4.41618169 0.68786373 -5.85911509 0.19715506 -8.6875 2.1875 Z " fill="#525863" transform="translate(20,6)"/>
<path d="M0 0 C2.375 0.875 2.375 0.875 4.375 3.875 C4.0508631 7.19740324 3.76723697 8.48276303 1.375 10.875 C-1.625 11.1875 -1.625 11.1875 -4.625 10.875 C-6.77262184 7.65356724 -7.186068 6.6154533 -6.625 2.875 C-4.39928105 0.40197895 -3.34204055 -0.15914479 0 0 Z M-2.625 2.875 C-2.955 4.525 -3.285 6.175 -3.625 7.875 C-2.635 8.205 -1.645 8.535 -0.625 8.875 C0.035 8.215 0.695 7.555 1.375 6.875 C1.0564823 4.76679203 1.0564823 4.76679203 0.375 2.875 C-0.615 2.875 -1.605 2.875 -2.625 2.875 Z " fill="#4E545E" transform="translate(30.625,9.125)"/>
<path d="M0 0 C0.66 0.66 1.32 1.32 2 2 C1.00419922 2.02126953 1.00419922 2.02126953 -0.01171875 2.04296875 C-4.49489783 2.28512587 -7.26989131 2.48283968 -11 5.125 C-13.33929093 8.4877307 -14.14197338 11.02187656 -15 15 C-15.66 15 -16.32 15 -17 15 C-17.29321709 10.01530948 -17.18338925 6.95179356 -14 3 C-9.86128707 -0.53007867 -5.2365196 -0.79216505 0 0 Z " fill="#505660" transform="translate(17,21)"/>
<path d="M0 0 C0.66 0 1.32 0 2 0 C2.32523926 3.57763189 2.42956587 5.39542581 0.3125 8.375 C-2.38790237 10.27258004 -3.77060081 10.35882213 -7 10 C-7 9.34 -7 8.68 -7 8 C-6.21625 7.79375 -5.4325 7.5875 -4.625 7.375 C-1.69083714 6.19323388 -1.69083714 6.19323388 -0.6875 2.875 C-0.460625 1.92625 -0.23375 0.9775 0 0 Z " fill="#5C626E" transform="translate(20,10)"/>
<path d="M0 0 C4.13032137 0.06782137 4.13032137 0.06782137 6.4375 2.375 C5.42429687 2.46587891 5.42429687 2.46587891 4.390625 2.55859375 C3.49859375 2.64238281 2.6065625 2.72617187 1.6875 2.8125 C0.80578125 2.89371094 -0.0759375 2.97492187 -0.984375 3.05859375 C-3.25600452 3.33738465 -5.36101823 3.76290577 -7.5625 4.375 C-5.75814 0.52569866 -4.01988333 0.06462835 0 0 Z " fill="#636976" transform="translate(12.5625,20.625)"/>
<path d="M0 0 C0.33 0 0.66 0 1 0 C1.433125 1.423125 1.433125 1.423125 1.875 2.875 C2.76825109 6.05211578 2.76825109 6.05211578 5 8 C4.67 8.66 4.34 9.32 4 10 C1.53199953 8.84826645 -0.04783565 7.95216435 -2 6 C-1.33333333 4 -0.66666667 2 0 0 Z " fill="#484D57" transform="translate(9,10)"/>
<path d="M0 0 C2.97 0.495 2.97 0.495 6 1 C5.67 1.99 5.34 2.98 5 4 C0.71 3.67 -3.58 3.34 -8 3 C-8 2.67 -8 2.34 -8 2 C-5.36 1.67 -2.72 1.34 0 1 C0 0.67 0 0.34 0 0 Z " fill="#40454D" transform="translate(17,21)"/>
<path d="M0 0 C1.65 0.33 3.3 0.66 5 1 C5.33 2.65 5.66 4.3 6 6 C3.69 5.01 1.38 4.02 -1 3 C-0.67 2.01 -0.34 1.02 0 0 Z " fill="#595E6A" transform="translate(28,9)"/>
<path d="M0 0 C0.66 0.33 1.32 0.66 2 1 C1.34 3.64 0.68 6.28 0 9 C-0.66 8.34 -1.32 7.68 -2 7 C-1.43181818 1.43181818 -1.43181818 1.43181818 0 0 Z " fill="#5B616D" transform="translate(9,6)"/>
</svg>
