<?xml version="1.0" encoding="UTF-8"?>
<svg version="1.1" xmlns="http://www.w3.org/2000/svg" width="40" height="40">
<path d="M0 0 C13.2 0 26.4 0 40 0 C40 13.2 40 26.4 40 40 C26.8 40 13.6 40 0 40 C0 26.8 0 13.6 0 0 Z " fill="#F0F1F2" transform="translate(0,0)"/>
<path d="M0 0 C13.2 0 26.4 0 40 0 C40 13.2 40 26.4 40 40 C26.8 40 13.6 40 0 40 C0 26.8 0 13.6 0 0 Z M6 4 C6 15.22 6 26.44 6 38 C15.24 38 24.48 38 34 38 C34 35.03 34 32.06 34 29 C33.13375 29.78375 32.2675 30.5675 31.375 31.375 C28.44943553 33.83386728 25.72463238 35.02450104 22 36 C23.65181173 30.82432325 25.46974306 28.51098052 29.6875 25.0625 C32.84779234 22.12721229 34.24702324 20.11606174 34.5859375 15.8671875 C34.65860936 11.88521001 34.39366447 7.960945 34 4 C33.34 4 32.68 4 32 4 C32 4.99 32 5.98 32 7 C30.35 7.33 28.7 7.66 27 8 C27.33 7.01 27.66 6.02 28 5 C26.68 5.33 25.36 5.66 24 6 C24 5.34 24 4.68 24 4 C21.58354218 3.83312552 21.58354218 3.83312552 19 4 C18.34 4.66 17.68 5.32 17 6 C17 5.34 17 4.68 17 4 C15.35 4 13.7 4 12 4 C11.67 4.99 11.34 5.98 11 7 C10.67 6.01 10.34 5.02 10 4 C8.68 4 7.36 4 6 4 Z " fill="#989CA6" transform="translate(0,0)"/>
<path d="M0 0 C2.64 0 5.28 0 8 0 C8.66 0.99 9.32 1.98 10 3 C8.02 3 6.04 3 4 3 C4.33 15.21 4.66 27.42 5 40 C3.35 40 1.7 40 0 40 C0 26.8 0 13.6 0 0 Z " fill="#FCFCFC" transform="translate(0,0)"/>
<path d="M0 0 C3.3 0 6.6 0 10 0 C10.13501894 2.43934225 10.23403897 4.87124104 10.3125 7.3125 C10.3753418 8.34793945 10.3753418 8.34793945 10.43945312 9.40429688 C10.48828125 11.42578125 10.48828125 11.42578125 10 15 C7.525 16.485 7.525 16.485 5 18 C5 13.05 5 8.1 5 3 C3.68 2.67 2.36 2.34 1 2 C0.67 1.34 0.34 0.68 0 0 Z " fill="#F7F7F8" transform="translate(30,0)"/>
<path d="M0 0 C8.19256018 -0.63019694 8.19256018 -0.63019694 11.5625 2 C12.036875 2.66 12.51125 3.32 13 4 C12.34 4 11.68 4 11 4 C10.67 4.99 10.34 5.98 10 7 C9.01 6.67 8.02 6.34 7 6 C7.66 6 8.32 6 9 6 C9 5.34 9 4.68 9 4 C6.52733235 4.34444881 6.52733235 4.34444881 4 5 C3.67 5.66 3.34 6.32 3 7 C2.01 6.67 1.02 6.34 0 6 C0.66 6 1.32 6 2 6 C2 5.34 2 4.68 2 4 C0.68 4 -0.64 4 -2 4 C-2 15.22 -2 26.44 -2 38 C-2.33 38 -2.66 38 -3 38 C-3.495 20.675 -3.495 20.675 -4 3 C-2.35 2.67 -0.7 2.34 1 2 C0.67 1.34 0.34 0.68 0 0 Z " fill="#B0B4BB" transform="translate(8,0)"/>
<path d="M0 0 C0 5.61 0 11.22 0 17 C-1.65 17 -3.3 17 -5 17 C-5.10832169 14.91781638 -5.18573541 12.83400871 -5.25 10.75 C-5.29640625 9.58984375 -5.3428125 8.4296875 -5.390625 7.234375 C-5 4 -5 4 -3.046875 1.578125 C-1 0 -1 0 0 0 Z " fill="#F8F8F9" transform="translate(40,23)"/>
<path d="M0 0 C0.33 0 0.66 0 1 0 C1 2.97 1 5.94 1 9 C-8.24 9 -17.48 9 -27 9 C-27 8.67 -27 8.34 -27 8 C-22.05 8 -17.1 8 -12 8 C-11.67 7.01 -11.34 6.02 -11 5 C-11 5.66 -11 6.32 -11 7 C-6.35548875 5.21364952 -3.37702921 3.76668643 0 0 Z " fill="#E9EAEC" transform="translate(33,29)"/>
<path d="M0 0 C0.33 0 0.66 0 1 0 C1 4.95 1 9.9 1 15 C1.66 15 2.32 15 3 15 C3 15.66 3 16.32 3 17 C2.34 17 1.68 17 1 17 C0.67 17.99 0.34 18.98 0 20 C-1.5234375 21.4296875 -1.5234375 21.4296875 -3.375 22.875 C-6.32751872 25.30006671 -8.26940018 27.53880037 -10 31 C-9.071875 30.34 -8.14375 29.68 -7.1875 29 C-4 27 -4 27 -1 27 C-4.49087093 31.0042343 -6.64951939 32.62671065 -12 33 C-11.74189237 29.2413076 -11.50809541 27.49133532 -8.75 24.82421875 C-7.8425 24.11910156 -6.935 23.41398437 -6 22.6875 C-1.69133534 18.69185798 -0.36787893 15.91781567 0.05859375 10.22973633 C0.15512005 6.80695621 0.13498205 3.42219209 0 0 Z " fill="#878C98" transform="translate(34,3)"/>
<path d="M0 0 C0.99 0.33 1.98 0.66 3 1 C1.54253764 4.34314819 -0.30984087 6.6078211 -2.875 9.1875 C-3.55304687 9.88230469 -4.23109375 10.57710937 -4.9296875 11.29296875 C-7.03086032 13.0254452 -8.34102145 13.60055703 -11 14 C-9.50592885 9.2687747 -9.50592885 9.2687747 -7 7.9375 C-6.34 7.628125 -5.68 7.31875 -5 7 C-3.90833725 5.06669397 -3.90833725 5.06669397 -3 3 C-1.375 1.25 -1.375 1.25 0 0 Z " fill="#E4E5E8" transform="translate(35,20)"/>
<path d="M0 0 C2.31 0 4.62 0 7 0 C7 1.98 7 3.96 7 6 C4.69 6 2.38 6 0 6 C0 4.02 0 2.04 0 0 Z " fill="#A9ADB5" transform="translate(8,28)"/>
<path d="M0 0 C4.29 0 8.58 0 13 0 C13 0.66 13 1.32 13 2 C11.02 2 9.04 2 7 2 C7 2.66 7 3.32 7 4 C4.69 4 2.38 4 0 4 C0 2.68 0 1.36 0 0 Z " fill="#ABAFB7" transform="translate(18,11)"/>
<path d="M0 0 C0.33 0 0.66 0 1 0 C1 2.31 1 4.62 1 7 C-1.97 7 -4.94 7 -8 7 C-6.62141149 4.24282298 -4.62533685 3.53678254 -2 2 C-1.34 1.34 -0.68 0.68 0 0 Z " fill="#FAFAFA" transform="translate(32,30)"/>
<path d="M0 0 C1.98 0 3.96 0 6 0 C6 0.66 6 1.32 6 2 C4.68 2 3.36 2 2 2 C2 2.99 2 3.98 2 5 C3.32 5 4.64 5 6 5 C6 5.66 6 6.32 6 7 C4.02 7 2.04 7 0 7 C0 4.69 0 2.38 0 0 Z " fill="#9398A2" transform="translate(8,10)"/>
<path d="M0 0 C1.98 0 3.96 0 6 0 C6 1.98 6 3.96 6 6 C4.02 6 2.04 6 0 6 C1.32 5.67 2.64 5.34 4 5 C4 4.01 4 3.02 4 2 C2.68 2 1.36 2 0 2 C0 1.34 0 0.68 0 0 Z " fill="#9095A0" transform="translate(9,19)"/>
<path d="M0 0 C2.46800047 1.15173355 4.04783565 2.04783565 6 4 C5.34 4 4.68 4 4 4 C3.67 4.99 3.34 5.98 3 7 C2.01 6.67 1.02 6.34 0 6 C0.66 6 1.32 6 2 6 C2 5.34 2 4.68 2 4 C0.35 4 -1.3 4 -3 4 C-1.68 3.34 -0.36 2.68 1 2 C0.67 1.34 0.34 0.68 0 0 Z " fill="#838995" transform="translate(15,0)"/>
<path d="M0 0 C0.33 0.66 0.66 1.32 1 2 C2.32 2 3.64 2 5 2 C5 2.99 5 3.98 5 5 C3.35 5.33 1.7 5.66 0 6 C0 4.02 0 2.04 0 0 Z " fill="#C5C7CD" transform="translate(8,19)"/>
<path d="M0 0 C0.66 0 1.32 0 2 0 C2 1.98 2 3.96 2 6 C1.01 6 0.02 6 -1 6 C-1.625 4.125 -1.625 4.125 -2 2 C-1.34 1.34 -0.68 0.68 0 0 Z " fill="#ADB1B9" transform="translate(38,15)"/>
<path d="M0 0 C0 1.98 0 3.96 0 6 C-0.33 5.34 -0.66 4.68 -1 4 C-2.32 4 -3.64 4 -5 4 C-5 3.01 -5 2.02 -5 1 C-1.125 0 -1.125 0 0 0 Z " fill="#D1D4D8" transform="translate(15,11)"/>
</svg>
