<?xml version="1.0" encoding="UTF-8"?>
<svg version="1.1" xmlns="http://www.w3.org/2000/svg" width="40" height="40">
<path d="M0 0 C0.75539063 0.4228125 1.51078125 0.845625 2.2890625 1.28125 C4.32818215 2.18286589 6.36989738 3.07863253 8.4140625 3.96875 C10.04209467 4.73315846 11.66824707 5.50165627 13.2890625 6.28125 C13.2890625 6.94125 13.2890625 7.60125 13.2890625 8.28125 C12.2990625 8.28125 11.3090625 8.28125 10.2890625 8.28125 C10.7840625 14.71625 10.7840625 14.71625 11.2890625 21.28125 C9.6390625 21.28125 7.9890625 21.28125 6.2890625 21.28125 C6.2890625 22.93125 6.2890625 24.58125 6.2890625 26.28125 C-2.78118736 28.96873144 -10.64068764 28.96873144 -19.7109375 26.28125 C-19.7109375 21.00125 -19.7109375 15.72125 -19.7109375 10.28125 C-22.0209375 9.62125 -24.3309375 8.96125 -26.7109375 8.28125 C-26.7109375 7.62125 -26.7109375 6.96125 -26.7109375 6.28125 C-7.18303433 -3.35039057 -7.18303433 -3.35039057 0 0 Z M-14.9609375 3.78125 C-16.57742187 4.47734375 -16.57742187 4.47734375 -18.2265625 5.1875 C-19.04640625 5.5484375 -19.86625 5.909375 -20.7109375 6.28125 C-15.41300722 10.41085941 -10.52458837 12.7982061 -3.7109375 12.28125 C-0.69387649 11.23675733 -0.69387649 11.23675733 2.1640625 9.78125 C3.13085938 9.3171875 4.09765625 8.853125 5.09375 8.375 C5.81820312 8.0140625 6.54265625 7.653125 7.2890625 7.28125 C4.80937296 5.62812364 2.54633826 4.38321367 -0.1484375 3.15625 C-1.29119141 2.62644531 -1.29119141 2.62644531 -2.45703125 2.0859375 C-7.25920619 0.3714695 -10.52721169 1.85354313 -14.9609375 3.78125 Z M6.2890625 10.28125 C7.2890625 14.28125 7.2890625 14.28125 7.2890625 14.28125 Z M-16.7109375 12.28125 C-16.7109375 14.92125 -16.7109375 17.56125 -16.7109375 20.28125 C-13.20998439 21.44823437 -10.3987143 21.41393287 -6.7109375 21.40625 C-5.4734375 21.40882812 -4.2359375 21.41140625 -2.9609375 21.4140625 C0.30137023 21.43116302 0.30137023 21.43116302 3.2890625 20.28125 C3.2890625 17.64125 3.2890625 15.00125 3.2890625 12.28125 C2.2578125 12.61125 1.2265625 12.94125 0.1640625 13.28125 C-5.9817757 15.00899568 -10.75228617 14.18801843 -16.7109375 12.28125 Z M-16.7109375 23.28125 C-13.03170883 25.73406911 -11.08834399 25.54948919 -6.7109375 25.53125 C-5.4734375 25.53640625 -4.2359375 25.5415625 -2.9609375 25.546875 C0.43579394 25.53376361 0.43579394 25.53376361 3.2890625 23.28125 C-3.3109375 23.28125 -9.9109375 23.28125 -16.7109375 23.28125 Z " fill="#525762" transform="translate(26.7109375,6.71875)"/>
<path d="M0 0 C0.33 0 0.66 0 1 0 C1.33 3.96 1.66 7.92 2 12 C2.99 11.67 3.98 11.34 5 11 C6.40664926 10.85507877 7.8181133 10.75371069 9.23046875 10.68359375 C10.03291016 10.64169922 10.83535156 10.59980469 11.66210938 10.55664062 C12.49548828 10.51732422 13.32886719 10.47800781 14.1875 10.4375 C15.03248047 10.39431641 15.87746094 10.35113281 16.74804688 10.30664062 C18.83184433 10.20068482 20.91590103 10.0998498 23 10 C22.67 7.03 22.34 4.06 22 1 C23.32 0.67 24.64 0.34 26 0 C26.82622671 5.60563042 27.06795656 10.42289352 26 16 C16.92975014 18.68748144 9.07024986 18.68748144 0 16 C0 10.72 0 5.44 0 0 Z M3 13 C6.67922867 15.45281911 8.62259351 15.26823919 13 15.25 C14.2375 15.25515625 15.475 15.2603125 16.75 15.265625 C20.14673144 15.25251361 20.14673144 15.25251361 23 13 C16.4 13 9.8 13 3 13 Z " fill="#42464F" transform="translate(7,17)"/>
<path d="M0 0 C4.75 0.875 4.75 0.875 7 2 C7 2.66 7 3.32 7 4 C6.01 4 5.02 4 4 4 C4.33 8.29 4.66 12.58 5 17 C3.35 17 1.7 17 0 17 C0.33 13.37 0.66 9.74 1 6 C0.34 6 -0.32 6 -1 6 C-1 8.97 -1 11.94 -1 15 C-1.33 15 -1.66 15 -2 15 C-2 12.36 -2 9.72 -2 7 C-2.53109375 7.28875 -3.0621875 7.5775 -3.609375 7.875 C-4.31578125 8.24625 -5.0221875 8.6175 -5.75 9 C-6.79414063 9.556875 -6.79414063 9.556875 -7.859375 10.125 C-10 11 -10 11 -14 11 C-14 10.34 -14 9.68 -14 9 C-9.38 6.69 -4.76 4.38 0 2 C0 1.34 0 0.68 0 0 Z " fill="#575D68" transform="translate(33,11)"/>
<path d="M0 0 C0.33 0 0.66 0 1 0 C1 1.98 1 3.96 1 6 C-5.06248282 8.10868968 -12.20618947 9.67468716 -18.30078125 6.984375 C-18.86152344 6.65953125 -19.42226563 6.3346875 -20 6 C-20 5.67 -20 5.34 -20 5 C-10.1 4.505 -10.1 4.505 0 4 C-0.33 3.01 -0.66 2.02 -1 1 C-0.67 0.67 -0.34 0.34 0 0 Z " fill="#515661" transform="translate(31,27)"/>
<path d="M0 0 C0.90105469 0.19464844 1.80210938 0.38929687 2.73046875 0.58984375 C3.41753906 0.74582031 4.10460938 0.90179687 4.8125 1.0625 C3.8225 1.3925 2.8325 1.7225 1.8125 2.0625 C1.8125 2.7225 1.8125 3.3825 1.8125 4.0625 C-1.1575 3.0725 -4.1275 2.0825 -7.1875 1.0625 C-7.1875 3.7025 -7.1875 6.3425 -7.1875 9.0625 C-7.5175 9.0625 -7.8475 9.0625 -8.1875 9.0625 C-8.1875 6.0925 -8.1875 3.1225 -8.1875 0.0625 C-4.80475734 -1.06508089 -3.41971777 -0.75500262 0 0 Z " fill="#434851" transform="translate(17.1875,17.9375)"/>
<path d="M0 0 C2.475 0.495 2.475 0.495 5 1 C5 1.66 5 2.32 5 3 C4.01 3 3.02 3 2 3 C2 5.97 2 8.94 2 12 C3.32 12.33 4.64 12.66 6 13 C5.360625 13.12375 4.72125 13.2475 4.0625 13.375 C3.381875 13.58125 2.70125 13.7875 2 14 C1.67 14.66 1.34 15.32 1 16 C0.67 10.72 0.34 5.44 0 0 Z " fill="#606774" transform="translate(7,15)"/>
<path d="M0 0 C3.44165321 0.35299007 5.06872538 1.04581692 8 3 C7.67 3.66 7.34 4.32 7 5 C4.03 4.01 1.06 3.02 -2 2 C-1.34 1.34 -0.68 0.68 0 0 Z " fill="#4A4F59" transform="translate(26,8)"/>
<path d="M0 0 C-0.33 3.63 -0.66 7.26 -1 11 C-1.33 11 -1.66 11 -2 11 C-2 8.36 -2 5.72 -2 3 C-2.99 3.33 -3.98 3.66 -5 4 C-5 3.01 -5 2.02 -5 1 C-3 0 -3 0 0 0 Z " fill="#626875" transform="translate(33,15)"/>
<path d="M0 0 C0.33 0 0.66 0 1 0 C1 1.98 1 3.96 1 6 C-0.65 6.33 -2.3 6.66 -4 7 C-4 6.01 -4 5.02 -4 4 C-2.68 4 -1.36 4 0 4 C-0.33 3.01 -0.66 2.02 -1 1 C-0.67 0.67 -0.34 0.34 0 0 Z " fill="#5A606C" transform="translate(31,27)"/>
</svg>
