<?xml version="1.0" encoding="UTF-8"?>
<svg version="1.1" xmlns="http://www.w3.org/2000/svg" width="40" height="40">
<path d="M0 0 C3 2 3 2 3.58520508 4.06420898 C3.78309067 8.11590656 3.69679424 10.92826098 1.44287109 14.39501953 C-0.70450875 16.76065598 -2.94529231 18.91727783 -5.3125 21.0625 C-6.49102539 22.19848633 -6.49102539 22.19848633 -7.69335938 23.35742188 C-12.55812493 27.97377387 -15.30624967 30.15186689 -22.1875 30.0625 C-23.53908203 30.04896484 -23.53908203 30.04896484 -24.91796875 30.03515625 C-25.60503906 30.02355469 -26.29210938 30.01195313 -27 30 C-26.88512252 28.41590006 -26.75765492 26.83271037 -26.625 25.25 C-26.55539063 24.36828125 -26.48578125 23.4865625 -26.4140625 22.578125 C-25.60759558 17.55672717 -23.59063309 15.53267061 -19.64453125 12.421875 C-17.86858743 10.88637963 -16.43274013 9.24569736 -14.9375 7.4375 C-10.35099712 1.99548362 -7.51387715 -0.83487524 0 0 Z M-5 4 C-5 5.32 -5 6.64 -5 8 C-3.68 8.33 -2.36 8.66 -1 9 C-1.33 7.35 -1.66 5.7 -2 4 C-2.99 4 -3.98 4 -5 4 Z M-10 10 C-12.35043123 11.98070048 -14.68003351 13.98372011 -17 16 C-17.78375 16.680625 -18.5675 17.36125 -19.375 18.0625 C-21.29788697 20.35517292 -21.67313753 22.05823775 -22 25 C-19.74666345 25.45257077 -19.74666345 25.45257077 -17 25 C-14.83995055 23.2568022 -13.06412043 21.62940099 -11.1875 19.625 C-10.68541016 19.11710937 -10.18332031 18.60921875 -9.66601562 18.0859375 C-6.86102243 15.50131031 -6.86102243 15.50131031 -6 12 C-7.32 11.34 -8.64 10.68 -10 10 Z " fill="#FFFFFF" transform="translate(37,0)"/>
<path d="M0 0 C1.28132812 0.00902344 2.56265625 0.01804688 3.8828125 0.02734375 C4.87023437 0.03894531 5.85765625 0.05054688 6.875 0.0625 C6.875 1.3825 6.875 2.7025 6.875 4.0625 C4.32446069 6.61303931 -4.03485426 5.8524901 -7.125 6.0625 C-7.125 14.6425 -7.125 23.2225 -7.125 32.0625 C-4.46321779 33.3933911 -2.43760604 33.17518993 0.5390625 33.16015625 C1.66054687 33.15693359 2.78203125 33.15371094 3.9375 33.15039062 C5.7009375 33.13782227 5.7009375 33.13782227 7.5 33.125 C8.68335937 33.12048828 9.86671875 33.11597656 11.0859375 33.11132812 C14.01564639 33.09951478 16.94532941 33.0815789 19.875 33.0625 C20.205 28.4425 20.535 23.8225 20.875 19.0625 C22.195 18.7325 23.515 18.4025 24.875 18.0625 C26.72790352 19.91540352 26.09158627 22.82874631 26.125 25.3125 C26.15078125 26.45203125 26.1765625 27.5915625 26.203125 28.765625 C25.82880337 32.5266661 25.29373493 34.16578782 22.875 37.0625 C20.18247032 37.54594623 18.12137902 37.69608364 15.43359375 37.62109375 C14.71011246 37.61876236 13.98663116 37.61643097 13.2412262 37.61402893 C11.71383858 37.60429536 10.18648689 37.58251643 8.65942383 37.54956055 C6.31732996 37.500102 3.97733475 37.48807847 1.63476562 37.48242188 C0.15101924 37.46833748 -1.33270885 37.45213363 -2.81640625 37.43359375 C-3.51850723 37.42823105 -4.22060822 37.42286835 -4.94398499 37.41734314 C-9.89169157 37.29580843 -9.89169157 37.29580843 -12.125 35.0625 C-12.52448471 30.66248663 -12.45401561 26.24791838 -12.44067383 21.83178711 C-12.43751683 19.63670079 -12.46095761 17.44296615 -12.48632812 15.24804688 C-12.48860143 13.85416837 -12.48930447 12.46028623 -12.48828125 11.06640625 C-12.49126221 9.79611572 -12.49424316 8.5258252 -12.49731445 7.21704102 C-12.125 4.0625 -12.125 4.0625 -10.72729492 2.18725586 C-7.13192009 -0.33657346 -4.35608863 -0.03960081 0 0 Z " fill="#FFFFFF" transform="translate(12.125,2.9375)"/>
</svg>
