<?xml version="1.0" encoding="UTF-8"?>
<svg version="1.1" xmlns="http://www.w3.org/2000/svg" width="40" height="40">
<path d="M0 0 C5.2506833 0.04102096 7.95738819 1.08720567 11.65625 4.77734375 C13.2156143 6.90147781 13.44712051 8.87022308 13.875 11.4375 C16.29883077 12.60703416 16.29883077 12.60703416 18.875 13.4375 C20.875 16.4375 20.875 16.4375 20.6875 19.9375 C19.61980303 24.53681004 19.61980303 24.53681004 16.875 26.4375 C13.73828125 26.73046875 13.73828125 26.73046875 10.1875 26.625 C9.00800781 26.59792969 7.82851563 26.57085938 6.61328125 26.54296875 C5.70964844 26.50816406 4.80601563 26.47335938 3.875 26.4375 C4.205 25.7775 4.535 25.1175 4.875 24.4375 C7.08984375 24.05859375 7.08984375 24.05859375 9.8125 23.875 C13.48175121 23.66948677 13.48175121 23.66948677 16.875 22.4375 C17.29246608 19.56385209 17.29246608 19.56385209 16.875 16.4375 C15.21651823 15.42398336 13.54834039 14.42629205 11.875 13.4375 C10.69047512 11.43706113 9.76852441 9.41901596 8.8671875 7.27734375 C7.87964269 5.10183378 7.87964269 5.10183378 4.875 3.4375 C-1.97487454 2.91719002 -1.97487454 2.91719002 -8.125 5.4375 C-8.75683633 7.48014894 -9.1387092 9.51163616 -9.52734375 11.61328125 C-9.72457031 12.21527344 -9.92179688 12.81726563 -10.125 13.4375 C-12.6875 14.625 -12.6875 14.625 -15.125 15.4375 C-16.28710219 17.83101495 -16.28710219 17.83101495 -16.125 20.4375 C-14.44805646 22.74399377 -13.46079047 23.36822669 -10.64453125 23.94921875 C-9.75121094 24.00722656 -8.85789062 24.06523437 -7.9375 24.125 C-7.03644531 24.19074219 -6.13539062 24.25648437 -5.20703125 24.32421875 C-4.51996094 24.36160156 -3.83289062 24.39898438 -3.125 24.4375 C-3.125 25.0975 -3.125 25.7575 -3.125 26.4375 C-5.04041138 26.54591951 -6.95759773 26.62328079 -8.875 26.6875 C-10.47601562 26.75710937 -10.47601562 26.75710937 -12.109375 26.828125 C-15.125 26.4375 -15.125 26.4375 -17.484375 24.60546875 C-19.125 22.4375 -19.125 22.4375 -19.625 19.5 C-19.01195583 15.74510449 -17.83593926 14.07098385 -15.125 11.4375 C-14.135 11.4375 -13.145 11.4375 -12.125 11.4375 C-12.063125 10.715625 -12.00125 9.99375 -11.9375 9.25 C-10.87687255 5.5785973 -8.92830069 3.96047062 -6.125 1.4375 C-4.42114834 -0.26635166 -2.33165078 0.10482899 0 0 Z " fill="#6B7280" transform="translate(19.125,4.5625)"/>
<path d="M0 0 C2.97790338 1.19116135 4.51091369 2.49522465 6.5 5 C6.5 5.99 6.5 6.98 6.5 8 C2.625 6.125 2.625 6.125 1.5 5 C1.17 8.96 0.84 12.92 0.5 17 C-0.16 17 -0.82 17 -1.5 17 C-1.83 12.71 -2.16 8.42 -2.5 4 C-4.15 5.32 -5.8 6.64 -7.5 8 C-7.11094382 5.27660672 -6.43262433 3.91096786 -4.75 1.6875 C-2.5 0 -2.5 0 0 0 Z " fill="#6B7180" transform="translate(20.5,19)"/>
</svg>
