<?xml version="1.0" encoding="UTF-8"?>
<svg version="1.1" xmlns="http://www.w3.org/2000/svg" width="40" height="40">
<path d="M0 0 C13.2 0 26.4 0 40 0 C40 13.2 40 26.4 40 40 C26.8 40 13.6 40 0 40 C0 26.8 0 13.6 0 0 Z " fill="#C6ECFA" transform="translate(0,0)"/>
<path d="M0 0 C13.2 0 26.4 0 40 0 C40 5.94 40 11.88 40 18 C38.35 16.35 36.7 14.7 35 13 C29.35630999 8.0062551 24.53037178 6.01338186 16.93359375 6.41015625 C9.60283542 7.88411698 5.13560469 12.86439531 0 18 C0 12.06 0 6.12 0 0 Z " fill="#C3EBFA" transform="translate(0,0)"/>
<path d="M0 0 C1.65 1.65 3.3 3.3 5 5 C10.22751298 9.86309501 14.5254675 12.524633 21.8828125 12.31640625 C28.24310879 11.36588227 32.80018845 7.67979002 37 3 C37.99 2.01 38.98 1.02 40 0 C40 5.94 40 11.88 40 18 C26.8 18 13.6 18 0 18 C0 12.06 0 6.12 0 0 Z " fill="#C3EBFA" transform="translate(0,22)"/>
<path d="M0 0 C4.59807566 2.91697621 8.51226152 6.23524343 11.40234375 10.859375 C11.47827444 14.57997897 10.71784023 16.3686027 8.71484375 19.484375 C3.79031329 24.54200088 -1.3970779 27.54456401 -8.41015625 28.234375 C-14.98300346 28.02434041 -19.80201714 24.84079488 -24.53515625 20.484375 C-26.55673618 18.28538159 -27.69025366 16.66155327 -28.97265625 13.921875 C-28.28381907 8.2963714 -24.10336048 5.04195922 -19.9921875 1.4609375 C-14.2346943 -2.54798369 -6.32328115 -2.77653849 0 0 Z M-24.16015625 9.421875 C-25.8032755 11.66717357 -25.8032755 11.66717357 -25.42578125 13.78515625 C-24.3642388 16.44401964 -22.96726796 17.6463811 -20.78515625 19.484375 C-20.09808594 20.07476563 -19.41101563 20.66515625 -18.703125 21.2734375 C-14.27894865 24.60593397 -11.19508112 25.41911749 -5.59765625 24.859375 C0.22332689 22.87776372 4.59095513 19.64804275 8.40234375 14.859375 C8.96840233 12.26419759 8.96840233 12.26419759 7.40234375 9.859375 C2.67161965 4.80239406 -1.93504197 1.88688262 -8.91015625 1.421875 C-15.45583542 1.57460751 -19.67496087 4.93667962 -24.16015625 9.421875 Z " fill="#F8FCFE" transform="translate(28.59765625,7.140625)"/>
<path d="M0 0 C2.5 1.5 2.5 1.5 4 4 C4.7152453 9.00671711 4.81148802 10.85436985 1.875 15 C-1 17 -1 17 -4 17.625 C-8.14182881 16.762119 -9.56226471 15.44150865 -12 12 C-12.8876276 8.10215706 -12.59158203 4.98597004 -10.5 1.5 C-6.96411027 -0.62153384 -4.02098277 -0.791013 0 0 Z " fill="#FAFDFE" transform="translate(24,12)"/>
<path d="M0 0 C3.0625 0.3125 3.0625 0.3125 5 1.4375 C6.0625 3.3125 6.0625 3.3125 5.9375 6.375 C5.0625 9.3125 5.0625 9.3125 2.0625 11.3125 C-0.4375 11.6875 -0.4375 11.6875 -2.9375 11.3125 C-4.8125 9.625 -4.8125 9.625 -5.9375 7.3125 C-5.61764525 2.8345335 -4.76027546 0.50641228 0 0 Z " fill="#C6ECFA" transform="translate(19.9375,14.6875)"/>
</svg>
